<?xml version="1.0" encoding="UTF-8" standalone="no"?>
<!DOCTYPE svg PUBLIC "-//W3C//DTD SVG 1.1//EN"
 "http://www.w3.org/Graphics/SVG/1.1/DTD/svg11.dtd">
<!-- Generated by graphviz version 2.38.0 (20140413.2041)
 -->
<!-- Title: Core::Task Pages: 1 -->
<svg width="744pt" height="235pt"
 viewBox="0.00 0.00 744.00 235.00" xmlns="http://www.w3.org/2000/svg" xmlns:xlink="http://www.w3.org/1999/xlink">
<g id="graph0" class="graph" transform="scale(1 1) rotate(0) translate(4 231)">
<title>Core::Task</title>
<polygon fill="white" stroke="none" points="-4,4 -4,-231 740,-231 740,4 -4,4"/>
<!-- Node1 -->
<g id="node1" class="node"><title>Node1</title>
<polygon fill="#bfbfbf" stroke="black" points="139,-79 139,-98 204,-98 204,-79 139,-79"/>
<text text-anchor="middle" x="171.5" y="-86" font-family="Helvetica,sans-Serif" font-size="10.00">Core::Task</text>
</g>
<!-- Node3 -->
<g id="node3" class="node"><title>Node3</title>
<g id="a_node3"><a xlink:href="class_core_1_1_continuous_discrete_task.html" target="_top" xlink:title="Базовый тип задач для непрерывно&#45;дискретных фильтров оптимальной структуры. ">
<polygon fill="white" stroke="black" points="240,-153 240,-172 392,-172 392,-153 240,-153"/>
<text text-anchor="middle" x="316" y="-160" font-family="Helvetica,sans-Serif" font-size="10.00">Core::ContinuousDiscreteTask</text>
</a>
</g>
</g>
<!-- Node1&#45;&gt;Node3 -->
<g id="edge2" class="edge"><title>Node1&#45;&gt;Node3</title>
<path fill="none" stroke="midnightblue" d="M199.809,-102.682C228.127,-117.387 271.636,-139.981 296.28,-152.779"/>
<polygon fill="midnightblue" stroke="midnightblue" points="201.325,-99.5252 190.838,-98.0227 198.099,-105.738 201.325,-99.5252"/>
</g>
<!-- Node8 -->
<g id="node8" class="node"><title>Node8</title>
<g id="a_node8"><a xlink:href="class_core_1_1_continuous_task.html" target="_top" xlink:title="Базовый тип задач для непрерывных фильтров оптимальной структуры. ">
<polygon fill="white" stroke="black" points="258.5,-79 258.5,-98 373.5,-98 373.5,-79 258.5,-79"/>
<text text-anchor="middle" x="316" y="-86" font-family="Helvetica,sans-Serif" font-size="10.00">Core::ContinuousTask</text>
</a>
</g>
</g>
<!-- Node1&#45;&gt;Node8 -->
<g id="edge7" class="edge"><title>Node1&#45;&gt;Node8</title>
<path fill="none" stroke="midnightblue" d="M214.253,-88.5C228.009,-88.5 243.545,-88.5 258.226,-88.5"/>
<polygon fill="midnightblue" stroke="midnightblue" points="214.125,-85.0001 204.125,-88.5 214.125,-92.0001 214.125,-85.0001"/>
</g>
<!-- Node13 -->
<g id="node13" class="node"><title>Node13</title>
<g id="a_node13"><a xlink:href="class_core_1_1_discrete_task.html" target="_top" xlink:title="Базовый тип задач для дискретных фильтров оптимальной структуры. ">
<polygon fill="white" stroke="black" points="265,-36 265,-55 367,-55 367,-36 265,-36"/>
<text text-anchor="middle" x="316" y="-43" font-family="Helvetica,sans-Serif" font-size="10.00">Core::DiscreteTask</text>
</a>
</g>
</g>
<!-- Node1&#45;&gt;Node13 -->
<g id="edge12" class="edge"><title>Node1&#45;&gt;Node13</title>
<path fill="none" stroke="midnightblue" d="M213.945,-75.9938C236.124,-69.3012 263.003,-61.1903 283.463,-55.0164"/>
<polygon fill="midnightblue" stroke="midnightblue" points="212.688,-72.7172 204.125,-78.9569 214.71,-79.4187 212.688,-72.7172"/>
</g>
<!-- Node2 -->
<g id="node2" class="node"><title>Node2</title>
<g id="a_node2"><a xlink:href="class_core_1_1_function_time.html" target="_top" xlink:title="Базовый класс для классов, представляющих собой функции времени. ">
<polygon fill="white" stroke="black" points="0,-79 0,-98 103,-98 103,-79 0,-79"/>
<text text-anchor="middle" x="51.5" y="-86" font-family="Helvetica,sans-Serif" font-size="10.00">Core::FunctionTime</text>
</a>
</g>
</g>
<!-- Node2&#45;&gt;Node1 -->
<g id="edge1" class="edge"><title>Node2&#45;&gt;Node1</title>
<path fill="none" stroke="midnightblue" d="M113.232,-88.5C122.111,-88.5 130.938,-88.5 138.907,-88.5"/>
<polygon fill="midnightblue" stroke="midnightblue" points="113.227,-85.0001 103.227,-88.5 113.227,-92.0001 113.227,-85.0001"/>
</g>
<!-- Node4 -->
<g id="node4" class="node"><title>Node4</title>
<g id="a_node4"><a xlink:href="class_tasks_1_1_continuous_discrete_1_1_landing_linear.html" target="_top" xlink:title="Задача спуска ЛА на планету (непрерывно&#45;дискретная, линеаризованная) для фильтров оптимальной структу...">
<polygon fill="white" stroke="black" points="428,-196.5 428,-226.5 564,-226.5 564,-196.5 428,-196.5"/>
<text text-anchor="start" x="436" y="-214.5" font-family="Helvetica,sans-Serif" font-size="10.00">Tasks::ContinuousDiscrete</text>
<text text-anchor="middle" x="496" y="-203.5" font-family="Helvetica,sans-Serif" font-size="10.00">::LandingLinear</text>
</a>
</g>
</g>
<!-- Node3&#45;&gt;Node4 -->
<g id="edge3" class="edge"><title>Node3&#45;&gt;Node4</title>
<path fill="none" stroke="midnightblue" d="M361.6,-174.778C385.489,-181.354 415.115,-189.509 440.376,-196.463"/>
<polygon fill="midnightblue" stroke="midnightblue" points="362.313,-171.344 351.743,-172.064 360.455,-178.093 362.313,-171.344"/>
</g>
<!-- Node6 -->
<g id="node6" class="node"><title>Node6</title>
<g id="a_node6"><a xlink:href="class_tasks_1_1_continuous_discrete_1_1_van_der_pol_linear.html" target="_top" xlink:title="Осциллятор Ван&#45;дер&#45;Поля (непрерывно&#45;дискретный, линеаризованный) для фильтров оптимальной структуры...">
<polygon fill="white" stroke="black" points="428,-147.5 428,-177.5 564,-177.5 564,-147.5 428,-147.5"/>
<text text-anchor="start" x="436" y="-165.5" font-family="Helvetica,sans-Serif" font-size="10.00">Tasks::ContinuousDiscrete</text>
<text text-anchor="middle" x="496" y="-154.5" font-family="Helvetica,sans-Serif" font-size="10.00">::VanDerPolLinear</text>
</a>
</g>
</g>
<!-- Node3&#45;&gt;Node6 -->
<g id="edge5" class="edge"><title>Node3&#45;&gt;Node6</title>
<path fill="none" stroke="midnightblue" d="M402.297,-162.5C410.908,-162.5 419.564,-162.5 427.944,-162.5"/>
<polygon fill="midnightblue" stroke="midnightblue" points="402.23,-159 392.23,-162.5 402.23,-166 402.23,-159"/>
</g>
<!-- Node5 -->
<g id="node5" class="node"><title>Node5</title>
<g id="a_node5"><a xlink:href="class_tasks_1_1_continuous_discrete_1_1_landing_gauss.html" target="_top" xlink:title="Tasks::ContinuousDiscrete\l::LandingGauss">
<polygon fill="white" stroke="black" points="600,-196.5 600,-226.5 736,-226.5 736,-196.5 600,-196.5"/>
<text text-anchor="start" x="608" y="-214.5" font-family="Helvetica,sans-Serif" font-size="10.00">Tasks::ContinuousDiscrete</text>
<text text-anchor="middle" x="668" y="-203.5" font-family="Helvetica,sans-Serif" font-size="10.00">::LandingGauss</text>
</a>
</g>
</g>
<!-- Node4&#45;&gt;Node5 -->
<g id="edge4" class="edge"><title>Node4&#45;&gt;Node5</title>
<path fill="none" stroke="midnightblue" d="M574.425,-211.5C582.876,-211.5 591.428,-211.5 599.743,-211.5"/>
<polygon fill="midnightblue" stroke="midnightblue" points="574.189,-208 564.189,-211.5 574.188,-215 574.189,-208"/>
</g>
<!-- Node7 -->
<g id="node7" class="node"><title>Node7</title>
<g id="a_node7"><a xlink:href="class_tasks_1_1_continuous_discrete_1_1_van_der_pol_gauss.html" target="_top" xlink:title="Осциллятор Ван&#45;дер&#45;Поля (непрерывно&#45;дискретный, гауссовский) для фильтров оптимальной структуры...">
<polygon fill="white" stroke="black" points="600,-147.5 600,-177.5 736,-177.5 736,-147.5 600,-147.5"/>
<text text-anchor="start" x="608" y="-165.5" font-family="Helvetica,sans-Serif" font-size="10.00">Tasks::ContinuousDiscrete</text>
<text text-anchor="middle" x="668" y="-154.5" font-family="Helvetica,sans-Serif" font-size="10.00">::VanDerPolGauss</text>
</a>
</g>
</g>
<!-- Node6&#45;&gt;Node7 -->
<g id="edge6" class="edge"><title>Node6&#45;&gt;Node7</title>
<path fill="none" stroke="midnightblue" d="M574.425,-162.5C582.876,-162.5 591.428,-162.5 599.743,-162.5"/>
<polygon fill="midnightblue" stroke="midnightblue" points="574.189,-159 564.189,-162.5 574.188,-166 574.189,-159"/>
</g>
<!-- Node9 -->
<g id="node9" class="node"><title>Node9</title>
<g id="a_node9"><a xlink:href="class_tasks_1_1_continuous_1_1_landing_linear.html" target="_top" xlink:title="Задача спуска ЛА на планету (непрерывная, линеаризованная) для фильтров оптимальной структуры...">
<polygon fill="white" stroke="black" points="443.5,-98.5 443.5,-128.5 548.5,-128.5 548.5,-98.5 443.5,-98.5"/>
<text text-anchor="start" x="451.5" y="-116.5" font-family="Helvetica,sans-Serif" font-size="10.00">Tasks::Continuous::</text>
<text text-anchor="middle" x="496" y="-105.5" font-family="Helvetica,sans-Serif" font-size="10.00">LandingLinear</text>
</a>
</g>
</g>
<!-- Node8&#45;&gt;Node9 -->
<g id="edge8" class="edge"><title>Node8&#45;&gt;Node9</title>
<path fill="none" stroke="midnightblue" d="M383.916,-97.8983C403.55,-100.656 424.716,-103.629 443.251,-106.232"/>
<polygon fill="midnightblue" stroke="midnightblue" points="384.199,-94.4038 373.81,-96.4789 383.226,-101.336 384.199,-94.4038"/>
</g>
<!-- Node11 -->
<g id="node11" class="node"><title>Node11</title>
<g id="a_node11"><a xlink:href="class_tasks_1_1_continuous_1_1_van_der_pol_linear.html" target="_top" xlink:title="Осциллятор Ван&#45;дер&#45;Поля (непрерывный, линеаризованный) для фильтров оптимальной структуры. ">
<polygon fill="white" stroke="black" points="443.5,-49.5 443.5,-79.5 548.5,-79.5 548.5,-49.5 443.5,-49.5"/>
<text text-anchor="start" x="451.5" y="-67.5" font-family="Helvetica,sans-Serif" font-size="10.00">Tasks::Continuous::</text>
<text text-anchor="middle" x="496" y="-56.5" font-family="Helvetica,sans-Serif" font-size="10.00">VanDerPolLinear</text>
</a>
</g>
</g>
<!-- Node8&#45;&gt;Node11 -->
<g id="edge10" class="edge"><title>Node8&#45;&gt;Node11</title>
<path fill="none" stroke="midnightblue" d="M383.916,-79.4777C403.55,-76.8303 424.716,-73.9766 443.251,-71.4774"/>
<polygon fill="midnightblue" stroke="midnightblue" points="383.252,-76.0353 373.81,-80.8403 384.188,-82.9726 383.252,-76.0353"/>
</g>
<!-- Node10 -->
<g id="node10" class="node"><title>Node10</title>
<g id="a_node10"><a xlink:href="class_tasks_1_1_continuous_1_1_landing_gauss.html" target="_top" xlink:title="Tasks::Continuous::\lLandingGauss">
<polygon fill="white" stroke="black" points="615.5,-98.5 615.5,-128.5 720.5,-128.5 720.5,-98.5 615.5,-98.5"/>
<text text-anchor="start" x="623.5" y="-116.5" font-family="Helvetica,sans-Serif" font-size="10.00">Tasks::Continuous::</text>
<text text-anchor="middle" x="668" y="-105.5" font-family="Helvetica,sans-Serif" font-size="10.00">LandingGauss</text>
</a>
</g>
</g>
<!-- Node9&#45;&gt;Node10 -->
<g id="edge9" class="edge"><title>Node9&#45;&gt;Node10</title>
<path fill="none" stroke="midnightblue" d="M559.027,-113.5C577.538,-113.5 597.62,-113.5 615.389,-113.5"/>
<polygon fill="midnightblue" stroke="midnightblue" points="558.929,-110 548.929,-113.5 558.929,-117 558.929,-110"/>
</g>
<!-- Node12 -->
<g id="node12" class="node"><title>Node12</title>
<g id="a_node12"><a xlink:href="class_tasks_1_1_continuous_1_1_van_der_pol_gauss.html" target="_top" xlink:title="Осциллятор Ван&#45;дер&#45;Поля (непрерывный, гауссовский) для фильтров оптимальной структуры. ">
<polygon fill="white" stroke="black" points="615.5,-49.5 615.5,-79.5 720.5,-79.5 720.5,-49.5 615.5,-49.5"/>
<text text-anchor="start" x="623.5" y="-67.5" font-family="Helvetica,sans-Serif" font-size="10.00">Tasks::Continuous::</text>
<text text-anchor="middle" x="668" y="-56.5" font-family="Helvetica,sans-Serif" font-size="10.00">VanDerPolGauss</text>
</a>
</g>
</g>
<!-- Node11&#45;&gt;Node12 -->
<g id="edge11" class="edge"><title>Node11&#45;&gt;Node12</title>
<path fill="none" stroke="midnightblue" d="M559.027,-64.5C577.538,-64.5 597.62,-64.5 615.389,-64.5"/>
<polygon fill="midnightblue" stroke="midnightblue" points="558.929,-61.0001 548.929,-64.5 558.929,-68.0001 558.929,-61.0001"/>
</g>
<!-- Node14 -->
<g id="node14" class="node"><title>Node14</title>
<g id="a_node14"><a xlink:href="class_tasks_1_1_discrete_1_1_landing_linear.html" target="_top" xlink:title="Задача спуска ЛА на планету (дискретная, линеаризованная) для фильтров оптимальной структуры...">
<polygon fill="white" stroke="black" points="433,-0.5 433,-30.5 559,-30.5 559,-0.5 433,-0.5"/>
<text text-anchor="start" x="441" y="-18.5" font-family="Helvetica,sans-Serif" font-size="10.00">Tasks::Discrete::Landing</text>
<text text-anchor="middle" x="496" y="-7.5" font-family="Helvetica,sans-Serif" font-size="10.00">Linear</text>
</a>
</g>
</g>
<!-- Node13&#45;&gt;Node14 -->
<g id="edge13" class="edge"><title>Node13&#45;&gt;Node14</title>
<path fill="none" stroke="midnightblue" d="M377.128,-35.3661C395.11,-32.3354 414.856,-29.0075 432.958,-25.9565"/>
<polygon fill="midnightblue" stroke="midnightblue" points="376.336,-31.9501 367.057,-37.0635 377.499,-38.8528 376.336,-31.9501"/>
</g>
<!-- Node15 -->
<g id="node15" class="node"><title>Node15</title>
<g id="a_node15"><a xlink:href="class_tasks_1_1_discrete_1_1_landing_gauss.html" target="_top" xlink:title="Tasks::Discrete::Landing\lGauss">
<polygon fill="white" stroke="black" points="605,-0.5 605,-30.5 731,-30.5 731,-0.5 605,-0.5"/>
<text text-anchor="start" x="613" y="-18.5" font-family="Helvetica,sans-Serif" font-size="10.00">Tasks::Discrete::Landing</text>
<text text-anchor="middle" x="668" y="-7.5" font-family="Helvetica,sans-Serif" font-size="10.00">Gauss</text>
</a>
</g>
</g>
<!-- Node14&#45;&gt;Node15 -->
<g id="edge14" class="edge"><title>Node14&#45;&gt;Node15</title>
<path fill="none" stroke="midnightblue" d="M569.579,-15.5C581.356,-15.5 593.459,-15.5 604.955,-15.5"/>
<polygon fill="midnightblue" stroke="midnightblue" points="569.336,-12.0001 559.336,-15.5 569.336,-19.0001 569.336,-12.0001"/>
</g>
</g>
</svg>
