<?xml version="1.0" encoding="UTF-8" standalone="no"?>
<!DOCTYPE svg PUBLIC "-//W3C//DTD SVG 1.1//EN"
 "http://www.w3.org/Graphics/SVG/1.1/DTD/svg11.dtd">
<!-- Generated by graphviz version 2.38.0 (20140413.2041)
 -->
<!-- Title: Filters::ContinuousDiscrete::DFOSBO Pages: 1 -->
<svg width="144pt" height="162pt"
 viewBox="0.00 0.00 144.00 162.00" xmlns="http://www.w3.org/2000/svg" xmlns:xlink="http://www.w3.org/1999/xlink">
<g id="graph0" class="graph" transform="scale(1 1) rotate(0) translate(4 158)">
<title>Filters::ContinuousDiscrete::DFOSBO</title>
<polygon fill="white" stroke="none" points="-4,4 -4,-158 140,-158 140,4 -4,4"/>
<!-- Node1 -->
<g id="node1" class="node"><title>Node1</title>
<polygon fill="#bfbfbf" stroke="black" points="0,-0.5 0,-30.5 136,-30.5 136,-0.5 0,-0.5"/>
<text text-anchor="start" x="8" y="-18.5" font-family="Helvetica,sans-Serif" font-size="10.00">Filters::ContinuousDiscrete</text>
<text text-anchor="middle" x="68" y="-7.5" font-family="Helvetica,sans-Serif" font-size="10.00">::DFOSBO</text>
</g>
<!-- Node2 -->
<g id="node2" class="node"><title>Node2</title>
<g id="a_node2"><a xlink:href="class_core_1_1_continuous_discrete_filter.html" target="_top" xlink:title="Базовый класс для всех непрерывно&#45;дискретных фильтров оптимальной структуры. ">
<polygon fill="white" stroke="black" points="3,-67.5 3,-97.5 133,-97.5 133,-67.5 3,-67.5"/>
<text text-anchor="start" x="11" y="-85.5" font-family="Helvetica,sans-Serif" font-size="10.00">Core::ContinuousDiscrete</text>
<text text-anchor="middle" x="68" y="-74.5" font-family="Helvetica,sans-Serif" font-size="10.00">Filter</text>
</a>
</g>
</g>
<!-- Node2&#45;&gt;Node1 -->
<g id="edge1" class="edge"><title>Node2&#45;&gt;Node1</title>
<path fill="none" stroke="midnightblue" d="M68,-57.1081C68,-48.1539 68,-38.3227 68,-30.5765"/>
<polygon fill="midnightblue" stroke="midnightblue" points="64.5001,-57.3959 68,-67.396 71.5001,-57.396 64.5001,-57.3959"/>
</g>
<!-- Node3 -->
<g id="node3" class="node"><title>Node3</title>
<g id="a_node3"><a xlink:href="class_core_1_1_filter.html" target="_top" xlink:title="Базовый класс для всех фильтров. ">
<polygon fill="white" stroke="black" points="35.5,-134.5 35.5,-153.5 100.5,-153.5 100.5,-134.5 35.5,-134.5"/>
<text text-anchor="middle" x="68" y="-141.5" font-family="Helvetica,sans-Serif" font-size="10.00">Core::Filter</text>
</a>
</g>
</g>
<!-- Node3&#45;&gt;Node2 -->
<g id="edge2" class="edge"><title>Node3&#45;&gt;Node2</title>
<path fill="none" stroke="midnightblue" d="M68,-124.235C68,-115.586 68,-105.497 68,-97.523"/>
<polygon fill="midnightblue" stroke="midnightblue" points="64.5001,-124.475 68,-134.475 71.5001,-124.475 64.5001,-124.475"/>
</g>
</g>
</svg>
