<?xml version="1.0" encoding="UTF-8" standalone="no"?>
<!DOCTYPE svg PUBLIC "-//W3C//DTD SVG 1.1//EN"
 "http://www.w3.org/Graphics/SVG/1.1/DTD/svg11.dtd">
<!-- Generated by graphviz version 2.38.0 (20140413.2041)
 -->
<!-- Title: Tasks::Continuous::VanDerPolGauss Pages: 1 -->
<svg width="256pt" height="299pt"
 viewBox="0.00 0.00 255.50 299.00" xmlns="http://www.w3.org/2000/svg" xmlns:xlink="http://www.w3.org/1999/xlink">
<g id="graph0" class="graph" transform="scale(1 1) rotate(0) translate(4 295)">
<title>Tasks::Continuous::VanDerPolGauss</title>
<polygon fill="white" stroke="none" points="-4,4 -4,-295 251.5,-295 251.5,4 -4,4"/>
<!-- Node1 -->
<g id="node1" class="node"><title>Node1</title>
<polygon fill="#bfbfbf" stroke="black" points="65,-0.5 65,-30.5 170,-30.5 170,-0.5 65,-0.5"/>
<text text-anchor="start" x="73" y="-18.5" font-family="Helvetica,sans-Serif" font-size="10.00">Tasks::Continuous::</text>
<text text-anchor="middle" x="117.5" y="-7.5" font-family="Helvetica,sans-Serif" font-size="10.00">VanDerPolGauss</text>
</g>
<!-- Node2 -->
<g id="node2" class="node"><title>Node2</title>
<g id="a_node2"><a xlink:href="class_tasks_1_1_continuous_1_1_van_der_pol_linear.html" target="_top" xlink:title="Осциллятор Ван&#45;дер&#45;Поля (непрерывный, линеаризованный) для фильтров оптимальной структуры. ">
<polygon fill="white" stroke="black" points="65,-68.5 65,-98.5 170,-98.5 170,-68.5 65,-68.5"/>
<text text-anchor="start" x="73" y="-86.5" font-family="Helvetica,sans-Serif" font-size="10.00">Tasks::Continuous::</text>
<text text-anchor="middle" x="117.5" y="-75.5" font-family="Helvetica,sans-Serif" font-size="10.00">VanDerPolLinear</text>
</a>
</g>
</g>
<!-- Node2&#45;&gt;Node1 -->
<g id="edge1" class="edge"><title>Node2&#45;&gt;Node1</title>
<path fill="none" stroke="midnightblue" d="M117.5,-58.0322C117.5,-48.8606 117.5,-38.7449 117.5,-30.7931"/>
<polygon fill="midnightblue" stroke="midnightblue" points="114,-58.1789 117.5,-68.179 121,-58.179 114,-58.1789"/>
</g>
<!-- Node3 -->
<g id="node3" class="node"><title>Node3</title>
<g id="a_node3"><a xlink:href="class_core_1_1_continuous_task.html" target="_top" xlink:title="Базовый тип задач для непрерывных фильтров оптимальной структуры. ">
<polygon fill="white" stroke="black" points="60,-136.5 60,-155.5 175,-155.5 175,-136.5 60,-136.5"/>
<text text-anchor="middle" x="117.5" y="-143.5" font-family="Helvetica,sans-Serif" font-size="10.00">Core::ContinuousTask</text>
</a>
</g>
</g>
<!-- Node3&#45;&gt;Node2 -->
<g id="edge2" class="edge"><title>Node3&#45;&gt;Node2</title>
<path fill="none" stroke="midnightblue" d="M117.5,-126.215C117.5,-117.356 117.5,-106.958 117.5,-98.7587"/>
<polygon fill="midnightblue" stroke="midnightblue" points="114,-126.332 117.5,-136.332 121,-126.332 114,-126.332"/>
</g>
<!-- Node4 -->
<g id="node4" class="node"><title>Node4</title>
<g id="a_node4"><a xlink:href="class_core_1_1_task.html" target="_top" xlink:title="Базовый класс для всех задач ">
<polygon fill="white" stroke="black" points="85,-193.5 85,-212.5 150,-212.5 150,-193.5 85,-193.5"/>
<text text-anchor="middle" x="117.5" y="-200.5" font-family="Helvetica,sans-Serif" font-size="10.00">Core::Task</text>
</a>
</g>
</g>
<!-- Node4&#45;&gt;Node3 -->
<g id="edge3" class="edge"><title>Node4&#45;&gt;Node3</title>
<path fill="none" stroke="midnightblue" d="M117.5,-183.117C117.5,-173.817 117.5,-163.056 117.5,-155.715"/>
<polygon fill="midnightblue" stroke="midnightblue" points="114,-183.406 117.5,-193.406 121,-183.406 114,-183.406"/>
</g>
<!-- Node5 -->
<g id="node5" class="node"><title>Node5</title>
<g id="a_node5"><a xlink:href="class_core_1_1_function_time.html" target="_top" xlink:title="Базовый класс для классов, представляющих собой функции времени. ">
<polygon fill="white" stroke="black" points="0,-266 0,-285 103,-285 103,-266 0,-266"/>
<text text-anchor="middle" x="51.5" y="-273" font-family="Helvetica,sans-Serif" font-size="10.00">Core::FunctionTime</text>
</a>
</g>
</g>
<!-- Node5&#45;&gt;Node4 -->
<g id="edge4" class="edge"><title>Node5&#45;&gt;Node4</title>
<path fill="none" stroke="midnightblue" d="M66.6696,-258.296C79.9435,-244.117 98.718,-224.063 109.341,-212.715"/>
<polygon fill="midnightblue" stroke="midnightblue" points="63.8721,-256.163 59.5929,-265.855 68.9823,-260.947 63.8721,-256.163"/>
</g>
<!-- Node6 -->
<g id="node6" class="node"><title>Node6</title>
<g id="a_node6"><a xlink:href="class_math_1_1_multivariate_normal_distribution.html" target="_top" xlink:title="Класс&#45;генератор случайных нормальных(гауссовских) векторов. ">
<polygon fill="white" stroke="black" points="121.5,-260.5 121.5,-290.5 247.5,-290.5 247.5,-260.5 121.5,-260.5"/>
<text text-anchor="start" x="129.5" y="-278.5" font-family="Helvetica,sans-Serif" font-size="10.00">Math::MultivariateNormal</text>
<text text-anchor="middle" x="184.5" y="-267.5" font-family="Helvetica,sans-Serif" font-size="10.00">Distribution</text>
</a>
</g>
</g>
<!-- Node6&#45;&gt;Node4 -->
<g id="edge5" class="edge"><title>Node6&#45;&gt;Node4</title>
<path fill="none" stroke="#9a32cd" stroke-dasharray="5,2" d="M163.841,-252.762C151.089,-239.344 135.413,-222.849 125.952,-212.893"/>
<polygon fill="#9a32cd" stroke="#9a32cd" points="161.516,-255.396 170.942,-260.233 166.59,-250.573 161.516,-255.396"/>
<text text-anchor="middle" x="188.5" y="-234" font-family="Helvetica,sans-Serif" font-size="10.00"> m_normalRand</text>
</g>
</g>
</svg>
