<?xml version="1.0" encoding="UTF-8" standalone="no"?>
<!DOCTYPE svg PUBLIC "-//W3C//DTD SVG 1.1//EN"
 "http://www.w3.org/Graphics/SVG/1.1/DTD/svg11.dtd">
<!-- Generated by graphviz version 2.38.0 (20140413.2041)
 -->
<!-- Title: Core::ContinuousFilter Pages: 1 -->
<svg width="276pt" height="140pt"
 viewBox="0.00 0.00 276.00 140.00" xmlns="http://www.w3.org/2000/svg" xmlns:xlink="http://www.w3.org/1999/xlink">
<g id="graph0" class="graph" transform="scale(1 1) rotate(0) translate(4 136)">
<title>Core::ContinuousFilter</title>
<polygon fill="white" stroke="none" points="-4,4 -4,-136 272,-136 272,4 -4,4"/>
<!-- Node1 -->
<g id="node1" class="node"><title>Node1</title>
<polygon fill="#bfbfbf" stroke="black" points="76,-56.5 76,-75.5 191,-75.5 191,-56.5 76,-56.5"/>
<text text-anchor="middle" x="133.5" y="-63.5" font-family="Helvetica,sans-Serif" font-size="10.00">Core::ContinuousFilter</text>
</g>
<!-- Node3 -->
<g id="node3" class="node"><title>Node3</title>
<g id="a_node3"><a xlink:href="class_filters_1_1_continuous_1_1_a_o_f.html" target="_top" xlink:title="Класс, реализующий непрерывный абсолютно оптимальный фильтр. ">
<polygon fill="white" stroke="black" points="0,-0.5 0,-19.5 125,-19.5 125,-0.5 0,-0.5"/>
<text text-anchor="middle" x="62.5" y="-7.5" font-family="Helvetica,sans-Serif" font-size="10.00">Filters::Continuous::AOF</text>
</a>
</g>
</g>
<!-- Node1&#45;&gt;Node3 -->
<g id="edge2" class="edge"><title>Node1&#45;&gt;Node3</title>
<path fill="none" stroke="midnightblue" d="M113.91,-50.1008C101.132,-40.3824 84.8873,-28.0269 74.1149,-19.8339"/>
<polygon fill="midnightblue" stroke="midnightblue" points="112.014,-53.0561 122.093,-56.324 116.252,-47.4844 112.014,-53.0561"/>
</g>
<!-- Node4 -->
<g id="node4" class="node"><title>Node4</title>
<g id="a_node4"><a xlink:href="class_filters_1_1_continuous_1_1_f_o_s.html" target="_top" xlink:title="Класс, реализующий непрерывный фильтр оптимальной структуры. ">
<polygon fill="white" stroke="black" points="143,-0.5 143,-19.5 268,-19.5 268,-0.5 143,-0.5"/>
<text text-anchor="middle" x="205.5" y="-7.5" font-family="Helvetica,sans-Serif" font-size="10.00">Filters::Continuous::FOS</text>
</a>
</g>
</g>
<!-- Node1&#45;&gt;Node4 -->
<g id="edge3" class="edge"><title>Node1&#45;&gt;Node4</title>
<path fill="none" stroke="midnightblue" d="M153.366,-50.1008C166.323,-40.3824 182.797,-28.0269 193.721,-19.8339"/>
<polygon fill="midnightblue" stroke="midnightblue" points="150.968,-47.5239 145.068,-56.324 155.168,-53.1239 150.968,-47.5239"/>
</g>
<!-- Node2 -->
<g id="node2" class="node"><title>Node2</title>
<g id="a_node2"><a xlink:href="class_core_1_1_filter.html" target="_top" xlink:title="Базовый класс для всех фильтров. ">
<polygon fill="white" stroke="black" points="101,-112.5 101,-131.5 166,-131.5 166,-112.5 101,-112.5"/>
<text text-anchor="middle" x="133.5" y="-119.5" font-family="Helvetica,sans-Serif" font-size="10.00">Core::Filter</text>
</a>
</g>
</g>
<!-- Node2&#45;&gt;Node1 -->
<g id="edge1" class="edge"><title>Node2&#45;&gt;Node1</title>
<path fill="none" stroke="midnightblue" d="M133.5,-101.805C133.5,-92.9102 133.5,-82.7798 133.5,-75.7511"/>
<polygon fill="midnightblue" stroke="midnightblue" points="130,-102.083 133.5,-112.083 137,-102.083 130,-102.083"/>
</g>
</g>
</svg>
