<?xml version="1.0" encoding="UTF-8" standalone="no"?>
<!DOCTYPE svg PUBLIC "-//W3C//DTD SVG 1.1//EN"
 "http://www.w3.org/Graphics/SVG/1.1/DTD/svg11.dtd">
<!-- Generated by graphviz version 2.38.0 (20140413.2041)
 -->
<!-- Title: Core::Task Pages: 1 -->
<svg width="256pt" height="106pt"
 viewBox="0.00 0.00 255.50 106.00" xmlns="http://www.w3.org/2000/svg" xmlns:xlink="http://www.w3.org/1999/xlink">
<g id="graph0" class="graph" transform="scale(1 1) rotate(0) translate(4 102)">
<title>Core::Task</title>
<polygon fill="white" stroke="none" points="-4,4 -4,-102 251.5,-102 251.5,4 -4,4"/>
<!-- Node1 -->
<g id="node1" class="node"><title>Node1</title>
<polygon fill="#bfbfbf" stroke="black" points="85,-0.5 85,-19.5 150,-19.5 150,-0.5 85,-0.5"/>
<text text-anchor="middle" x="117.5" y="-7.5" font-family="Helvetica,sans-Serif" font-size="10.00">Core::Task</text>
</g>
<!-- Node2 -->
<g id="node2" class="node"><title>Node2</title>
<g id="a_node2"><a xlink:href="class_core_1_1_function_time.html" target="_top" xlink:title="Базовый класс для классов, представляющих собой функции времени. ">
<polygon fill="white" stroke="black" points="0,-73 0,-92 103,-92 103,-73 0,-73"/>
<text text-anchor="middle" x="51.5" y="-80" font-family="Helvetica,sans-Serif" font-size="10.00">Core::FunctionTime</text>
</a>
</g>
</g>
<!-- Node2&#45;&gt;Node1 -->
<g id="edge1" class="edge"><title>Node2&#45;&gt;Node1</title>
<path fill="none" stroke="midnightblue" d="M66.6696,-65.2962C79.9435,-51.1172 98.718,-31.0626 109.341,-19.7154"/>
<polygon fill="midnightblue" stroke="midnightblue" points="63.8721,-63.1631 59.5929,-72.8553 68.9823,-67.9471 63.8721,-63.1631"/>
</g>
<!-- Node3 -->
<g id="node3" class="node"><title>Node3</title>
<g id="a_node3"><a xlink:href="class_math_1_1_multivariate_normal_distribution.html" target="_top" xlink:title="Класс&#45;генератор случайных нормальных(гауссовских) векторов. ">
<polygon fill="white" stroke="black" points="121.5,-67.5 121.5,-97.5 247.5,-97.5 247.5,-67.5 121.5,-67.5"/>
<text text-anchor="start" x="129.5" y="-85.5" font-family="Helvetica,sans-Serif" font-size="10.00">Math::MultivariateNormal</text>
<text text-anchor="middle" x="184.5" y="-74.5" font-family="Helvetica,sans-Serif" font-size="10.00">Distribution</text>
</a>
</g>
</g>
<!-- Node3&#45;&gt;Node1 -->
<g id="edge2" class="edge"><title>Node3&#45;&gt;Node1</title>
<path fill="none" stroke="#9a32cd" stroke-dasharray="5,2" d="M163.841,-59.7615C151.089,-46.3439 135.413,-29.8487 125.952,-19.8932"/>
<polygon fill="#9a32cd" stroke="#9a32cd" points="161.516,-62.3956 170.942,-67.2333 166.59,-57.5734 161.516,-62.3956"/>
<text text-anchor="middle" x="188.5" y="-41" font-family="Helvetica,sans-Serif" font-size="10.00"> m_normalRand</text>
</g>
</g>
</svg>
