<?xml version="1.0" encoding="UTF-8" standalone="no"?>
<!DOCTYPE svg PUBLIC "-//W3C//DTD SVG 1.1//EN"
 "http://www.w3.org/Graphics/SVG/1.1/DTD/svg11.dtd">
<!-- Generated by graphviz version 2.38.0 (20140413.2041)
 -->
<!-- Title: GraphWindow Pages: 1 -->
<svg width="224pt" height="173pt"
 viewBox="0.00 0.00 224.00 173.00" xmlns="http://www.w3.org/2000/svg" xmlns:xlink="http://www.w3.org/1999/xlink">
<g id="graph0" class="graph" transform="scale(1 1) rotate(0) translate(4 169)">
<title>GraphWindow</title>
<polygon fill="white" stroke="none" points="-4,4 -4,-169 220,-169 220,4 -4,4"/>
<!-- Node1 -->
<g id="node1" class="node"><title>Node1</title>
<polygon fill="#bfbfbf" stroke="black" points="32,-0.5 32,-19.5 110,-19.5 110,-0.5 32,-0.5"/>
<text text-anchor="middle" x="71" y="-7.5" font-family="Helvetica,sans-Serif" font-size="10.00">GraphWindow</text>
</g>
<!-- Node2 -->
<g id="node2" class="node"><title>Node2</title>
<polygon fill="white" stroke="#bfbfbf" points="0,-67.5 0,-86.5 80,-86.5 80,-67.5 0,-67.5"/>
<text text-anchor="middle" x="40" y="-74.5" font-family="Helvetica,sans-Serif" font-size="10.00">QMainWindow</text>
</g>
<!-- Node2&#45;&gt;Node1 -->
<g id="edge1" class="edge"><title>Node2&#45;&gt;Node1</title>
<path fill="none" stroke="midnightblue" d="M48.5067,-58.1635C54.4851,-45.6281 62.2197,-29.4104 66.8854,-19.6273"/>
<polygon fill="midnightblue" stroke="midnightblue" points="45.3265,-56.7011 44.1808,-67.2338 51.6447,-59.7144 45.3265,-56.7011"/>
</g>
<!-- Node3 -->
<g id="node3" class="node"><title>Node3</title>
<g id="a_node3"><a xlink:href="class_graph_sheet.html" target="_top" xlink:title="Класс, реализующий &quot;страницу&quot; окна графиков. ">
<polygon fill="white" stroke="black" points="98,-67.5 98,-86.5 166,-86.5 166,-67.5 98,-67.5"/>
<text text-anchor="middle" x="132" y="-74.5" font-family="Helvetica,sans-Serif" font-size="10.00">GraphSheet</text>
</a>
</g>
</g>
<!-- Node3&#45;&gt;Node1 -->
<g id="edge2" class="edge"><title>Node3&#45;&gt;Node1</title>
<path fill="none" stroke="#9a32cd" stroke-dasharray="5,2" d="M116.642,-59.6348C104.712,-46.9228 88.641,-29.7978 79.0964,-19.6273"/>
<polygon fill="#9a32cd" stroke="#9a32cd" points="114.378,-62.337 123.773,-67.2338 119.482,-57.5468 114.378,-62.337"/>
<text text-anchor="middle" x="141.5" y="-41" font-family="Helvetica,sans-Serif" font-size="10.00"> m_currentSheet</text>
</g>
<!-- Node4 -->
<g id="node4" class="node"><title>Node4</title>
<g id="a_node4"><a xlink:href="struct_g_axis_range.html" target="_top" xlink:title="Структура для хранения границ осей координат. ">
<polygon fill="white" stroke="black" points="96,-145.5 96,-164.5 168,-164.5 168,-145.5 96,-145.5"/>
<text text-anchor="middle" x="132" y="-152.5" font-family="Helvetica,sans-Serif" font-size="10.00">GAxisRange</text>
</a>
</g>
</g>
<!-- Node4&#45;&gt;Node3 -->
<g id="edge3" class="edge"><title>Node4&#45;&gt;Node3</title>
<path fill="none" stroke="#9a32cd" stroke-dasharray="5,2" d="M132,-135.224C132,-119.697 132,-98.3582 132,-86.6165"/>
<polygon fill="#9a32cd" stroke="#9a32cd" points="128.5,-135.282 132,-145.282 135.5,-135.282 128.5,-135.282"/>
<text text-anchor="middle" x="174" y="-119" font-family="Helvetica,sans-Serif" font-size="10.00"> m_userAxisRange</text>
<text text-anchor="middle" x="174" y="-108" font-family="Helvetica,sans-Serif" font-size="10.00">m_axisRange</text>
</g>
</g>
</svg>
