<?xml version="1.0" encoding="UTF-8" standalone="no"?>
<!DOCTYPE svg PUBLIC "-//W3C//DTD SVG 1.1//EN"
 "http://www.w3.org/Graphics/SVG/1.1/DTD/svg11.dtd">
<!-- Generated by graphviz version 2.38.0 (20140413.2041)
 -->
<!-- Title: Core::Filter Pages: 1 -->
<svg width="462pt" height="355pt"
 viewBox="0.00 0.00 462.00 355.00" xmlns="http://www.w3.org/2000/svg" xmlns:xlink="http://www.w3.org/1999/xlink">
<g id="graph0" class="graph" transform="scale(1 1) rotate(0) translate(4 351)">
<title>Core::Filter</title>
<polygon fill="white" stroke="none" points="-4,4 -4,-351 458,-351 458,4 -4,4"/>
<!-- Node0 -->
<g id="node1" class="node"><title>Node0</title>
<polygon fill="#bfbfbf" stroke="black" points="0,-123.5 0,-142.5 69,-142.5 69,-123.5 0,-123.5"/>
<text text-anchor="middle" x="34.5" y="-130.5" font-family="Helvetica,sans-Serif" font-size="10.00">Core::Filter</text>
</g>
<!-- Node1 -->
<g id="node2" class="node"><title>Node1</title>
<g id="a_node2"><a xlink:href="class_core_1_1_continuous_discrete_filter.html" target="_top" xlink:title="Базовый класс для всех непрерывно&#45;дискретных фильтров оптимальной структуры. ">
<polygon fill="white" stroke="black" points="105,-229 105,-259 245,-259 245,-229 105,-229"/>
<text text-anchor="start" x="113" y="-247" font-family="Helvetica,sans-Serif" font-size="10.00">Core::ContinuousDiscrete</text>
<text text-anchor="middle" x="175" y="-236" font-family="Helvetica,sans-Serif" font-size="10.00">Filter</text>
</a>
</g>
</g>
<!-- Node0&#45;&gt;Node1 -->
<g id="edge1" class="edge"><title>Node0&#45;&gt;Node1</title>
<path fill="none" stroke="midnightblue" d="M55.6925,-149.183C82.3438,-170.543 128.923,-207.873 154.976,-228.753"/>
<polygon fill="midnightblue" stroke="midnightblue" points="57.783,-146.373 47.791,-142.851 53.4053,-151.835 57.783,-146.373"/>
</g>
<!-- Node6 -->
<g id="node7" class="node"><title>Node6</title>
<g id="a_node7"><a xlink:href="class_core_1_1_continuous_filter.html" target="_top" xlink:title="Базовый класс для всех непрерывныз фильтров оптимальной структуры. ">
<polygon fill="white" stroke="black" points="113,-123.5 113,-142.5 237,-142.5 237,-123.5 113,-123.5"/>
<text text-anchor="middle" x="175" y="-130.5" font-family="Helvetica,sans-Serif" font-size="10.00">Core::ContinuousFilter</text>
</a>
</g>
</g>
<!-- Node0&#45;&gt;Node6 -->
<g id="edge6" class="edge"><title>Node0&#45;&gt;Node6</title>
<path fill="none" stroke="midnightblue" d="M79.3364,-133C90.0026,-133 101.603,-133 112.909,-133"/>
<polygon fill="midnightblue" stroke="midnightblue" points="79.027,-129.5 69.027,-133 79.027,-136.5 79.027,-129.5"/>
</g>
<!-- Node9 -->
<g id="node10" class="node"><title>Node9</title>
<g id="a_node10"><a xlink:href="class_core_1_1_discrete_filter.html" target="_top" xlink:title="Базовый класс для всех дискретных фильтров оптимальной структуры. ">
<polygon fill="white" stroke="black" points="120,-66.5 120,-85.5 230,-85.5 230,-66.5 120,-66.5"/>
<text text-anchor="middle" x="175" y="-73.5" font-family="Helvetica,sans-Serif" font-size="10.00">Core::DiscreteFilter</text>
</a>
</g>
</g>
<!-- Node0&#45;&gt;Node9 -->
<g id="edge9" class="edge"><title>Node0&#45;&gt;Node9</title>
<path fill="none" stroke="midnightblue" d="M68.2523,-119.521C93.6234,-109.079 128.146,-94.8715 150.743,-85.5716"/>
<polygon fill="midnightblue" stroke="midnightblue" points="66.5972,-116.417 58.6818,-123.459 69.2613,-122.89 66.5972,-116.417"/>
</g>
<!-- Node2 -->
<g id="node3" class="node"><title>Node2</title>
<g id="a_node3"><a xlink:href="class_filters_1_1_continuous_discrete_1_1_a_o_f.html" target="_top" xlink:title="Класс, реализующий непрерывно&#45;дискретный абсолютно оптимальной фильтр. ">
<polygon fill="white" stroke="black" points="281,-327.5 281,-346.5 454,-346.5 454,-327.5 281,-327.5"/>
<text text-anchor="middle" x="367.5" y="-334.5" font-family="Helvetica,sans-Serif" font-size="10.00">Filters::ContinuousDiscrete::AOF</text>
</a>
</g>
</g>
<!-- Node1&#45;&gt;Node2 -->
<g id="edge2" class="edge"><title>Node1&#45;&gt;Node2</title>
<path fill="none" stroke="midnightblue" d="M200.682,-265.688C220.937,-282.379 251.062,-304.764 281,-318 289.762,-321.874 299.389,-324.992 308.925,-327.491"/>
<polygon fill="midnightblue" stroke="midnightblue" points="202.806,-262.902 192.897,-259.152 198.305,-268.263 202.806,-262.902"/>
</g>
<!-- Node3 -->
<g id="node4" class="node"><title>Node3</title>
<g id="a_node4"><a xlink:href="class_filters_1_1_continuous_discrete_1_1_d_f_o_s.html" target="_top" xlink:title="Класс, реализующий непрерывно&#45;дискретный фильтр оптимальной структуры с дискретным прогнозом...">
<polygon fill="white" stroke="black" points="294,-278 294,-308 441,-308 441,-278 294,-278"/>
<text text-anchor="start" x="302" y="-296" font-family="Helvetica,sans-Serif" font-size="10.00">Filters::ContinuousDiscrete</text>
<text text-anchor="middle" x="367.5" y="-285" font-family="Helvetica,sans-Serif" font-size="10.00">::DFOS</text>
</a>
</g>
</g>
<!-- Node1&#45;&gt;Node3 -->
<g id="edge3" class="edge"><title>Node1&#45;&gt;Node3</title>
<path fill="none" stroke="midnightblue" d="M244.229,-261.55C265.149,-266.931 287.964,-272.799 308.16,-277.994"/>
<polygon fill="midnightblue" stroke="midnightblue" points="245.008,-258.136 234.451,-259.035 243.264,-264.915 245.008,-258.136"/>
</g>
<!-- Node4 -->
<g id="node5" class="node"><title>Node4</title>
<g id="a_node5"><a xlink:href="class_filters_1_1_continuous_discrete_1_1_d_f_o_s_b_o.html" target="_top" xlink:title="Класс, реализующий непрерывно&#45;дискретный фильтр оптимальной структуры повышеного порядка. ">
<polygon fill="white" stroke="black" points="294,-229 294,-259 441,-259 441,-229 294,-229"/>
<text text-anchor="start" x="302" y="-247" font-family="Helvetica,sans-Serif" font-size="10.00">Filters::ContinuousDiscrete</text>
<text text-anchor="middle" x="367.5" y="-236" font-family="Helvetica,sans-Serif" font-size="10.00">::DFOSBO</text>
</a>
</g>
</g>
<!-- Node1&#45;&gt;Node4 -->
<g id="edge4" class="edge"><title>Node1&#45;&gt;Node4</title>
<path fill="none" stroke="midnightblue" d="M255.206,-244C268.007,-244 281.205,-244 293.841,-244"/>
<polygon fill="midnightblue" stroke="midnightblue" points="255.044,-240.5 245.044,-244 255.044,-247.5 255.044,-240.5"/>
</g>
<!-- Node5 -->
<g id="node6" class="node"><title>Node5</title>
<g id="a_node6"><a xlink:href="class_filters_1_1_continuous_discrete_1_1_f_o_s.html" target="_top" xlink:title="Класс, реализующий непрерывно&#45;дискретный фильтр оптимальной структуры с непрерывным прогнозом...">
<polygon fill="white" stroke="black" points="281.5,-190.5 281.5,-209.5 453.5,-209.5 453.5,-190.5 281.5,-190.5"/>
<text text-anchor="middle" x="367.5" y="-197.5" font-family="Helvetica,sans-Serif" font-size="10.00">Filters::ContinuousDiscrete::FOS</text>
</a>
</g>
</g>
<!-- Node1&#45;&gt;Node5 -->
<g id="edge5" class="edge"><title>Node1&#45;&gt;Node5</title>
<path fill="none" stroke="midnightblue" d="M250.982,-226.681C276.293,-220.835 303.606,-214.527 325.316,-209.512"/>
<polygon fill="midnightblue" stroke="midnightblue" points="249.982,-223.32 241.026,-228.981 251.558,-230.14 249.982,-223.32"/>
</g>
<!-- Node7 -->
<g id="node8" class="node"><title>Node7</title>
<g id="a_node8"><a xlink:href="class_filters_1_1_continuous_1_1_a_o_f.html" target="_top" xlink:title="Класс, реализующий непрерывный абсолютно оптимальный фильтр. ">
<polygon fill="white" stroke="black" points="301.5,-152.5 301.5,-171.5 433.5,-171.5 433.5,-152.5 301.5,-152.5"/>
<text text-anchor="middle" x="367.5" y="-159.5" font-family="Helvetica,sans-Serif" font-size="10.00">Filters::Continuous::AOF</text>
</a>
</g>
</g>
<!-- Node6&#45;&gt;Node7 -->
<g id="edge7" class="edge"><title>Node6&#45;&gt;Node7</title>
<path fill="none" stroke="midnightblue" d="M246.976,-143.805C265.636,-146.645 285.629,-149.689 303.82,-152.458"/>
<polygon fill="midnightblue" stroke="midnightblue" points="247.474,-140.34 237.061,-142.295 246.421,-147.261 247.474,-140.34"/>
</g>
<!-- Node8 -->
<g id="node9" class="node"><title>Node8</title>
<g id="a_node9"><a xlink:href="class_filters_1_1_continuous_1_1_f_o_s.html" target="_top" xlink:title="Класс, реализующий непрерывный фильтр оптимальной структуры. ">
<polygon fill="white" stroke="black" points="302,-114.5 302,-133.5 433,-133.5 433,-114.5 302,-114.5"/>
<text text-anchor="middle" x="367.5" y="-121.5" font-family="Helvetica,sans-Serif" font-size="10.00">Filters::Continuous::FOS</text>
</a>
</g>
</g>
<!-- Node6&#45;&gt;Node8 -->
<g id="edge8" class="edge"><title>Node6&#45;&gt;Node8</title>
<path fill="none" stroke="midnightblue" d="M247.168,-129.638C265.099,-128.791 284.25,-127.886 301.842,-127.055"/>
<polygon fill="midnightblue" stroke="midnightblue" points="246.885,-126.147 237.061,-130.115 247.216,-133.139 246.885,-126.147"/>
</g>
<!-- Node10 -->
<g id="node11" class="node"><title>Node10</title>
<g id="a_node11"><a xlink:href="class_filters_1_1_discrete_1_1_a_o_f.html" target="_top" xlink:title="Класс, реализующий дискретный абсолютно оптимальной фильтр. ">
<polygon fill="white" stroke="black" points="308.5,-76.5 308.5,-95.5 426.5,-95.5 426.5,-76.5 308.5,-76.5"/>
<text text-anchor="middle" x="367.5" y="-83.5" font-family="Helvetica,sans-Serif" font-size="10.00">Filters::Discrete::AOF</text>
</a>
</g>
</g>
<!-- Node9&#45;&gt;Node10 -->
<g id="edge10" class="edge"><title>Node9&#45;&gt;Node10</title>
<path fill="none" stroke="midnightblue" d="M240.325,-79.3767C262.325,-80.5315 286.794,-81.816 308.284,-82.9441"/>
<polygon fill="midnightblue" stroke="midnightblue" points="240.25,-75.868 230.08,-78.8389 239.883,-82.8583 240.25,-75.868"/>
</g>
<!-- Node11 -->
<g id="node12" class="node"><title>Node11</title>
<g id="a_node12"><a xlink:href="class_filters_1_1_discrete_1_1_f_o_s.html" target="_top" xlink:title="Класс, реализующий дискретный фильтр оптимальной структуры. ">
<polygon fill="white" stroke="black" points="309,-38.5 309,-57.5 426,-57.5 426,-38.5 309,-38.5"/>
<text text-anchor="middle" x="367.5" y="-45.5" font-family="Helvetica,sans-Serif" font-size="10.00">Filters::Discrete::FOS</text>
</a>
</g>
</g>
<!-- Node9&#45;&gt;Node11 -->
<g id="edge11" class="edge"><title>Node9&#45;&gt;Node11</title>
<path fill="none" stroke="midnightblue" d="M240.118,-66.5758C262.401,-63.3006 287.238,-59.6501 308.956,-56.4579"/>
<polygon fill="midnightblue" stroke="midnightblue" points="239.465,-63.1341 230.08,-68.0512 240.483,-70.0597 239.465,-63.1341"/>
</g>
<!-- Node12 -->
<g id="node13" class="node"><title>Node12</title>
<g id="a_node13"><a xlink:href="class_filters_1_1_discrete_1_1_m_f_o_s.html" target="_top" xlink:title="Filters::Discrete::MFOS">
<polygon fill="white" stroke="black" points="305,-0.5 305,-19.5 430,-19.5 430,-0.5 305,-0.5"/>
<text text-anchor="middle" x="367.5" y="-7.5" font-family="Helvetica,sans-Serif" font-size="10.00">Filters::Discrete::MFOS</text>
</a>
</g>
</g>
<!-- Node9&#45;&gt;Node12 -->
<g id="edge12" class="edge"><title>Node9&#45;&gt;Node12</title>
<path fill="none" stroke="midnightblue" d="M203.711,-61.7392C224.533,-51.4847 253.994,-37.9427 281,-29 291.971,-25.3672 303.963,-22.2169 315.403,-19.5827"/>
<polygon fill="midnightblue" stroke="midnightblue" points="201.895,-58.7338 194.512,-66.3325 205.022,-64.9965 201.895,-58.7338"/>
</g>
</g>
</svg>
