<?xml version="1.0" encoding="UTF-8" standalone="no"?>
<!DOCTYPE svg PUBLIC "-//W3C//DTD SVG 1.1//EN"
 "http://www.w3.org/Graphics/SVG/1.1/DTD/svg11.dtd">
<!-- Generated by graphviz version 2.38.0 (20140413.2041)
 -->
<!-- Title: GraphSheet Pages: 1 -->
<svg width="137pt" height="106pt"
 viewBox="0.00 0.00 137.00 106.00" xmlns="http://www.w3.org/2000/svg" xmlns:xlink="http://www.w3.org/1999/xlink">
<g id="graph0" class="graph" transform="scale(1 1) rotate(0) translate(4 102)">
<title>GraphSheet</title>
<polygon fill="white" stroke="none" points="-4,4 -4,-102 133,-102 133,4 -4,4"/>
<!-- Node1 -->
<g id="node1" class="node"><title>Node1</title>
<polygon fill="#bfbfbf" stroke="black" points="1,-0.5 1,-19.5 75,-19.5 75,-0.5 1,-0.5"/>
<text text-anchor="middle" x="38" y="-7.5" font-family="Helvetica,sans-Serif" font-size="10.00">GraphSheet</text>
</g>
<!-- Node2 -->
<g id="node2" class="node"><title>Node2</title>
<g id="a_node2"><a xlink:href="struct_g_axis_range.html" target="_top" xlink:title="Структура для хранения границ осей координат. ">
<polygon fill="white" stroke="black" points="0,-78.5 0,-97.5 76,-97.5 76,-78.5 0,-78.5"/>
<text text-anchor="middle" x="38" y="-85.5" font-family="Helvetica,sans-Serif" font-size="10.00">GAxisRange</text>
</a>
</g>
</g>
<!-- Node2&#45;&gt;Node1 -->
<g id="edge1" class="edge"><title>Node2&#45;&gt;Node1</title>
<path fill="none" stroke="#9a32cd" stroke-dasharray="5,2" d="M38,-68.2239C38,-52.6974 38,-31.3582 38,-19.6165"/>
<polygon fill="#9a32cd" stroke="#9a32cd" points="34.5001,-68.2818 38,-78.2818 41.5001,-68.2819 34.5001,-68.2818"/>
<text text-anchor="middle" x="83.5" y="-52" font-family="Helvetica,sans-Serif" font-size="10.00"> m_userAxisRange</text>
<text text-anchor="middle" x="83.5" y="-41" font-family="Helvetica,sans-Serif" font-size="10.00">m_axisRange</text>
</g>
</g>
</svg>
