<?xml version="1.0" encoding="UTF-8" standalone="no"?>
<!DOCTYPE svg PUBLIC "-//W3C//DTD SVG 1.1//EN"
 "http://www.w3.org/Graphics/SVG/1.1/DTD/svg11.dtd">
<!-- Generated by graphviz version 2.38.0 (20140413.2041)
 -->
<!-- Title: Core::Task Pages: 1 -->
<svg width="278pt" height="106pt"
 viewBox="0.00 0.00 277.50 106.00" xmlns="http://www.w3.org/2000/svg" xmlns:xlink="http://www.w3.org/1999/xlink">
<g id="graph0" class="graph" transform="scale(1 1) rotate(0) translate(4 102)">
<title>Core::Task</title>
<polygon fill="white" stroke="none" points="-4,4 -4,-102 273.5,-102 273.5,4 -4,4"/>
<!-- Node15 -->
<g id="node1" class="node"><title>Node15</title>
<polygon fill="#bfbfbf" stroke="black" points="93.5,-0.5 93.5,-19.5 160.5,-19.5 160.5,-0.5 93.5,-0.5"/>
<text text-anchor="middle" x="127" y="-7.5" font-family="Helvetica,sans-Serif" font-size="10.00">Core::Task</text>
</g>
<!-- Node16 -->
<g id="node2" class="node"><title>Node16</title>
<g id="a_node2"><a xlink:href="class_core_1_1_function_time.html" target="_top" xlink:title="Базовый класс для классов, представляющих собой функции времени. ">
<polygon fill="white" stroke="black" points="0,-73 0,-92 110,-92 110,-73 0,-73"/>
<text text-anchor="middle" x="55" y="-80" font-family="Helvetica,sans-Serif" font-size="10.00">Core::FunctionTime</text>
</a>
</g>
</g>
<!-- Node16&#45;&gt;Node15 -->
<g id="edge1" class="edge"><title>Node16&#45;&gt;Node15</title>
<path fill="none" stroke="midnightblue" d="M71.1442,-65.6921C85.6456,-51.4928 106.402,-31.1687 118.099,-19.7154"/>
<polygon fill="midnightblue" stroke="midnightblue" points="68.525,-63.3582 63.8286,-72.8553 73.4224,-68.3598 68.525,-63.3582"/>
</g>
<!-- Node17 -->
<g id="node3" class="node"><title>Node17</title>
<g id="a_node3"><a xlink:href="class_math_1_1_multivariate_normal_distribution.html" target="_top" xlink:title="Класс&#45;генератор случайных нормальных(гауссовских) векторов. ">
<polygon fill="white" stroke="black" points="128.5,-67.5 128.5,-97.5 269.5,-97.5 269.5,-67.5 128.5,-67.5"/>
<text text-anchor="start" x="136.5" y="-85.5" font-family="Helvetica,sans-Serif" font-size="10.00">Math::MultivariateNormal</text>
<text text-anchor="middle" x="199" y="-74.5" font-family="Helvetica,sans-Serif" font-size="10.00">Distribution</text>
</a>
</g>
</g>
<!-- Node17&#45;&gt;Node15 -->
<g id="edge2" class="edge"><title>Node17&#45;&gt;Node15</title>
<path fill="none" stroke="#9a32cd" stroke-dasharray="5,2" d="M177.182,-60.1369C163.411,-46.6528 146.345,-29.9417 136.082,-19.8932"/>
<polygon fill="#9a32cd" stroke="#9a32cd" points="174.836,-62.7378 184.43,-67.2333 179.733,-57.7362 174.836,-62.7378"/>
<text text-anchor="middle" x="205" y="-41" font-family="Helvetica,sans-Serif" font-size="10.00"> m_normalRand</text>
</g>
</g>
</svg>
