<?xml version="1.0" encoding="UTF-8" standalone="no"?>
<!DOCTYPE svg PUBLIC "-//W3C//DTD SVG 1.1//EN"
 "http://www.w3.org/Graphics/SVG/1.1/DTD/svg11.dtd">
<!-- Generated by graphviz version 2.38.0 (20140413.2041)
 -->
<!-- Title: Tasks::ContinuousDiscrete::VanDerPolLinear Pages: 1 -->
<svg width="256pt" height="231pt"
 viewBox="0.00 0.00 255.50 231.00" xmlns="http://www.w3.org/2000/svg" xmlns:xlink="http://www.w3.org/1999/xlink">
<g id="graph0" class="graph" transform="scale(1 1) rotate(0) translate(4 227)">
<title>Tasks::ContinuousDiscrete::VanDerPolLinear</title>
<polygon fill="white" stroke="none" points="-4,4 -4,-227 251.5,-227 251.5,4 -4,4"/>
<!-- Node1 -->
<g id="node1" class="node"><title>Node1</title>
<polygon fill="#bfbfbf" stroke="black" points="49.5,-0.5 49.5,-30.5 185.5,-30.5 185.5,-0.5 49.5,-0.5"/>
<text text-anchor="start" x="57.5" y="-18.5" font-family="Helvetica,sans-Serif" font-size="10.00">Tasks::ContinuousDiscrete</text>
<text text-anchor="middle" x="117.5" y="-7.5" font-family="Helvetica,sans-Serif" font-size="10.00">::VanDerPolLinear</text>
</g>
<!-- Node2 -->
<g id="node2" class="node"><title>Node2</title>
<g id="a_node2"><a xlink:href="class_core_1_1_continuous_discrete_task.html" target="_top" xlink:title="Базовый тип задач для непрерывно&#45;дискретных фильтров оптимальной структуры. ">
<polygon fill="white" stroke="black" points="41.5,-68.5 41.5,-87.5 193.5,-87.5 193.5,-68.5 41.5,-68.5"/>
<text text-anchor="middle" x="117.5" y="-75.5" font-family="Helvetica,sans-Serif" font-size="10.00">Core::ContinuousDiscreteTask</text>
</a>
</g>
</g>
<!-- Node2&#45;&gt;Node1 -->
<g id="edge1" class="edge"><title>Node2&#45;&gt;Node1</title>
<path fill="none" stroke="midnightblue" d="M117.5,-58.2154C117.5,-49.3565 117.5,-38.9577 117.5,-30.7587"/>
<polygon fill="midnightblue" stroke="midnightblue" points="114,-58.3318 117.5,-68.3318 121,-58.3319 114,-58.3318"/>
</g>
<!-- Node3 -->
<g id="node3" class="node"><title>Node3</title>
<g id="a_node3"><a xlink:href="class_core_1_1_task.html" target="_top" xlink:title="Базовый класс для всех задач ">
<polygon fill="white" stroke="black" points="85,-125.5 85,-144.5 150,-144.5 150,-125.5 85,-125.5"/>
<text text-anchor="middle" x="117.5" y="-132.5" font-family="Helvetica,sans-Serif" font-size="10.00">Core::Task</text>
</a>
</g>
</g>
<!-- Node3&#45;&gt;Node2 -->
<g id="edge2" class="edge"><title>Node3&#45;&gt;Node2</title>
<path fill="none" stroke="midnightblue" d="M117.5,-115.117C117.5,-105.817 117.5,-95.0557 117.5,-87.7149"/>
<polygon fill="midnightblue" stroke="midnightblue" points="114,-115.406 117.5,-125.406 121,-115.406 114,-115.406"/>
</g>
<!-- Node4 -->
<g id="node4" class="node"><title>Node4</title>
<g id="a_node4"><a xlink:href="class_core_1_1_function_time.html" target="_top" xlink:title="Базовый класс для классов, представляющих собой функции времени. ">
<polygon fill="white" stroke="black" points="0,-198 0,-217 103,-217 103,-198 0,-198"/>
<text text-anchor="middle" x="51.5" y="-205" font-family="Helvetica,sans-Serif" font-size="10.00">Core::FunctionTime</text>
</a>
</g>
</g>
<!-- Node4&#45;&gt;Node3 -->
<g id="edge3" class="edge"><title>Node4&#45;&gt;Node3</title>
<path fill="none" stroke="midnightblue" d="M66.6696,-190.296C79.9435,-176.117 98.718,-156.063 109.341,-144.715"/>
<polygon fill="midnightblue" stroke="midnightblue" points="63.8721,-188.163 59.5929,-197.855 68.9823,-192.947 63.8721,-188.163"/>
</g>
<!-- Node5 -->
<g id="node5" class="node"><title>Node5</title>
<g id="a_node5"><a xlink:href="class_math_1_1_multivariate_normal_distribution.html" target="_top" xlink:title="Класс&#45;генератор случайных нормальных(гауссовских) векторов. ">
<polygon fill="white" stroke="black" points="121.5,-192.5 121.5,-222.5 247.5,-222.5 247.5,-192.5 121.5,-192.5"/>
<text text-anchor="start" x="129.5" y="-210.5" font-family="Helvetica,sans-Serif" font-size="10.00">Math::MultivariateNormal</text>
<text text-anchor="middle" x="184.5" y="-199.5" font-family="Helvetica,sans-Serif" font-size="10.00">Distribution</text>
</a>
</g>
</g>
<!-- Node5&#45;&gt;Node3 -->
<g id="edge4" class="edge"><title>Node5&#45;&gt;Node3</title>
<path fill="none" stroke="#9a32cd" stroke-dasharray="5,2" d="M163.841,-184.762C151.089,-171.344 135.413,-154.849 125.952,-144.893"/>
<polygon fill="#9a32cd" stroke="#9a32cd" points="161.516,-187.396 170.942,-192.233 166.59,-182.573 161.516,-187.396"/>
<text text-anchor="middle" x="188.5" y="-166" font-family="Helvetica,sans-Serif" font-size="10.00"> m_normalRand</text>
</g>
</g>
</svg>
