<?xml version="1.0" encoding="UTF-8" standalone="no"?>
<!DOCTYPE svg PUBLIC "-//W3C//DTD SVG 1.1//EN"
 "http://www.w3.org/Graphics/SVG/1.1/DTD/svg11.dtd">
<!-- Generated by graphviz version 2.38.0 (20140413.2041)
 -->
<!-- Title: Core::ContinuousDiscreteTask Pages: 1 -->
<svg width="736pt" height="88pt"
 viewBox="0.00 0.00 736.00 88.00" xmlns="http://www.w3.org/2000/svg" xmlns:xlink="http://www.w3.org/1999/xlink">
<g id="graph0" class="graph" transform="scale(1 1) rotate(0) translate(4 84)">
<title>Core::ContinuousDiscreteTask</title>
<polygon fill="white" stroke="none" points="-4,4 -4,-84 732,-84 732,4 -4,4"/>
<!-- Node0 -->
<g id="node1" class="node"><title>Node0</title>
<polygon fill="#bfbfbf" stroke="black" points="239,-30 239,-49 388,-49 388,-30 239,-30"/>
<text text-anchor="middle" x="313.5" y="-37" font-family="Helvetica,sans-Serif" font-size="10.00">Core::ContinuousDiscreteTask</text>
</g>
<!-- Node3 -->
<g id="node4" class="node"><title>Node3</title>
<g id="a_node4"><a xlink:href="class_tasks_1_1_continuous_discrete_1_1_landing_linear.html" target="_top" xlink:title="Задача спуска ЛА на планету (непрерывно&#45;дискретная, линеаризованная) для фильтров оптимальной структу...">
<polygon fill="white" stroke="black" points="424,-49.5 424,-79.5 558,-79.5 558,-49.5 424,-49.5"/>
<text text-anchor="start" x="432" y="-67.5" font-family="Helvetica,sans-Serif" font-size="10.00">Tasks::ContinuousDiscrete</text>
<text text-anchor="middle" x="491" y="-56.5" font-family="Helvetica,sans-Serif" font-size="10.00">::LandingLinear</text>
</a>
</g>
</g>
<!-- Node0&#45;&gt;Node3 -->
<g id="edge3" class="edge"><title>Node0&#45;&gt;Node3</title>
<path fill="none" stroke="midnightblue" d="M391.261,-50.4346C402.145,-51.9851 413.258,-53.5682 423.917,-55.0864"/>
<polygon fill="midnightblue" stroke="midnightblue" points="391.743,-46.9681 381.35,-49.0227 390.756,-53.8981 391.743,-46.9681"/>
</g>
<!-- Node5 -->
<g id="node6" class="node"><title>Node5</title>
<g id="a_node6"><a xlink:href="class_tasks_1_1_continuous_discrete_1_1_van_der_pol_linear.html" target="_top" xlink:title="Осциллятор Ван&#45;дер&#45;Поля (непрерывно&#45;дискретный, линеаризованный) для фильтров оптимальной структуры...">
<polygon fill="white" stroke="black" points="424,-0.5 424,-30.5 558,-30.5 558,-0.5 424,-0.5"/>
<text text-anchor="start" x="432" y="-18.5" font-family="Helvetica,sans-Serif" font-size="10.00">Tasks::ContinuousDiscrete</text>
<text text-anchor="middle" x="491" y="-7.5" font-family="Helvetica,sans-Serif" font-size="10.00">::VanDerPolLinear</text>
</a>
</g>
</g>
<!-- Node0&#45;&gt;Node5 -->
<g id="edge5" class="edge"><title>Node0&#45;&gt;Node5</title>
<path fill="none" stroke="midnightblue" d="M394.034,-28.6236C404.021,-27.2578 414.151,-25.8725 423.901,-24.5392"/>
<polygon fill="midnightblue" stroke="midnightblue" points="393.548,-25.1574 384.114,-29.9801 394.496,-32.0928 393.548,-25.1574"/>
</g>
<!-- Node1 -->
<g id="node2" class="node"><title>Node1</title>
<g id="a_node2"><a xlink:href="class_core_1_1_task.html" target="_top" xlink:title="Базовый класс для всех задач ">
<polygon fill="white" stroke="black" points="138,-30 138,-49 203,-49 203,-30 138,-30"/>
<text text-anchor="middle" x="170.5" y="-37" font-family="Helvetica,sans-Serif" font-size="10.00">Core::Task</text>
</a>
</g>
</g>
<!-- Node1&#45;&gt;Node0 -->
<g id="edge1" class="edge"><title>Node1&#45;&gt;Node0</title>
<path fill="none" stroke="midnightblue" d="M213.379,-39.5C221.466,-39.5 230.157,-39.5 238.912,-39.5"/>
<polygon fill="midnightblue" stroke="midnightblue" points="213.143,-36.0001 203.143,-39.5 213.143,-43.0001 213.143,-36.0001"/>
</g>
<!-- Node2 -->
<g id="node3" class="node"><title>Node2</title>
<g id="a_node3"><a xlink:href="class_core_1_1_function_time.html" target="_top" xlink:title="Базовый класс для классов, представляющих собой функции времени. ">
<polygon fill="white" stroke="black" points="0,-30 0,-49 102,-49 102,-30 0,-30"/>
<text text-anchor="middle" x="51" y="-37" font-family="Helvetica,sans-Serif" font-size="10.00">Core::FunctionTime</text>
</a>
</g>
</g>
<!-- Node2&#45;&gt;Node1 -->
<g id="edge2" class="edge"><title>Node2&#45;&gt;Node1</title>
<path fill="none" stroke="midnightblue" d="M112.452,-39.5C121.23,-39.5 129.957,-39.5 137.849,-39.5"/>
<polygon fill="midnightblue" stroke="midnightblue" points="112.171,-36.0001 102.171,-39.5 112.171,-43.0001 112.171,-36.0001"/>
</g>
<!-- Node4 -->
<g id="node5" class="node"><title>Node4</title>
<g id="a_node5"><a xlink:href="class_tasks_1_1_continuous_discrete_1_1_landing_gauss.html" target="_top" xlink:title="Tasks::ContinuousDiscrete\l::LandingGauss">
<polygon fill="white" stroke="black" points="594,-49.5 594,-79.5 728,-79.5 728,-49.5 594,-49.5"/>
<text text-anchor="start" x="602" y="-67.5" font-family="Helvetica,sans-Serif" font-size="10.00">Tasks::ContinuousDiscrete</text>
<text text-anchor="middle" x="661" y="-56.5" font-family="Helvetica,sans-Serif" font-size="10.00">::LandingGauss</text>
</a>
</g>
</g>
<!-- Node3&#45;&gt;Node4 -->
<g id="edge4" class="edge"><title>Node3&#45;&gt;Node4</title>
<path fill="none" stroke="midnightblue" d="M568.595,-64.5C577.013,-64.5 585.532,-64.5 593.809,-64.5"/>
<polygon fill="midnightblue" stroke="midnightblue" points="568.398,-61.0001 558.398,-64.5 568.398,-68.0001 568.398,-61.0001"/>
</g>
<!-- Node6 -->
<g id="node7" class="node"><title>Node6</title>
<g id="a_node7"><a xlink:href="class_tasks_1_1_continuous_discrete_1_1_van_der_pol_gauss.html" target="_top" xlink:title="Осциллятор Ван&#45;дер&#45;Поля (непрерывно&#45;дискретный, гауссовский) для фильтров оптимальной структуры...">
<polygon fill="white" stroke="black" points="594,-0.5 594,-30.5 728,-30.5 728,-0.5 594,-0.5"/>
<text text-anchor="start" x="602" y="-18.5" font-family="Helvetica,sans-Serif" font-size="10.00">Tasks::ContinuousDiscrete</text>
<text text-anchor="middle" x="661" y="-7.5" font-family="Helvetica,sans-Serif" font-size="10.00">::VanDerPolGauss</text>
</a>
</g>
</g>
<!-- Node5&#45;&gt;Node6 -->
<g id="edge6" class="edge"><title>Node5&#45;&gt;Node6</title>
<path fill="none" stroke="midnightblue" d="M568.595,-15.5C577.013,-15.5 585.532,-15.5 593.809,-15.5"/>
<polygon fill="midnightblue" stroke="midnightblue" points="568.398,-12.0001 558.398,-15.5 568.398,-19.0001 568.398,-12.0001"/>
</g>
</g>
</svg>
