<?xml version="1.0" encoding="UTF-8" standalone="no"?>
<!DOCTYPE svg PUBLIC "-//W3C//DTD SVG 1.1//EN"
 "http://www.w3.org/Graphics/SVG/1.1/DTD/svg11.dtd">
<!-- Generated by graphviz version 2.38.0 (20140413.2041)
 -->
<!-- Title: Core::DiscreteFilter Pages: 1 -->
<svg width="405pt" height="140pt"
 viewBox="0.00 0.00 404.50 140.00" xmlns="http://www.w3.org/2000/svg" xmlns:xlink="http://www.w3.org/1999/xlink">
<g id="graph0" class="graph" transform="scale(1 1) rotate(0) translate(4 136)">
<title>Core::DiscreteFilter</title>
<polygon fill="white" stroke="none" points="-4,4 -4,-136 400.5,-136 400.5,4 -4,4"/>
<!-- Node0 -->
<g id="node1" class="node"><title>Node0</title>
<polygon fill="#bfbfbf" stroke="black" points="140,-56.5 140,-75.5 250,-75.5 250,-56.5 140,-56.5"/>
<text text-anchor="middle" x="195" y="-63.5" font-family="Helvetica,sans-Serif" font-size="10.00">Core::DiscreteFilter</text>
</g>
<!-- Node2 -->
<g id="node3" class="node"><title>Node2</title>
<g id="a_node3"><a xlink:href="class_filters_1_1_discrete_1_1_a_o_f.html" target="_top" xlink:title="Класс, реализующий дискретный абсолютно оптимальной фильтр. ">
<polygon fill="white" stroke="black" points="0,-0.5 0,-19.5 118,-19.5 118,-0.5 0,-0.5"/>
<text text-anchor="middle" x="59" y="-7.5" font-family="Helvetica,sans-Serif" font-size="10.00">Filters::Discrete::AOF</text>
</a>
</g>
</g>
<!-- Node0&#45;&gt;Node2 -->
<g id="edge2" class="edge"><title>Node0&#45;&gt;Node2</title>
<path fill="none" stroke="midnightblue" d="M163.865,-52.6377C138.343,-42.504 102.891,-28.4274 80.4488,-19.5164"/>
<polygon fill="midnightblue" stroke="midnightblue" points="162.865,-56.0061 173.45,-56.4435 165.448,-49.5002 162.865,-56.0061"/>
</g>
<!-- Node3 -->
<g id="node4" class="node"><title>Node3</title>
<g id="a_node4"><a xlink:href="class_filters_1_1_discrete_1_1_f_o_s.html" target="_top" xlink:title="Класс, реализующий дискретный фильтр оптимальной структуры. ">
<polygon fill="white" stroke="black" points="136.5,-0.5 136.5,-19.5 253.5,-19.5 253.5,-0.5 136.5,-0.5"/>
<text text-anchor="middle" x="195" y="-7.5" font-family="Helvetica,sans-Serif" font-size="10.00">Filters::Discrete::FOS</text>
</a>
</g>
</g>
<!-- Node0&#45;&gt;Node3 -->
<g id="edge3" class="edge"><title>Node0&#45;&gt;Node3</title>
<path fill="none" stroke="midnightblue" d="M195,-45.8045C195,-36.9102 195,-26.7798 195,-19.7511"/>
<polygon fill="midnightblue" stroke="midnightblue" points="191.5,-46.083 195,-56.083 198.5,-46.083 191.5,-46.083"/>
</g>
<!-- Node4 -->
<g id="node5" class="node"><title>Node4</title>
<g id="a_node5"><a xlink:href="class_filters_1_1_discrete_1_1_m_f_o_s.html" target="_top" xlink:title="Filters::Discrete::MFOS">
<polygon fill="white" stroke="black" points="271.5,-0.5 271.5,-19.5 396.5,-19.5 396.5,-0.5 271.5,-0.5"/>
<text text-anchor="middle" x="334" y="-7.5" font-family="Helvetica,sans-Serif" font-size="10.00">Filters::Discrete::MFOS</text>
</a>
</g>
</g>
<!-- Node0&#45;&gt;Node4 -->
<g id="edge4" class="edge"><title>Node0&#45;&gt;Node4</title>
<path fill="none" stroke="midnightblue" d="M226.476,-52.772C252.585,-42.6287 289.039,-28.4669 312.078,-19.5164"/>
<polygon fill="midnightblue" stroke="midnightblue" points="225.079,-49.5598 217.025,-56.4435 227.614,-56.0847 225.079,-49.5598"/>
</g>
<!-- Node1 -->
<g id="node2" class="node"><title>Node1</title>
<g id="a_node2"><a xlink:href="class_core_1_1_filter.html" target="_top" xlink:title="Базовый класс для всех фильтров. ">
<polygon fill="white" stroke="black" points="160.5,-112.5 160.5,-131.5 229.5,-131.5 229.5,-112.5 160.5,-112.5"/>
<text text-anchor="middle" x="195" y="-119.5" font-family="Helvetica,sans-Serif" font-size="10.00">Core::Filter</text>
</a>
</g>
</g>
<!-- Node1&#45;&gt;Node0 -->
<g id="edge1" class="edge"><title>Node1&#45;&gt;Node0</title>
<path fill="none" stroke="midnightblue" d="M195,-101.805C195,-92.9102 195,-82.7798 195,-75.7511"/>
<polygon fill="midnightblue" stroke="midnightblue" points="191.5,-102.083 195,-112.083 198.5,-102.083 191.5,-102.083"/>
</g>
</g>
</svg>
