<?xml version="1.0" encoding="UTF-8" standalone="no"?>
<!DOCTYPE svg PUBLIC "-//W3C//DTD SVG 1.1//EN"
 "http://www.w3.org/Graphics/SVG/1.1/DTD/svg11.dtd">
<!-- Generated by graphviz version 2.38.0 (20140413.2041)
 -->
<!-- Title: TaskWidget Pages: 1 -->
<svg width="243pt" height="274pt"
 viewBox="0.00 0.00 243.00 274.00" xmlns="http://www.w3.org/2000/svg" xmlns:xlink="http://www.w3.org/1999/xlink">
<g id="graph0" class="graph" transform="scale(1 1) rotate(0) translate(4 270)">
<title>TaskWidget</title>
<polygon fill="white" stroke="none" points="-4,4 -4,-270 239,-270 239,4 -4,4"/>
<!-- Node2 -->
<g id="node1" class="node"><title>Node2</title>
<polygon fill="#bfbfbf" stroke="black" points="36.5,-0.5 36.5,-19.5 109.5,-19.5 109.5,-0.5 36.5,-0.5"/>
<text text-anchor="middle" x="73" y="-7.5" font-family="Helvetica,sans-Serif" font-size="10.00">TaskWidget</text>
</g>
<!-- Node3 -->
<g id="node2" class="node"><title>Node3</title>
<polygon fill="white" stroke="#bfbfbf" points="0,-67.5 0,-86.5 72,-86.5 72,-67.5 0,-67.5"/>
<text text-anchor="middle" x="36" y="-74.5" font-family="Helvetica,sans-Serif" font-size="10.00">QGroupBox</text>
</g>
<!-- Node3&#45;&gt;Node2 -->
<g id="edge1" class="edge"><title>Node3&#45;&gt;Node2</title>
<path fill="none" stroke="midnightblue" d="M45.9418,-58.5347C53.1055,-45.9499 62.4651,-29.5072 68.0891,-19.6273"/>
<polygon fill="midnightblue" stroke="midnightblue" points="42.8953,-56.8117 40.99,-67.2338 48.9788,-60.2746 42.8953,-56.8117"/>
</g>
<!-- Node4 -->
<g id="node3" class="node"><title>Node4</title>
<g id="a_node3"><a xlink:href="class_task_parameters_widget.html" target="_top" xlink:title="Класс виджета, предаставляющего возможность работы с параметрами задач. ">
<polygon fill="white" stroke="black" points="90,-67.5 90,-86.5 218,-86.5 218,-67.5 90,-67.5"/>
<text text-anchor="middle" x="154" y="-74.5" font-family="Helvetica,sans-Serif" font-size="10.00">TaskParametersWidget</text>
</a>
</g>
</g>
<!-- Node4&#45;&gt;Node2 -->
<g id="edge2" class="edge"><title>Node4&#45;&gt;Node2</title>
<path fill="none" stroke="#9a32cd" stroke-dasharray="5,2" d="M134.951,-60.7134C118.992,-47.907 96.7871,-30.0884 83.7509,-19.6273"/>
<polygon fill="#9a32cd" stroke="#9a32cd" points="133.086,-63.7048 143.076,-67.2338 137.467,-58.2453 133.086,-63.7048"/>
<text text-anchor="middle" x="172.5" y="-41" font-family="Helvetica,sans-Serif" font-size="10.00"> m_parametersWidget</text>
</g>
<!-- Node5 -->
<g id="node4" class="node"><title>Node5</title>
<polygon fill="white" stroke="#bfbfbf" points="112.5,-246.5 112.5,-265.5 171.5,-265.5 171.5,-246.5 112.5,-246.5"/>
<text text-anchor="middle" x="142" y="-253.5" font-family="Helvetica,sans-Serif" font-size="10.00">QWidget</text>
</g>
<!-- Node5&#45;&gt;Node4 -->
<g id="edge3" class="edge"><title>Node5&#45;&gt;Node4</title>
<path fill="none" stroke="midnightblue" d="M139.983,-236.085C139.194,-227.785 138.387,-217.92 138,-209 135.983,-162.532 147.226,-107.387 151.967,-86.5447"/>
<polygon fill="midnightblue" stroke="midnightblue" points="136.517,-236.599 141.006,-246.196 143.482,-235.895 136.517,-236.599"/>
</g>
<!-- Node6 -->
<g id="node5" class="node"><title>Node6</title>
<g id="a_node5"><a xlink:href="class_matrix_widget.html" target="_top" xlink:title="Класс для отображения / изменения матриц (или векторов). ">
<polygon fill="white" stroke="black" points="147,-189.5 147,-208.5 229,-208.5 229,-189.5 147,-189.5"/>
<text text-anchor="middle" x="188" y="-196.5" font-family="Helvetica,sans-Serif" font-size="10.00">MatrixWidget</text>
</a>
</g>
</g>
<!-- Node5&#45;&gt;Node6 -->
<g id="edge5" class="edge"><title>Node5&#45;&gt;Node6</title>
<path fill="none" stroke="midnightblue" d="M155.773,-238.532C163.966,-228.736 174.032,-216.701 180.711,-208.715"/>
<polygon fill="midnightblue" stroke="midnightblue" points="152.918,-236.49 149.188,-246.406 158.288,-240.981 152.918,-236.49"/>
</g>
<!-- Node6&#45;&gt;Node4 -->
<g id="edge4" class="edge"><title>Node6&#45;&gt;Node4</title>
<path fill="none" stroke="#9a32cd" stroke-dasharray="5,2" d="M182.758,-179.5C175.291,-153.145 161.891,-105.85 156.423,-86.5519"/>
<polygon fill="#9a32cd" stroke="#9a32cd" points="179.461,-180.703 185.555,-189.37 186.196,-178.794 179.461,-180.703"/>
<text text-anchor="middle" x="207" y="-163" font-family="Helvetica,sans-Serif" font-size="10.00"> m_meanW</text>
<text text-anchor="middle" x="207" y="-152" font-family="Helvetica,sans-Serif" font-size="10.00">m_meanX</text>
<text text-anchor="middle" x="207" y="-141" font-family="Helvetica,sans-Serif" font-size="10.00">m_varV</text>
<text text-anchor="middle" x="207" y="-130" font-family="Helvetica,sans-Serif" font-size="10.00">m_varW</text>
<text text-anchor="middle" x="207" y="-119" font-family="Helvetica,sans-Serif" font-size="10.00">m_varX</text>
<text text-anchor="middle" x="207" y="-108" font-family="Helvetica,sans-Serif" font-size="10.00">m_meanV</text>
</g>
</g>
</svg>
