<?xml version="1.0" encoding="UTF-8" standalone="no"?>
<!DOCTYPE svg PUBLIC "-//W3C//DTD SVG 1.1//EN"
 "http://www.w3.org/Graphics/SVG/1.1/DTD/svg11.dtd">
<!-- Generated by graphviz version 2.38.0 (20140413.2041)
 -->
<!-- Title: Core::Task Pages: 1 -->
<svg width="736pt" height="235pt"
 viewBox="0.00 0.00 736.00 235.00" xmlns="http://www.w3.org/2000/svg" xmlns:xlink="http://www.w3.org/1999/xlink">
<g id="graph0" class="graph" transform="scale(1 1) rotate(0) translate(4 231)">
<title>Core::Task</title>
<polygon fill="white" stroke="none" points="-4,4 -4,-231 732,-231 732,4 -4,4"/>
<!-- Node0 -->
<g id="node1" class="node"><title>Node0</title>
<polygon fill="#bfbfbf" stroke="black" points="138,-79 138,-98 203,-98 203,-79 138,-79"/>
<text text-anchor="middle" x="170.5" y="-86" font-family="Helvetica,sans-Serif" font-size="10.00">Core::Task</text>
</g>
<!-- Node2 -->
<g id="node3" class="node"><title>Node2</title>
<g id="a_node3"><a xlink:href="class_core_1_1_continuous_discrete_task.html" target="_top" xlink:title="Базовый тип задач для непрерывно&#45;дискретных фильтров оптимальной структуры. ">
<polygon fill="white" stroke="black" points="239,-153 239,-172 388,-172 388,-153 239,-153"/>
<text text-anchor="middle" x="313.5" y="-160" font-family="Helvetica,sans-Serif" font-size="10.00">Core::ContinuousDiscreteTask</text>
</a>
</g>
</g>
<!-- Node0&#45;&gt;Node2 -->
<g id="edge2" class="edge"><title>Node0&#45;&gt;Node2</title>
<path fill="none" stroke="midnightblue" d="M198.522,-102.682C226.541,-117.387 269.592,-139.981 293.977,-152.779"/>
<polygon fill="midnightblue" stroke="midnightblue" points="200.126,-99.5708 189.645,-98.0227 196.873,-105.769 200.126,-99.5708"/>
</g>
<!-- Node7 -->
<g id="node8" class="node"><title>Node7</title>
<g id="a_node8"><a xlink:href="class_core_1_1_continuous_task.html" target="_top" xlink:title="Базовый тип задач для непрерывных фильтров оптимальной структуры. ">
<polygon fill="white" stroke="black" points="257,-79 257,-98 370,-98 370,-79 257,-79"/>
<text text-anchor="middle" x="313.5" y="-86" font-family="Helvetica,sans-Serif" font-size="10.00">Core::ContinuousTask</text>
</a>
</g>
</g>
<!-- Node0&#45;&gt;Node7 -->
<g id="edge7" class="edge"><title>Node0&#45;&gt;Node7</title>
<path fill="none" stroke="midnightblue" d="M213.218,-88.5C226.896,-88.5 242.317,-88.5 256.856,-88.5"/>
<polygon fill="midnightblue" stroke="midnightblue" points="213.143,-85.0001 203.143,-88.5 213.143,-92.0001 213.143,-85.0001"/>
</g>
<!-- Node12 -->
<g id="node13" class="node"><title>Node12</title>
<g id="a_node13"><a xlink:href="class_core_1_1_discrete_task.html" target="_top" xlink:title="Базовый тип задач для дискретных фильтров оптимальной структуры. ">
<polygon fill="white" stroke="black" points="263,-36 263,-55 364,-55 364,-36 263,-36"/>
<text text-anchor="middle" x="313.5" y="-43" font-family="Helvetica,sans-Serif" font-size="10.00">Core::DiscreteTask</text>
</a>
</g>
</g>
<!-- Node0&#45;&gt;Node12 -->
<g id="edge12" class="edge"><title>Node0&#45;&gt;Node12</title>
<path fill="none" stroke="midnightblue" d="M212.509,-75.9938C234.454,-69.3012 261.05,-61.1903 281.295,-55.0164"/>
<polygon fill="midnightblue" stroke="midnightblue" points="211.337,-72.692 202.792,-78.9569 213.379,-79.3876 211.337,-72.692"/>
</g>
<!-- Node1 -->
<g id="node2" class="node"><title>Node1</title>
<g id="a_node2"><a xlink:href="class_core_1_1_function_time.html" target="_top" xlink:title="Базовый класс для классов, представляющих собой функции времени. ">
<polygon fill="white" stroke="black" points="0,-79 0,-98 102,-98 102,-79 0,-79"/>
<text text-anchor="middle" x="51" y="-86" font-family="Helvetica,sans-Serif" font-size="10.00">Core::FunctionTime</text>
</a>
</g>
</g>
<!-- Node1&#45;&gt;Node0 -->
<g id="edge1" class="edge"><title>Node1&#45;&gt;Node0</title>
<path fill="none" stroke="midnightblue" d="M112.452,-88.5C121.23,-88.5 129.957,-88.5 137.849,-88.5"/>
<polygon fill="midnightblue" stroke="midnightblue" points="112.171,-85.0001 102.171,-88.5 112.171,-92.0001 112.171,-85.0001"/>
</g>
<!-- Node3 -->
<g id="node4" class="node"><title>Node3</title>
<g id="a_node4"><a xlink:href="class_tasks_1_1_continuous_discrete_1_1_landing_linear.html" target="_top" xlink:title="Задача спуска ЛА на планету (непрерывно&#45;дискретная, линеаризованная) для фильтров оптимальной структу...">
<polygon fill="white" stroke="black" points="424,-196.5 424,-226.5 558,-226.5 558,-196.5 424,-196.5"/>
<text text-anchor="start" x="432" y="-214.5" font-family="Helvetica,sans-Serif" font-size="10.00">Tasks::ContinuousDiscrete</text>
<text text-anchor="middle" x="491" y="-203.5" font-family="Helvetica,sans-Serif" font-size="10.00">::LandingLinear</text>
</a>
</g>
</g>
<!-- Node2&#45;&gt;Node3 -->
<g id="edge3" class="edge"><title>Node2&#45;&gt;Node3</title>
<path fill="none" stroke="midnightblue" d="M358.474,-174.778C382.027,-181.354 411.237,-189.509 436.143,-196.463"/>
<polygon fill="midnightblue" stroke="midnightblue" points="359.328,-171.382 348.755,-172.064 357.445,-178.124 359.328,-171.382"/>
</g>
<!-- Node5 -->
<g id="node6" class="node"><title>Node5</title>
<g id="a_node6"><a xlink:href="class_tasks_1_1_continuous_discrete_1_1_van_der_pol_linear.html" target="_top" xlink:title="Осциллятор Ван&#45;дер&#45;Поля (непрерывно&#45;дискретный, линеаризованный) для фильтров оптимальной структуры...">
<polygon fill="white" stroke="black" points="424,-147.5 424,-177.5 558,-177.5 558,-147.5 424,-147.5"/>
<text text-anchor="start" x="432" y="-165.5" font-family="Helvetica,sans-Serif" font-size="10.00">Tasks::ContinuousDiscrete</text>
<text text-anchor="middle" x="491" y="-154.5" font-family="Helvetica,sans-Serif" font-size="10.00">::VanDerPolLinear</text>
</a>
</g>
</g>
<!-- Node2&#45;&gt;Node5 -->
<g id="edge5" class="edge"><title>Node2&#45;&gt;Node5</title>
<path fill="none" stroke="midnightblue" d="M398.201,-162.5C406.787,-162.5 415.425,-162.5 423.785,-162.5"/>
<polygon fill="midnightblue" stroke="midnightblue" points="398.165,-159 388.165,-162.5 398.165,-166 398.165,-159"/>
</g>
<!-- Node4 -->
<g id="node5" class="node"><title>Node4</title>
<g id="a_node5"><a xlink:href="class_tasks_1_1_continuous_discrete_1_1_landing_gauss.html" target="_top" xlink:title="Tasks::ContinuousDiscrete\l::LandingGauss">
<polygon fill="white" stroke="black" points="594,-196.5 594,-226.5 728,-226.5 728,-196.5 594,-196.5"/>
<text text-anchor="start" x="602" y="-214.5" font-family="Helvetica,sans-Serif" font-size="10.00">Tasks::ContinuousDiscrete</text>
<text text-anchor="middle" x="661" y="-203.5" font-family="Helvetica,sans-Serif" font-size="10.00">::LandingGauss</text>
</a>
</g>
</g>
<!-- Node3&#45;&gt;Node4 -->
<g id="edge4" class="edge"><title>Node3&#45;&gt;Node4</title>
<path fill="none" stroke="midnightblue" d="M568.595,-211.5C577.013,-211.5 585.532,-211.5 593.809,-211.5"/>
<polygon fill="midnightblue" stroke="midnightblue" points="568.398,-208 558.398,-211.5 568.398,-215 568.398,-208"/>
</g>
<!-- Node6 -->
<g id="node7" class="node"><title>Node6</title>
<g id="a_node7"><a xlink:href="class_tasks_1_1_continuous_discrete_1_1_van_der_pol_gauss.html" target="_top" xlink:title="Осциллятор Ван&#45;дер&#45;Поля (непрерывно&#45;дискретный, гауссовский) для фильтров оптимальной структуры...">
<polygon fill="white" stroke="black" points="594,-147.5 594,-177.5 728,-177.5 728,-147.5 594,-147.5"/>
<text text-anchor="start" x="602" y="-165.5" font-family="Helvetica,sans-Serif" font-size="10.00">Tasks::ContinuousDiscrete</text>
<text text-anchor="middle" x="661" y="-154.5" font-family="Helvetica,sans-Serif" font-size="10.00">::VanDerPolGauss</text>
</a>
</g>
</g>
<!-- Node5&#45;&gt;Node6 -->
<g id="edge6" class="edge"><title>Node5&#45;&gt;Node6</title>
<path fill="none" stroke="midnightblue" d="M568.595,-162.5C577.013,-162.5 585.532,-162.5 593.809,-162.5"/>
<polygon fill="midnightblue" stroke="midnightblue" points="568.398,-159 558.398,-162.5 568.398,-166 568.398,-159"/>
</g>
<!-- Node8 -->
<g id="node9" class="node"><title>Node8</title>
<g id="a_node9"><a xlink:href="class_tasks_1_1_continuous_1_1_landing_linear.html" target="_top" xlink:title="Задача спуска ЛА на планету (непрерывная, линеаризованная) для фильтров оптимальной структуры...">
<polygon fill="white" stroke="black" points="439,-98.5 439,-128.5 543,-128.5 543,-98.5 439,-98.5"/>
<text text-anchor="start" x="447" y="-116.5" font-family="Helvetica,sans-Serif" font-size="10.00">Tasks::Continuous::</text>
<text text-anchor="middle" x="491" y="-105.5" font-family="Helvetica,sans-Serif" font-size="10.00">LandingLinear</text>
</a>
</g>
</g>
<!-- Node7&#45;&gt;Node8 -->
<g id="edge8" class="edge"><title>Node7&#45;&gt;Node8</title>
<path fill="none" stroke="midnightblue" d="M380.008,-97.8316C399.403,-100.594 420.35,-103.578 438.707,-106.193"/>
<polygon fill="midnightblue" stroke="midnightblue" points="380.423,-94.3555 370.029,-96.4102 379.436,-101.286 380.423,-94.3555"/>
</g>
<!-- Node10 -->
<g id="node11" class="node"><title>Node10</title>
<g id="a_node11"><a xlink:href="class_tasks_1_1_continuous_1_1_van_der_pol_linear.html" target="_top" xlink:title="Осциллятор Ван&#45;дер&#45;Поля (непрерывный, линеаризованный) для фильтров оптимальной структуры. ">
<polygon fill="white" stroke="black" points="439,-49.5 439,-79.5 543,-79.5 543,-49.5 439,-49.5"/>
<text text-anchor="start" x="447" y="-67.5" font-family="Helvetica,sans-Serif" font-size="10.00">Tasks::Continuous::</text>
<text text-anchor="middle" x="491" y="-56.5" font-family="Helvetica,sans-Serif" font-size="10.00">VanDerPolLinear</text>
</a>
</g>
</g>
<!-- Node7&#45;&gt;Node10 -->
<g id="edge10" class="edge"><title>Node7&#45;&gt;Node10</title>
<path fill="none" stroke="midnightblue" d="M380.008,-79.5416C399.403,-76.8893 420.35,-74.0248 438.707,-71.5144"/>
<polygon fill="midnightblue" stroke="midnightblue" points="379.463,-76.0835 370.029,-80.9062 380.411,-83.019 379.463,-76.0835"/>
</g>
<!-- Node9 -->
<g id="node10" class="node"><title>Node9</title>
<g id="a_node10"><a xlink:href="class_tasks_1_1_continuous_1_1_landing_gauss.html" target="_top" xlink:title="Tasks::Continuous::\lLandingGauss">
<polygon fill="white" stroke="black" points="609,-98.5 609,-128.5 713,-128.5 713,-98.5 609,-98.5"/>
<text text-anchor="start" x="617" y="-116.5" font-family="Helvetica,sans-Serif" font-size="10.00">Tasks::Continuous::</text>
<text text-anchor="middle" x="661" y="-105.5" font-family="Helvetica,sans-Serif" font-size="10.00">LandingGauss</text>
</a>
</g>
</g>
<!-- Node8&#45;&gt;Node9 -->
<g id="edge9" class="edge"><title>Node8&#45;&gt;Node9</title>
<path fill="none" stroke="midnightblue" d="M553.551,-113.5C571.774,-113.5 591.518,-113.5 608.996,-113.5"/>
<polygon fill="midnightblue" stroke="midnightblue" points="553.318,-110 543.318,-113.5 553.318,-117 553.318,-110"/>
</g>
<!-- Node11 -->
<g id="node12" class="node"><title>Node11</title>
<g id="a_node12"><a xlink:href="class_tasks_1_1_continuous_1_1_van_der_pol_gauss.html" target="_top" xlink:title="Осциллятор Ван&#45;дер&#45;Поля (непрерывный, гауссовский) для фильтров оптимальной структуры. ">
<polygon fill="white" stroke="black" points="609,-49.5 609,-79.5 713,-79.5 713,-49.5 609,-49.5"/>
<text text-anchor="start" x="617" y="-67.5" font-family="Helvetica,sans-Serif" font-size="10.00">Tasks::Continuous::</text>
<text text-anchor="middle" x="661" y="-56.5" font-family="Helvetica,sans-Serif" font-size="10.00">VanDerPolGauss</text>
</a>
</g>
</g>
<!-- Node10&#45;&gt;Node11 -->
<g id="edge11" class="edge"><title>Node10&#45;&gt;Node11</title>
<path fill="none" stroke="midnightblue" d="M553.551,-64.5C571.774,-64.5 591.518,-64.5 608.996,-64.5"/>
<polygon fill="midnightblue" stroke="midnightblue" points="553.318,-61.0001 543.318,-64.5 553.318,-68.0001 553.318,-61.0001"/>
</g>
<!-- Node13 -->
<g id="node14" class="node"><title>Node13</title>
<g id="a_node14"><a xlink:href="class_tasks_1_1_discrete_1_1_landing_linear.html" target="_top" xlink:title="Задача спуска ЛА на планету (дискретная, линеаризованная) для фильтров оптимальной структуры...">
<polygon fill="white" stroke="black" points="428.5,-0.5 428.5,-30.5 553.5,-30.5 553.5,-0.5 428.5,-0.5"/>
<text text-anchor="start" x="436.5" y="-18.5" font-family="Helvetica,sans-Serif" font-size="10.00">Tasks::Discrete::Landing</text>
<text text-anchor="middle" x="491" y="-7.5" font-family="Helvetica,sans-Serif" font-size="10.00">Linear</text>
</a>
</g>
</g>
<!-- Node12&#45;&gt;Node13 -->
<g id="edge13" class="edge"><title>Node12&#45;&gt;Node13</title>
<path fill="none" stroke="midnightblue" d="M374.386,-35.2632C391.841,-32.2793 410.938,-29.0149 428.492,-26.0143"/>
<polygon fill="midnightblue" stroke="midnightblue" points="373.589,-31.8484 364.322,-36.9834 374.769,-38.7484 373.589,-31.8484"/>
</g>
<!-- Node14 -->
<g id="node15" class="node"><title>Node14</title>
<g id="a_node15"><a xlink:href="class_tasks_1_1_discrete_1_1_landing_gauss.html" target="_top" xlink:title="Tasks::Discrete::Landing\lGauss">
<polygon fill="white" stroke="black" points="598.5,-0.5 598.5,-30.5 723.5,-30.5 723.5,-0.5 598.5,-0.5"/>
<text text-anchor="start" x="606.5" y="-18.5" font-family="Helvetica,sans-Serif" font-size="10.00">Tasks::Discrete::Landing</text>
<text text-anchor="middle" x="661" y="-7.5" font-family="Helvetica,sans-Serif" font-size="10.00">Gauss</text>
</a>
</g>
</g>
<!-- Node13&#45;&gt;Node14 -->
<g id="edge14" class="edge"><title>Node13&#45;&gt;Node14</title>
<path fill="none" stroke="midnightblue" d="M563.66,-15.5C575.223,-15.5 587.106,-15.5 598.404,-15.5"/>
<polygon fill="midnightblue" stroke="midnightblue" points="563.603,-12.0001 553.603,-15.5 563.603,-19.0001 563.603,-12.0001"/>
</g>
</g>
</svg>
