<?xml version="1.0" encoding="UTF-8" standalone="no"?>
<!DOCTYPE svg PUBLIC "-//W3C//DTD SVG 1.1//EN"
 "http://www.w3.org/Graphics/SVG/1.1/DTD/svg11.dtd">
<!-- Generated by graphviz version 2.38.0 (20140413.2041)
 -->
<!-- Title: Core::ContinuousDiscreteFilter Pages: 1 -->
<svg width="437pt" height="165pt"
 viewBox="0.00 0.00 437.00 165.00" xmlns="http://www.w3.org/2000/svg" xmlns:xlink="http://www.w3.org/1999/xlink">
<g id="graph0" class="graph" transform="scale(1 1) rotate(0) translate(4 161)">
<title>Core::ContinuousDiscreteFilter</title>
<polygon fill="white" stroke="none" points="-4,4 -4,-161 433,-161 433,4 -4,4"/>
<!-- Node1 -->
<g id="node1" class="node"><title>Node1</title>
<polygon fill="#bfbfbf" stroke="black" points="101,-63 101,-93 231,-93 231,-63 101,-63"/>
<text text-anchor="start" x="109" y="-81" font-family="Helvetica,sans-Serif" font-size="10.00">Core::ContinuousDiscrete</text>
<text text-anchor="middle" x="166" y="-70" font-family="Helvetica,sans-Serif" font-size="10.00">Filter</text>
</g>
<!-- Node3 -->
<g id="node3" class="node"><title>Node3</title>
<g id="a_node3"><a xlink:href="class_filters_1_1_continuous_discrete_1_1_a_o_f.html" target="_top" xlink:title="Класс, реализующий непрерывно&#45;дискретный абсолютно оптимальной фильтр. ">
<polygon fill="white" stroke="black" points="267,-137.5 267,-156.5 429,-156.5 429,-137.5 267,-137.5"/>
<text text-anchor="middle" x="348" y="-144.5" font-family="Helvetica,sans-Serif" font-size="10.00">Filters::ContinuousDiscrete::AOF</text>
</a>
</g>
</g>
<!-- Node1&#45;&gt;Node3 -->
<g id="edge2" class="edge"><title>Node1&#45;&gt;Node3</title>
<path fill="none" stroke="midnightblue" d="M201.808,-97.8909C220.641,-108.009 244.58,-119.856 267,-128 277.063,-131.655 288.096,-134.8 298.668,-137.419"/>
<polygon fill="midnightblue" stroke="midnightblue" points="203.456,-94.8034 193.002,-93.0865 200.104,-100.948 203.456,-94.8034"/>
</g>
<!-- Node4 -->
<g id="node4" class="node"><title>Node4</title>
<g id="a_node4"><a xlink:href="class_filters_1_1_continuous_discrete_1_1_d_f_o_s.html" target="_top" xlink:title="Класс, реализующий непрерывно&#45;дискретный фильтр оптимальной структуры с дискретным прогнозом...">
<polygon fill="white" stroke="black" points="280,-88 280,-118 416,-118 416,-88 280,-88"/>
<text text-anchor="start" x="288" y="-106" font-family="Helvetica,sans-Serif" font-size="10.00">Filters::ContinuousDiscrete</text>
<text text-anchor="middle" x="348" y="-95" font-family="Helvetica,sans-Serif" font-size="10.00">::DFOS</text>
</a>
</g>
</g>
<!-- Node1&#45;&gt;Node4 -->
<g id="edge3" class="edge"><title>Node1&#45;&gt;Node4</title>
<path fill="none" stroke="midnightblue" d="M241.322,-88.3225C254.057,-90.0913 267.224,-91.92 279.761,-93.6612"/>
<polygon fill="midnightblue" stroke="midnightblue" points="241.608,-84.8287 231.222,-86.9197 240.645,-91.7622 241.608,-84.8287"/>
</g>
<!-- Node5 -->
<g id="node5" class="node"><title>Node5</title>
<g id="a_node5"><a xlink:href="class_filters_1_1_continuous_discrete_1_1_d_f_o_s_b_o.html" target="_top" xlink:title="Класс, реализующий непрерывно&#45;дискретный фильтр оптимальной структуры повышеного порядка. ">
<polygon fill="white" stroke="black" points="280,-39 280,-69 416,-69 416,-39 280,-39"/>
<text text-anchor="start" x="288" y="-57" font-family="Helvetica,sans-Serif" font-size="10.00">Filters::ContinuousDiscrete</text>
<text text-anchor="middle" x="348" y="-46" font-family="Helvetica,sans-Serif" font-size="10.00">::DFOSBO</text>
</a>
</g>
</g>
<!-- Node1&#45;&gt;Node5 -->
<g id="edge4" class="edge"><title>Node1&#45;&gt;Node5</title>
<path fill="none" stroke="midnightblue" d="M241.322,-68.0904C254.057,-66.3924 267.224,-64.6368 279.761,-62.9652"/>
<polygon fill="midnightblue" stroke="midnightblue" points="240.671,-64.6461 231.222,-69.4371 241.597,-71.5847 240.671,-64.6461"/>
</g>
<!-- Node6 -->
<g id="node6" class="node"><title>Node6</title>
<g id="a_node6"><a xlink:href="class_filters_1_1_continuous_discrete_1_1_f_o_s.html" target="_top" xlink:title="Класс, реализующий непрерывно&#45;дискретный фильтр оптимальной структуры с непрерывным прогнозом...">
<polygon fill="white" stroke="black" points="267,-0.5 267,-19.5 429,-19.5 429,-0.5 267,-0.5"/>
<text text-anchor="middle" x="348" y="-7.5" font-family="Helvetica,sans-Serif" font-size="10.00">Filters::ContinuousDiscrete::FOS</text>
</a>
</g>
</g>
<!-- Node1&#45;&gt;Node6 -->
<g id="edge5" class="edge"><title>Node1&#45;&gt;Node6</title>
<path fill="none" stroke="midnightblue" d="M202.903,-57.9894C221.583,-48.2058 245.049,-36.8735 267,-29 277.212,-25.337 288.412,-22.1743 299.112,-19.5378"/>
<polygon fill="midnightblue" stroke="midnightblue" points="201.06,-55.0052 193.875,-62.7915 204.348,-61.1853 201.06,-55.0052"/>
</g>
<!-- Node2 -->
<g id="node2" class="node"><title>Node2</title>
<g id="a_node2"><a xlink:href="class_core_1_1_filter.html" target="_top" xlink:title="Базовый класс для всех фильтров. ">
<polygon fill="white" stroke="black" points="0,-68.5 0,-87.5 65,-87.5 65,-68.5 0,-68.5"/>
<text text-anchor="middle" x="32.5" y="-75.5" font-family="Helvetica,sans-Serif" font-size="10.00">Core::Filter</text>
</a>
</g>
</g>
<!-- Node2&#45;&gt;Node1 -->
<g id="edge1" class="edge"><title>Node2&#45;&gt;Node1</title>
<path fill="none" stroke="midnightblue" d="M75.3435,-78C83.5246,-78 92.2774,-78 100.989,-78"/>
<polygon fill="midnightblue" stroke="midnightblue" points="75.3325,-74.5001 65.3325,-78 75.3324,-81.5001 75.3325,-74.5001"/>
</g>
</g>
</svg>
