<?xml version="1.0" encoding="UTF-8" standalone="no"?>
<!DOCTYPE svg PUBLIC "-//W3C//DTD SVG 1.1//EN"
 "http://www.w3.org/Graphics/SVG/1.1/DTD/svg11.dtd">
<!-- Generated by graphviz version 2.38.0 (20140413.2041)
 -->
<!-- Title: Tasks::Discrete::LandingLinear Pages: 1 -->
<svg width="134pt" height="274pt"
 viewBox="0.00 0.00 134.00 274.00" xmlns="http://www.w3.org/2000/svg" xmlns:xlink="http://www.w3.org/1999/xlink">
<g id="graph0" class="graph" transform="scale(1 1) rotate(0) translate(4 270)">
<title>Tasks::Discrete::LandingLinear</title>
<polygon fill="white" stroke="none" points="-4,4 -4,-270 130,-270 130,4 -4,4"/>
<!-- Node1 -->
<g id="node1" class="node"><title>Node1</title>
<polygon fill="#bfbfbf" stroke="black" points="0,-67.5 0,-97.5 126,-97.5 126,-67.5 0,-67.5"/>
<text text-anchor="start" x="8" y="-85.5" font-family="Helvetica,sans-Serif" font-size="10.00">Tasks::Discrete::Landing</text>
<text text-anchor="middle" x="63" y="-74.5" font-family="Helvetica,sans-Serif" font-size="10.00">Linear</text>
</g>
<!-- Node5 -->
<g id="node5" class="node"><title>Node5</title>
<g id="a_node5"><a xlink:href="class_tasks_1_1_discrete_1_1_landing_gauss.html" target="_top" xlink:title="Tasks::Discrete::Landing\lGauss">
<polygon fill="white" stroke="black" points="0,-0.5 0,-30.5 126,-30.5 126,-0.5 0,-0.5"/>
<text text-anchor="start" x="8" y="-18.5" font-family="Helvetica,sans-Serif" font-size="10.00">Tasks::Discrete::Landing</text>
<text text-anchor="middle" x="63" y="-7.5" font-family="Helvetica,sans-Serif" font-size="10.00">Gauss</text>
</a>
</g>
</g>
<!-- Node1&#45;&gt;Node5 -->
<g id="edge4" class="edge"><title>Node1&#45;&gt;Node5</title>
<path fill="none" stroke="midnightblue" d="M63,-57.1081C63,-48.1539 63,-38.3227 63,-30.5765"/>
<polygon fill="midnightblue" stroke="midnightblue" points="59.5001,-57.3959 63,-67.396 66.5001,-57.396 59.5001,-57.3959"/>
</g>
<!-- Node2 -->
<g id="node2" class="node"><title>Node2</title>
<g id="a_node2"><a xlink:href="class_core_1_1_discrete_task.html" target="_top" xlink:title="Базовый тип задач для дискретных фильтров оптимальной структуры. ">
<polygon fill="white" stroke="black" points="12,-134.5 12,-153.5 114,-153.5 114,-134.5 12,-134.5"/>
<text text-anchor="middle" x="63" y="-141.5" font-family="Helvetica,sans-Serif" font-size="10.00">Core::DiscreteTask</text>
</a>
</g>
</g>
<!-- Node2&#45;&gt;Node1 -->
<g id="edge1" class="edge"><title>Node2&#45;&gt;Node1</title>
<path fill="none" stroke="midnightblue" d="M63,-124.235C63,-115.586 63,-105.497 63,-97.523"/>
<polygon fill="midnightblue" stroke="midnightblue" points="59.5001,-124.475 63,-134.475 66.5001,-124.475 59.5001,-124.475"/>
</g>
<!-- Node3 -->
<g id="node3" class="node"><title>Node3</title>
<g id="a_node3"><a xlink:href="class_core_1_1_task.html" target="_top" xlink:title="Базовый класс для всех задач ">
<polygon fill="white" stroke="black" points="30.5,-190.5 30.5,-209.5 95.5,-209.5 95.5,-190.5 30.5,-190.5"/>
<text text-anchor="middle" x="63" y="-197.5" font-family="Helvetica,sans-Serif" font-size="10.00">Core::Task</text>
</a>
</g>
</g>
<!-- Node3&#45;&gt;Node2 -->
<g id="edge2" class="edge"><title>Node3&#45;&gt;Node2</title>
<path fill="none" stroke="midnightblue" d="M63,-179.805C63,-170.91 63,-160.78 63,-153.751"/>
<polygon fill="midnightblue" stroke="midnightblue" points="59.5001,-180.083 63,-190.083 66.5001,-180.083 59.5001,-180.083"/>
</g>
<!-- Node4 -->
<g id="node4" class="node"><title>Node4</title>
<g id="a_node4"><a xlink:href="class_core_1_1_function_time.html" target="_top" xlink:title="Базовый класс для классов, представляющих собой функции времени. ">
<polygon fill="white" stroke="black" points="11.5,-246.5 11.5,-265.5 114.5,-265.5 114.5,-246.5 11.5,-246.5"/>
<text text-anchor="middle" x="63" y="-253.5" font-family="Helvetica,sans-Serif" font-size="10.00">Core::FunctionTime</text>
</a>
</g>
</g>
<!-- Node4&#45;&gt;Node3 -->
<g id="edge3" class="edge"><title>Node4&#45;&gt;Node3</title>
<path fill="none" stroke="midnightblue" d="M63,-235.805C63,-226.91 63,-216.78 63,-209.751"/>
<polygon fill="midnightblue" stroke="midnightblue" points="59.5001,-236.083 63,-246.083 66.5001,-236.083 59.5001,-236.083"/>
</g>
</g>
</svg>
