<?xml version="1.0" encoding="UTF-8" standalone="no"?>
<!DOCTYPE svg PUBLIC "-//W3C//DTD SVG 1.1//EN"
 "http://www.w3.org/Graphics/SVG/1.1/DTD/svg11.dtd">
<!-- Generated by graphviz version 2.38.0 (20140413.2041)
 -->
<!-- Title: GraphWindow Pages: 1 -->
<svg width="240pt" height="173pt"
 viewBox="0.00 0.00 240.00 173.00" xmlns="http://www.w3.org/2000/svg" xmlns:xlink="http://www.w3.org/1999/xlink">
<g id="graph0" class="graph" transform="scale(1 1) rotate(0) translate(4 169)">
<title>GraphWindow</title>
<polygon fill="white" stroke="none" points="-4,4 -4,-169 236,-169 236,4 -4,4"/>
<!-- Node2 -->
<g id="node1" class="node"><title>Node2</title>
<polygon fill="#bfbfbf" stroke="black" points="32.5,-0.5 32.5,-19.5 117.5,-19.5 117.5,-0.5 32.5,-0.5"/>
<text text-anchor="middle" x="75" y="-7.5" font-family="Helvetica,sans-Serif" font-size="10.00">GraphWindow</text>
</g>
<!-- Node3 -->
<g id="node2" class="node"><title>Node3</title>
<polygon fill="white" stroke="#bfbfbf" points="0,-67.5 0,-86.5 86,-86.5 86,-67.5 0,-67.5"/>
<text text-anchor="middle" x="43" y="-74.5" font-family="Helvetica,sans-Serif" font-size="10.00">QMainWindow</text>
</g>
<!-- Node3&#45;&gt;Node2 -->
<g id="edge1" class="edge"><title>Node3&#45;&gt;Node2</title>
<path fill="none" stroke="midnightblue" d="M51.7811,-58.1635C57.9523,-45.6281 65.9364,-29.4104 70.7527,-19.6273"/>
<polygon fill="midnightblue" stroke="midnightblue" points="48.5925,-56.7162 47.3157,-67.2338 54.8727,-59.808 48.5925,-56.7162"/>
</g>
<!-- Node4 -->
<g id="node3" class="node"><title>Node4</title>
<g id="a_node3"><a xlink:href="class_graph_sheet.html" target="_top" xlink:title="Класс, реализующий &quot;страницу&quot; окна графиков. ">
<polygon fill="white" stroke="black" points="104,-67.5 104,-86.5 178,-86.5 178,-67.5 104,-67.5"/>
<text text-anchor="middle" x="141" y="-74.5" font-family="Helvetica,sans-Serif" font-size="10.00">GraphSheet</text>
</a>
</g>
</g>
<!-- Node4&#45;&gt;Node2 -->
<g id="edge2" class="edge"><title>Node4&#45;&gt;Node2</title>
<path fill="none" stroke="#9a32cd" stroke-dasharray="5,2" d="M124.751,-59.9968C111.807,-47.2496 94.1854,-29.8947 83.76,-19.6273"/>
<polygon fill="#9a32cd" stroke="#9a32cd" points="122.518,-62.7106 132.099,-67.2338 127.43,-57.7232 122.518,-62.7106"/>
<text text-anchor="middle" x="151.5" y="-41" font-family="Helvetica,sans-Serif" font-size="10.00"> m_currentSheet</text>
</g>
<!-- Node5 -->
<g id="node4" class="node"><title>Node5</title>
<g id="a_node4"><a xlink:href="struct_g_axis_range.html" target="_top" xlink:title="Структура для хранения границ осей координат. ">
<polygon fill="white" stroke="black" points="103,-145.5 103,-164.5 179,-164.5 179,-145.5 103,-145.5"/>
<text text-anchor="middle" x="141" y="-152.5" font-family="Helvetica,sans-Serif" font-size="10.00">GAxisRange</text>
</a>
</g>
</g>
<!-- Node5&#45;&gt;Node4 -->
<g id="edge3" class="edge"><title>Node5&#45;&gt;Node4</title>
<path fill="none" stroke="#9a32cd" stroke-dasharray="5,2" d="M141,-135.224C141,-119.697 141,-98.3582 141,-86.6165"/>
<polygon fill="#9a32cd" stroke="#9a32cd" points="137.5,-135.282 141,-145.282 144.5,-135.282 137.5,-135.282"/>
<text text-anchor="middle" x="186.5" y="-119" font-family="Helvetica,sans-Serif" font-size="10.00"> m_userAxisRange</text>
<text text-anchor="middle" x="186.5" y="-108" font-family="Helvetica,sans-Serif" font-size="10.00">m_axisRange</text>
</g>
</g>
</svg>
