<?xml version="1.0" encoding="UTF-8" standalone="no"?>
<!DOCTYPE svg PUBLIC "-//W3C//DTD SVG 1.1//EN"
 "http://www.w3.org/Graphics/SVG/1.1/DTD/svg11.dtd">
<!-- Generated by graphviz version 2.38.0 (20140413.2041)
 -->
<!-- Title: TaskWidget Pages: 1 -->
<svg width="228pt" height="274pt"
 viewBox="0.00 0.00 228.00 274.00" xmlns="http://www.w3.org/2000/svg" xmlns:xlink="http://www.w3.org/1999/xlink">
<g id="graph0" class="graph" transform="scale(1 1) rotate(0) translate(4 270)">
<title>TaskWidget</title>
<polygon fill="white" stroke="none" points="-4,4 -4,-270 224,-270 224,4 -4,4"/>
<!-- Node2 -->
<g id="node1" class="node"><title>Node2</title>
<polygon fill="#bfbfbf" stroke="black" points="36,-0.5 36,-19.5 104,-19.5 104,-0.5 36,-0.5"/>
<text text-anchor="middle" x="70" y="-7.5" font-family="Helvetica,sans-Serif" font-size="10.00">TaskWidget</text>
</g>
<!-- Node3 -->
<g id="node2" class="node"><title>Node3</title>
<polygon fill="white" stroke="#bfbfbf" points="0,-67.5 0,-86.5 68,-86.5 68,-67.5 0,-67.5"/>
<text text-anchor="middle" x="34" y="-74.5" font-family="Helvetica,sans-Serif" font-size="10.00">QGroupBox</text>
</g>
<!-- Node3&#45;&gt;Node2 -->
<g id="edge1" class="edge"><title>Node3&#45;&gt;Node2</title>
<path fill="none" stroke="midnightblue" d="M43.8787,-58.1635C50.8214,-45.6281 59.8035,-29.4104 65.2218,-19.6273"/>
<polygon fill="midnightblue" stroke="midnightblue" points="40.6384,-56.7901 38.8551,-67.2338 46.7619,-60.1817 40.6384,-56.7901"/>
</g>
<!-- Node4 -->
<g id="node3" class="node"><title>Node4</title>
<g id="a_node3"><a xlink:href="class_task_parameters_widget.html" target="_top" xlink:title="Класс виджета, предаставляющего возможность работы с параметрами задач. ">
<polygon fill="white" stroke="black" points="86.5,-67.5 86.5,-86.5 205.5,-86.5 205.5,-67.5 86.5,-67.5"/>
<text text-anchor="middle" x="146" y="-74.5" font-family="Helvetica,sans-Serif" font-size="10.00">TaskParametersWidget</text>
</a>
</g>
</g>
<!-- Node4&#45;&gt;Node2 -->
<g id="edge2" class="edge"><title>Node4&#45;&gt;Node2</title>
<path fill="none" stroke="#9a32cd" stroke-dasharray="5,2" d="M128.126,-60.7134C113.153,-47.907 92.3187,-30.0884 80.0873,-19.6273"/>
<polygon fill="#9a32cd" stroke="#9a32cd" points="125.876,-63.394 135.75,-67.2338 130.426,-58.0742 125.876,-63.394"/>
<text text-anchor="middle" x="160" y="-41" font-family="Helvetica,sans-Serif" font-size="10.00"> m_parametersWidget</text>
</g>
<!-- Node5 -->
<g id="node4" class="node"><title>Node5</title>
<polygon fill="white" stroke="#bfbfbf" points="108,-246.5 108,-265.5 162,-265.5 162,-246.5 108,-246.5"/>
<text text-anchor="middle" x="135" y="-253.5" font-family="Helvetica,sans-Serif" font-size="10.00">QWidget</text>
</g>
<!-- Node5&#45;&gt;Node4 -->
<g id="edge3" class="edge"><title>Node5&#45;&gt;Node4</title>
<path fill="none" stroke="midnightblue" d="M133.487,-236.074C132.896,-227.772 132.29,-217.909 132,-209 130.488,-162.593 140.177,-107.412 144.254,-86.5526"/>
<polygon fill="midnightblue" stroke="midnightblue" points="130.008,-236.483 134.254,-246.19 136.988,-235.954 130.008,-236.483"/>
</g>
<!-- Node6 -->
<g id="node5" class="node"><title>Node6</title>
<g id="a_node5"><a xlink:href="class_matrix_widget.html" target="_top" xlink:title="Класс для отображения / изменения матриц (или векторов). ">
<polygon fill="white" stroke="black" points="141,-189.5 141,-208.5 215,-208.5 215,-189.5 141,-189.5"/>
<text text-anchor="middle" x="178" y="-196.5" font-family="Helvetica,sans-Serif" font-size="10.00">MatrixWidget</text>
</a>
</g>
</g>
<!-- Node5&#45;&gt;Node6 -->
<g id="edge5" class="edge"><title>Node5&#45;&gt;Node6</title>
<path fill="none" stroke="midnightblue" d="M148.108,-238.234C155.724,-228.493 165.006,-216.62 171.187,-208.715"/>
<polygon fill="midnightblue" stroke="midnightblue" points="145.121,-236.372 141.719,-246.406 150.635,-240.684 145.121,-236.372"/>
</g>
<!-- Node6&#45;&gt;Node4 -->
<g id="edge4" class="edge"><title>Node6&#45;&gt;Node4</title>
<path fill="none" stroke="#9a32cd" stroke-dasharray="5,2" d="M173.067,-179.5C166.039,-153.145 153.427,-105.85 148.281,-86.5519"/>
<polygon fill="#9a32cd" stroke="#9a32cd" points="169.74,-180.609 175.699,-189.37 176.504,-178.806 169.74,-180.609"/>
<text text-anchor="middle" x="195" y="-163" font-family="Helvetica,sans-Serif" font-size="10.00"> m_meanW</text>
<text text-anchor="middle" x="195" y="-152" font-family="Helvetica,sans-Serif" font-size="10.00">m_meanX</text>
<text text-anchor="middle" x="195" y="-141" font-family="Helvetica,sans-Serif" font-size="10.00">m_varV</text>
<text text-anchor="middle" x="195" y="-130" font-family="Helvetica,sans-Serif" font-size="10.00">m_varW</text>
<text text-anchor="middle" x="195" y="-119" font-family="Helvetica,sans-Serif" font-size="10.00">m_varX</text>
<text text-anchor="middle" x="195" y="-108" font-family="Helvetica,sans-Serif" font-size="10.00">m_meanV</text>
</g>
</g>
</svg>
