<?xml version="1.0" encoding="UTF-8" standalone="no"?>
<!DOCTYPE svg PUBLIC "-//W3C//DTD SVG 1.1//EN"
 "http://www.w3.org/Graphics/SVG/1.1/DTD/svg11.dtd">
<!-- Generated by graphviz version 2.38.0 (20140413.2041)
 -->
<!-- Title: Core::Task Pages: 1 -->
<svg width="110pt" height="84pt"
 viewBox="0.00 0.00 110.00 84.00" xmlns="http://www.w3.org/2000/svg" xmlns:xlink="http://www.w3.org/1999/xlink">
<g id="graph0" class="graph" transform="scale(1 1) rotate(0) translate(4 80)">
<title>Core::Task</title>
<polygon fill="white" stroke="none" points="-4,4 -4,-80 106,-80 106,4 -4,4"/>
<!-- Node15 -->
<g id="node1" class="node"><title>Node15</title>
<polygon fill="#bfbfbf" stroke="black" points="18.5,-0.5 18.5,-19.5 83.5,-19.5 83.5,-0.5 18.5,-0.5"/>
<text text-anchor="middle" x="51" y="-7.5" font-family="Helvetica,sans-Serif" font-size="10.00">Core::Task</text>
</g>
<!-- Node16 -->
<g id="node2" class="node"><title>Node16</title>
<g id="a_node2"><a xlink:href="class_core_1_1_function_time.html" target="_top" xlink:title="Базовый класс для классов, представляющих собой функции времени. ">
<polygon fill="white" stroke="black" points="-7.10543e-15,-56.5 -7.10543e-15,-75.5 102,-75.5 102,-56.5 -7.10543e-15,-56.5"/>
<text text-anchor="middle" x="51" y="-63.5" font-family="Helvetica,sans-Serif" font-size="10.00">Core::FunctionTime</text>
</a>
</g>
</g>
<!-- Node16&#45;&gt;Node15 -->
<g id="edge1" class="edge"><title>Node16&#45;&gt;Node15</title>
<path fill="none" stroke="midnightblue" d="M51,-45.8045C51,-36.9102 51,-26.7798 51,-19.7511"/>
<polygon fill="midnightblue" stroke="midnightblue" points="47.5001,-46.083 51,-56.083 54.5001,-46.083 47.5001,-46.083"/>
</g>
</g>
</svg>
