<?xml version="1.0" encoding="UTF-8" standalone="no"?>
<!DOCTYPE svg PUBLIC "-//W3C//DTD SVG 1.1//EN"
 "http://www.w3.org/Graphics/SVG/1.1/DTD/svg11.dtd">
<!-- Generated by graphviz version 2.38.0 (20140413.2041)
 -->
<!-- Title: Core::FunctionTime Pages: 1 -->
<svg width="781pt" height="235pt"
 viewBox="0.00 0.00 781.00 235.00" xmlns="http://www.w3.org/2000/svg" xmlns:xlink="http://www.w3.org/1999/xlink">
<g id="graph0" class="graph" transform="scale(1 1) rotate(0) translate(4 231)">
<title>Core::FunctionTime</title>
<polygon fill="white" stroke="none" points="-4,4 -4,-231 777,-231 777,4 -4,4"/>
<!-- Node0 -->
<g id="node1" class="node"><title>Node0</title>
<polygon fill="#bfbfbf" stroke="black" points="0,-79 0,-98 110,-98 110,-79 0,-79"/>
<text text-anchor="middle" x="55" y="-86" font-family="Helvetica,sans-Serif" font-size="10.00">Core::FunctionTime</text>
</g>
<!-- Node1 -->
<g id="node2" class="node"><title>Node1</title>
<g id="a_node2"><a xlink:href="class_core_1_1_task.html" target="_top" xlink:title="Базовый класс для всех задач ">
<polygon fill="white" stroke="black" points="146,-79 146,-98 213,-98 213,-79 146,-79"/>
<text text-anchor="middle" x="179.5" y="-86" font-family="Helvetica,sans-Serif" font-size="10.00">Core::Task</text>
</a>
</g>
</g>
<!-- Node0&#45;&gt;Node1 -->
<g id="edge1" class="edge"><title>Node0&#45;&gt;Node1</title>
<path fill="none" stroke="midnightblue" d="M120.122,-88.5C129.016,-88.5 137.829,-88.5 145.808,-88.5"/>
<polygon fill="midnightblue" stroke="midnightblue" points="120.087,-85.0001 110.087,-88.5 120.087,-92.0001 120.087,-85.0001"/>
</g>
<!-- Node2 -->
<g id="node3" class="node"><title>Node2</title>
<g id="a_node3"><a xlink:href="class_core_1_1_continuous_discrete_task.html" target="_top" xlink:title="Базовый тип задач для непрерывно&#45;дискретных фильтров оптимальной структуры. ">
<polygon fill="white" stroke="black" points="249,-153 249,-172 411,-172 411,-153 249,-153"/>
<text text-anchor="middle" x="330" y="-160" font-family="Helvetica,sans-Serif" font-size="10.00">Core::ContinuousDiscreteTask</text>
</a>
</g>
</g>
<!-- Node1&#45;&gt;Node2 -->
<g id="edge2" class="edge"><title>Node1&#45;&gt;Node2</title>
<path fill="none" stroke="midnightblue" d="M208.575,-102.49C238.075,-117.19 283.698,-139.925 309.492,-152.779"/>
<polygon fill="midnightblue" stroke="midnightblue" points="210.121,-99.3502 199.61,-98.0227 206.999,-105.615 210.121,-99.3502"/>
</g>
<!-- Node7 -->
<g id="node8" class="node"><title>Node7</title>
<g id="a_node8"><a xlink:href="class_core_1_1_continuous_task.html" target="_top" xlink:title="Базовый тип задач для непрерывных фильтров оптимальной структуры. ">
<polygon fill="white" stroke="black" points="269,-79 269,-98 391,-98 391,-79 269,-79"/>
<text text-anchor="middle" x="330" y="-86" font-family="Helvetica,sans-Serif" font-size="10.00">Core::ContinuousTask</text>
</a>
</g>
</g>
<!-- Node1&#45;&gt;Node7 -->
<g id="edge7" class="edge"><title>Node1&#45;&gt;Node7</title>
<path fill="none" stroke="midnightblue" d="M223.113,-88.5C237.4,-88.5 253.609,-88.5 268.974,-88.5"/>
<polygon fill="midnightblue" stroke="midnightblue" points="223.089,-85.0001 213.089,-88.5 223.089,-92.0001 223.089,-85.0001"/>
</g>
<!-- Node12 -->
<g id="node13" class="node"><title>Node12</title>
<g id="a_node13"><a xlink:href="class_core_1_1_discrete_task.html" target="_top" xlink:title="Базовый тип задач для дискретных фильтров оптимальной структуры. ">
<polygon fill="white" stroke="black" points="276.5,-36 276.5,-55 383.5,-55 383.5,-36 276.5,-36"/>
<text text-anchor="middle" x="330" y="-43" font-family="Helvetica,sans-Serif" font-size="10.00">Core::DiscreteTask</text>
</a>
</g>
</g>
<!-- Node1&#45;&gt;Node12 -->
<g id="edge12" class="edge"><title>Node1&#45;&gt;Node12</title>
<path fill="none" stroke="midnightblue" d="M222.697,-76.2813C245.939,-69.5514 274.366,-61.32 295.974,-55.0631"/>
<polygon fill="midnightblue" stroke="midnightblue" points="221.721,-72.9201 213.089,-79.0635 223.668,-79.6439 221.721,-72.9201"/>
</g>
<!-- Node3 -->
<g id="node4" class="node"><title>Node3</title>
<g id="a_node4"><a xlink:href="class_tasks_1_1_continuous_discrete_1_1_landing_linear.html" target="_top" xlink:title="Задача спуска ЛА на планету (непрерывно&#45;дискретная, линеаризованная) для фильтров оптимальной структу...">
<polygon fill="white" stroke="black" points="447,-196.5 447,-226.5 592,-226.5 592,-196.5 447,-196.5"/>
<text text-anchor="start" x="455" y="-214.5" font-family="Helvetica,sans-Serif" font-size="10.00">Tasks::ContinuousDiscrete</text>
<text text-anchor="middle" x="519.5" y="-203.5" font-family="Helvetica,sans-Serif" font-size="10.00">::LandingLinear</text>
</a>
</g>
</g>
<!-- Node2&#45;&gt;Node3 -->
<g id="edge3" class="edge"><title>Node2&#45;&gt;Node3</title>
<path fill="none" stroke="midnightblue" d="M377.308,-174.602C402.587,-181.208 434.114,-189.447 460.961,-196.463"/>
<polygon fill="midnightblue" stroke="midnightblue" points="378.157,-171.206 367.597,-172.064 376.387,-177.979 378.157,-171.206"/>
</g>
<!-- Node5 -->
<g id="node6" class="node"><title>Node5</title>
<g id="a_node6"><a xlink:href="class_tasks_1_1_continuous_discrete_1_1_van_der_pol_linear.html" target="_top" xlink:title="Осциллятор Ван&#45;дер&#45;Поля (непрерывно&#45;дискретный, линеаризованный) для фильтров оптимальной структуры...">
<polygon fill="white" stroke="black" points="447,-147.5 447,-177.5 592,-177.5 592,-147.5 447,-147.5"/>
<text text-anchor="start" x="455" y="-165.5" font-family="Helvetica,sans-Serif" font-size="10.00">Tasks::ContinuousDiscrete</text>
<text text-anchor="middle" x="519.5" y="-154.5" font-family="Helvetica,sans-Serif" font-size="10.00">::VanDerPolLinear</text>
</a>
</g>
</g>
<!-- Node2&#45;&gt;Node5 -->
<g id="edge5" class="edge"><title>Node2&#45;&gt;Node5</title>
<path fill="none" stroke="midnightblue" d="M421.108,-162.5C429.698,-162.5 438.328,-162.5 446.71,-162.5"/>
<polygon fill="midnightblue" stroke="midnightblue" points="421.061,-159 411.061,-162.5 421.061,-166 421.061,-159"/>
</g>
<!-- Node4 -->
<g id="node5" class="node"><title>Node4</title>
<g id="a_node5"><a xlink:href="class_tasks_1_1_continuous_discrete_1_1_landing_gauss.html" target="_top" xlink:title="Tasks::ContinuousDiscrete\l::LandingGauss">
<polygon fill="white" stroke="black" points="628,-196.5 628,-226.5 773,-226.5 773,-196.5 628,-196.5"/>
<text text-anchor="start" x="636" y="-214.5" font-family="Helvetica,sans-Serif" font-size="10.00">Tasks::ContinuousDiscrete</text>
<text text-anchor="middle" x="700.5" y="-203.5" font-family="Helvetica,sans-Serif" font-size="10.00">::LandingGauss</text>
</a>
</g>
</g>
<!-- Node3&#45;&gt;Node4 -->
<g id="edge4" class="edge"><title>Node3&#45;&gt;Node4</title>
<path fill="none" stroke="midnightblue" d="M602.043,-211.5C610.638,-211.5 619.332,-211.5 627.804,-211.5"/>
<polygon fill="midnightblue" stroke="midnightblue" points="602.017,-208 592.017,-211.5 602.017,-215 602.017,-208"/>
</g>
<!-- Node6 -->
<g id="node7" class="node"><title>Node6</title>
<g id="a_node7"><a xlink:href="class_tasks_1_1_continuous_discrete_1_1_van_der_pol_gauss.html" target="_top" xlink:title="Осциллятор Ван&#45;дер&#45;Поля (непрерывно&#45;дискретный, гауссовский) для фильтров оптимальной структуры...">
<polygon fill="white" stroke="black" points="628,-147.5 628,-177.5 773,-177.5 773,-147.5 628,-147.5"/>
<text text-anchor="start" x="636" y="-165.5" font-family="Helvetica,sans-Serif" font-size="10.00">Tasks::ContinuousDiscrete</text>
<text text-anchor="middle" x="700.5" y="-154.5" font-family="Helvetica,sans-Serif" font-size="10.00">::VanDerPolGauss</text>
</a>
</g>
</g>
<!-- Node5&#45;&gt;Node6 -->
<g id="edge6" class="edge"><title>Node5&#45;&gt;Node6</title>
<path fill="none" stroke="midnightblue" d="M602.043,-162.5C610.638,-162.5 619.332,-162.5 627.804,-162.5"/>
<polygon fill="midnightblue" stroke="midnightblue" points="602.017,-159 592.017,-162.5 602.017,-166 602.017,-159"/>
</g>
<!-- Node8 -->
<g id="node9" class="node"><title>Node8</title>
<g id="a_node9"><a xlink:href="class_tasks_1_1_continuous_1_1_landing_linear.html" target="_top" xlink:title="Задача спуска ЛА на планету (непрерывная, линеаризованная) для фильтров оптимальной структуры...">
<polygon fill="white" stroke="black" points="464.5,-98.5 464.5,-128.5 574.5,-128.5 574.5,-98.5 464.5,-98.5"/>
<text text-anchor="start" x="472.5" y="-116.5" font-family="Helvetica,sans-Serif" font-size="10.00">Tasks::Continuous::</text>
<text text-anchor="middle" x="519.5" y="-105.5" font-family="Helvetica,sans-Serif" font-size="10.00">LandingLinear</text>
</a>
</g>
</g>
<!-- Node7&#45;&gt;Node8 -->
<g id="edge8" class="edge"><title>Node7&#45;&gt;Node8</title>
<path fill="none" stroke="midnightblue" d="M401.216,-97.8621C422.136,-100.651 444.728,-103.664 464.446,-106.293"/>
<polygon fill="midnightblue" stroke="midnightblue" points="401.475,-94.3657 391.1,-96.5133 400.55,-101.304 401.475,-94.3657"/>
</g>
<!-- Node10 -->
<g id="node11" class="node"><title>Node10</title>
<g id="a_node11"><a xlink:href="class_tasks_1_1_continuous_1_1_van_der_pol_linear.html" target="_top" xlink:title="Осциллятор Ван&#45;дер&#45;Поля (непрерывный, линеаризованный) для фильтров оптимальной структуры. ">
<polygon fill="white" stroke="black" points="464.5,-49.5 464.5,-79.5 574.5,-79.5 574.5,-49.5 464.5,-49.5"/>
<text text-anchor="start" x="472.5" y="-67.5" font-family="Helvetica,sans-Serif" font-size="10.00">Tasks::Continuous::</text>
<text text-anchor="middle" x="519.5" y="-56.5" font-family="Helvetica,sans-Serif" font-size="10.00">VanDerPolLinear</text>
</a>
</g>
</g>
<!-- Node7&#45;&gt;Node10 -->
<g id="edge10" class="edge"><title>Node7&#45;&gt;Node10</title>
<path fill="none" stroke="midnightblue" d="M401.216,-79.5124C422.136,-76.8346 444.728,-73.9428 464.446,-71.4189"/>
<polygon fill="midnightblue" stroke="midnightblue" points="400.575,-76.0658 391.1,-80.8072 401.463,-83.0092 400.575,-76.0658"/>
</g>
<!-- Node9 -->
<g id="node10" class="node"><title>Node9</title>
<g id="a_node10"><a xlink:href="class_tasks_1_1_continuous_1_1_landing_gauss.html" target="_top" xlink:title="Tasks::Continuous::\lLandingGauss">
<polygon fill="white" stroke="black" points="645.5,-98.5 645.5,-128.5 755.5,-128.5 755.5,-98.5 645.5,-98.5"/>
<text text-anchor="start" x="653.5" y="-116.5" font-family="Helvetica,sans-Serif" font-size="10.00">Tasks::Continuous::</text>
<text text-anchor="middle" x="700.5" y="-105.5" font-family="Helvetica,sans-Serif" font-size="10.00">LandingGauss</text>
</a>
</g>
</g>
<!-- Node8&#45;&gt;Node9 -->
<g id="edge9" class="edge"><title>Node8&#45;&gt;Node9</title>
<path fill="none" stroke="midnightblue" d="M584.891,-113.5C604.751,-113.5 626.407,-113.5 645.493,-113.5"/>
<polygon fill="midnightblue" stroke="midnightblue" points="584.692,-110 574.692,-113.5 584.692,-117 584.692,-110"/>
</g>
<!-- Node11 -->
<g id="node12" class="node"><title>Node11</title>
<g id="a_node12"><a xlink:href="class_tasks_1_1_continuous_1_1_van_der_pol_gauss.html" target="_top" xlink:title="Осциллятор Ван&#45;дер&#45;Поля (непрерывный, гауссовский) для фильтров оптимальной структуры. ">
<polygon fill="white" stroke="black" points="645.5,-49.5 645.5,-79.5 755.5,-79.5 755.5,-49.5 645.5,-49.5"/>
<text text-anchor="start" x="653.5" y="-67.5" font-family="Helvetica,sans-Serif" font-size="10.00">Tasks::Continuous::</text>
<text text-anchor="middle" x="700.5" y="-56.5" font-family="Helvetica,sans-Serif" font-size="10.00">VanDerPolGauss</text>
</a>
</g>
</g>
<!-- Node10&#45;&gt;Node11 -->
<g id="edge11" class="edge"><title>Node10&#45;&gt;Node11</title>
<path fill="none" stroke="midnightblue" d="M584.891,-64.5C604.751,-64.5 626.407,-64.5 645.493,-64.5"/>
<polygon fill="midnightblue" stroke="midnightblue" points="584.692,-61.0001 574.692,-64.5 584.692,-68.0001 584.692,-61.0001"/>
</g>
<!-- Node13 -->
<g id="node14" class="node"><title>Node13</title>
<g id="a_node14"><a xlink:href="class_tasks_1_1_discrete_1_1_landing_linear.html" target="_top" xlink:title="Задача спуска ЛА на планету (дискретная, линеаризованная) для фильтров оптимальной структуры...">
<polygon fill="white" stroke="black" points="452.5,-0.5 452.5,-30.5 586.5,-30.5 586.5,-0.5 452.5,-0.5"/>
<text text-anchor="start" x="460.5" y="-18.5" font-family="Helvetica,sans-Serif" font-size="10.00">Tasks::Discrete::Landing</text>
<text text-anchor="middle" x="519.5" y="-7.5" font-family="Helvetica,sans-Serif" font-size="10.00">Linear</text>
</a>
</g>
</g>
<!-- Node12&#45;&gt;Node13 -->
<g id="edge13" class="edge"><title>Node12&#45;&gt;Node13</title>
<path fill="none" stroke="midnightblue" d="M393.706,-35.4671C412.59,-32.4457 433.368,-29.1211 452.461,-26.0662"/>
<polygon fill="midnightblue" stroke="midnightblue" points="393.05,-32.0275 383.728,-37.0635 394.156,-38.9395 393.05,-32.0275"/>
</g>
<!-- Node14 -->
<g id="node15" class="node"><title>Node14</title>
<g id="a_node15"><a xlink:href="class_tasks_1_1_discrete_1_1_landing_gauss.html" target="_top" xlink:title="Tasks::Discrete::Landing\lGauss">
<polygon fill="white" stroke="black" points="633.5,-0.5 633.5,-30.5 767.5,-30.5 767.5,-0.5 633.5,-0.5"/>
<text text-anchor="start" x="641.5" y="-18.5" font-family="Helvetica,sans-Serif" font-size="10.00">Tasks::Discrete::Landing</text>
<text text-anchor="middle" x="700.5" y="-7.5" font-family="Helvetica,sans-Serif" font-size="10.00">Gauss</text>
</a>
</g>
</g>
<!-- Node13&#45;&gt;Node14 -->
<g id="edge14" class="edge"><title>Node13&#45;&gt;Node14</title>
<path fill="none" stroke="midnightblue" d="M596.763,-15.5C608.927,-15.5 621.424,-15.5 633.329,-15.5"/>
<polygon fill="midnightblue" stroke="midnightblue" points="596.644,-12.0001 586.644,-15.5 596.644,-19.0001 596.644,-12.0001"/>
</g>
</g>
</svg>
