<?xml version="1.0" encoding="UTF-8" standalone="no"?>
<!DOCTYPE svg PUBLIC "-//W3C//DTD SVG 1.1//EN"
 "http://www.w3.org/Graphics/SVG/1.1/DTD/svg11.dtd">
<!-- Generated by graphviz version 2.38.0 (20140413.2041)
 -->
<!-- Title: Tasks::ContinuousDiscrete::VanDerPolLinear Pages: 1 -->
<svg width="278pt" height="231pt"
 viewBox="0.00 0.00 277.50 231.00" xmlns="http://www.w3.org/2000/svg" xmlns:xlink="http://www.w3.org/1999/xlink">
<g id="graph0" class="graph" transform="scale(1 1) rotate(0) translate(4 227)">
<title>Tasks::ContinuousDiscrete::VanDerPolLinear</title>
<polygon fill="white" stroke="none" points="-4,4 -4,-227 273.5,-227 273.5,4 -4,4"/>
<!-- Node5 -->
<g id="node1" class="node"><title>Node5</title>
<polygon fill="#bfbfbf" stroke="black" points="54.5,-0.5 54.5,-30.5 199.5,-30.5 199.5,-0.5 54.5,-0.5"/>
<text text-anchor="start" x="62.5" y="-18.5" font-family="Helvetica,sans-Serif" font-size="10.00">Tasks::ContinuousDiscrete</text>
<text text-anchor="middle" x="127" y="-7.5" font-family="Helvetica,sans-Serif" font-size="10.00">::VanDerPolLinear</text>
</g>
<!-- Node6 -->
<g id="node2" class="node"><title>Node6</title>
<g id="a_node2"><a xlink:href="class_core_1_1_continuous_discrete_task.html" target="_top" xlink:title="Базовый тип задач для непрерывно&#45;дискретных фильтров оптимальной структуры. ">
<polygon fill="white" stroke="black" points="46,-68.5 46,-87.5 208,-87.5 208,-68.5 46,-68.5"/>
<text text-anchor="middle" x="127" y="-75.5" font-family="Helvetica,sans-Serif" font-size="10.00">Core::ContinuousDiscreteTask</text>
</a>
</g>
</g>
<!-- Node6&#45;&gt;Node5 -->
<g id="edge1" class="edge"><title>Node6&#45;&gt;Node5</title>
<path fill="none" stroke="midnightblue" d="M127,-58.2154C127,-49.3565 127,-38.9577 127,-30.7587"/>
<polygon fill="midnightblue" stroke="midnightblue" points="123.5,-58.3318 127,-68.3318 130.5,-58.3319 123.5,-58.3318"/>
</g>
<!-- Node7 -->
<g id="node3" class="node"><title>Node7</title>
<g id="a_node3"><a xlink:href="class_core_1_1_task.html" target="_top" xlink:title="Базовый класс для всех задач ">
<polygon fill="white" stroke="black" points="93.5,-125.5 93.5,-144.5 160.5,-144.5 160.5,-125.5 93.5,-125.5"/>
<text text-anchor="middle" x="127" y="-132.5" font-family="Helvetica,sans-Serif" font-size="10.00">Core::Task</text>
</a>
</g>
</g>
<!-- Node7&#45;&gt;Node6 -->
<g id="edge2" class="edge"><title>Node7&#45;&gt;Node6</title>
<path fill="none" stroke="midnightblue" d="M127,-115.117C127,-105.817 127,-95.0557 127,-87.7149"/>
<polygon fill="midnightblue" stroke="midnightblue" points="123.5,-115.406 127,-125.406 130.5,-115.406 123.5,-115.406"/>
</g>
<!-- Node8 -->
<g id="node4" class="node"><title>Node8</title>
<g id="a_node4"><a xlink:href="class_core_1_1_function_time.html" target="_top" xlink:title="Базовый класс для классов, представляющих собой функции времени. ">
<polygon fill="white" stroke="black" points="0,-198 0,-217 110,-217 110,-198 0,-198"/>
<text text-anchor="middle" x="55" y="-205" font-family="Helvetica,sans-Serif" font-size="10.00">Core::FunctionTime</text>
</a>
</g>
</g>
<!-- Node8&#45;&gt;Node7 -->
<g id="edge3" class="edge"><title>Node8&#45;&gt;Node7</title>
<path fill="none" stroke="midnightblue" d="M71.1442,-190.692C85.6456,-176.493 106.402,-156.169 118.099,-144.715"/>
<polygon fill="midnightblue" stroke="midnightblue" points="68.525,-188.358 63.8286,-197.855 73.4224,-193.36 68.525,-188.358"/>
</g>
<!-- Node9 -->
<g id="node5" class="node"><title>Node9</title>
<g id="a_node5"><a xlink:href="class_math_1_1_multivariate_normal_distribution.html" target="_top" xlink:title="Класс&#45;генератор случайных нормальных(гауссовских) векторов. ">
<polygon fill="white" stroke="black" points="128.5,-192.5 128.5,-222.5 269.5,-222.5 269.5,-192.5 128.5,-192.5"/>
<text text-anchor="start" x="136.5" y="-210.5" font-family="Helvetica,sans-Serif" font-size="10.00">Math::MultivariateNormal</text>
<text text-anchor="middle" x="199" y="-199.5" font-family="Helvetica,sans-Serif" font-size="10.00">Distribution</text>
</a>
</g>
</g>
<!-- Node9&#45;&gt;Node7 -->
<g id="edge4" class="edge"><title>Node9&#45;&gt;Node7</title>
<path fill="none" stroke="#9a32cd" stroke-dasharray="5,2" d="M177.182,-185.137C163.411,-171.653 146.345,-154.942 136.082,-144.893"/>
<polygon fill="#9a32cd" stroke="#9a32cd" points="174.836,-187.738 184.43,-192.233 179.733,-182.736 174.836,-187.738"/>
<text text-anchor="middle" x="205" y="-166" font-family="Helvetica,sans-Serif" font-size="10.00"> m_normalRand</text>
</g>
</g>
</svg>
