<?xml version="1.0" encoding="UTF-8" standalone="no"?>
<!DOCTYPE svg PUBLIC "-//W3C//DTD SVG 1.1//EN"
 "http://www.w3.org/Graphics/SVG/1.1/DTD/svg11.dtd">
<!-- Generated by graphviz version 2.38.0 (20140413.2041)
 -->
<!-- Title: Filters::ContinuousDiscrete::AOF Pages: 1 -->
<svg width="181pt" height="231pt"
 viewBox="0.00 0.00 181.00 231.00" xmlns="http://www.w3.org/2000/svg" xmlns:xlink="http://www.w3.org/1999/xlink">
<g id="graph0" class="graph" transform="scale(1 1) rotate(0) translate(4 227)">
<title>Filters::ContinuousDiscrete::AOF</title>
<polygon fill="white" stroke="none" points="-4,4 -4,-227 177,-227 177,4 -4,4"/>
<!-- Node3 -->
<g id="node1" class="node"><title>Node3</title>
<polygon fill="#bfbfbf" stroke="black" points="0,-0.5 0,-19.5 173,-19.5 173,-0.5 0,-0.5"/>
<text text-anchor="middle" x="86.5" y="-7.5" font-family="Helvetica,sans-Serif" font-size="10.00">Filters::ContinuousDiscrete::AOF</text>
</g>
<!-- Node4 -->
<g id="node2" class="node"><title>Node4</title>
<g id="a_node2"><a xlink:href="class_core_1_1_continuous_discrete_filter.html" target="_top" xlink:title="Базовый класс для всех непрерывно&#45;дискретных фильтров оптимальной структуры. ">
<polygon fill="white" stroke="black" points="16.5,-57.5 16.5,-87.5 156.5,-87.5 156.5,-57.5 16.5,-57.5"/>
<text text-anchor="start" x="24.5" y="-75.5" font-family="Helvetica,sans-Serif" font-size="10.00">Core::ContinuousDiscrete</text>
<text text-anchor="middle" x="86.5" y="-64.5" font-family="Helvetica,sans-Serif" font-size="10.00">Filter</text>
</a>
</g>
</g>
<!-- Node4&#45;&gt;Node3 -->
<g id="edge1" class="edge"><title>Node4&#45;&gt;Node3</title>
<path fill="none" stroke="midnightblue" d="M86.5,-47.3524C86.5,-37.5132 86.5,-26.7753 86.5,-19.5399"/>
<polygon fill="midnightblue" stroke="midnightblue" points="83.0001,-47.468 86.5,-57.468 90.0001,-47.4681 83.0001,-47.468"/>
</g>
<!-- Node5 -->
<g id="node3" class="node"><title>Node5</title>
<g id="a_node3"><a xlink:href="class_core_1_1_filter.html" target="_top" xlink:title="Базовый класс для всех фильтров. ">
<polygon fill="white" stroke="black" points="52,-125.5 52,-144.5 121,-144.5 121,-125.5 52,-125.5"/>
<text text-anchor="middle" x="86.5" y="-132.5" font-family="Helvetica,sans-Serif" font-size="10.00">Core::Filter</text>
</a>
</g>
</g>
<!-- Node5&#45;&gt;Node4 -->
<g id="edge2" class="edge"><title>Node5&#45;&gt;Node4</title>
<path fill="none" stroke="midnightblue" d="M86.5,-115.215C86.5,-106.356 86.5,-95.9577 86.5,-87.7587"/>
<polygon fill="midnightblue" stroke="midnightblue" points="83.0001,-115.332 86.5,-125.332 90.0001,-115.332 83.0001,-115.332"/>
</g>
<!-- Node6 -->
<g id="node4" class="node"><title>Node6</title>
<g id="a_node4"><a xlink:href="class_math_1_1_multivariate_normal_distribution.html" target="_top" xlink:title="Класс&#45;генератор случайных нормальных(гауссовских) векторов. ">
<polygon fill="white" stroke="black" points="16,-192.5 16,-222.5 157,-222.5 157,-192.5 16,-192.5"/>
<text text-anchor="start" x="24" y="-210.5" font-family="Helvetica,sans-Serif" font-size="10.00">Math::MultivariateNormal</text>
<text text-anchor="middle" x="86.5" y="-199.5" font-family="Helvetica,sans-Serif" font-size="10.00">Distribution</text>
</a>
</g>
</g>
<!-- Node6&#45;&gt;Node5 -->
<g id="edge3" class="edge"><title>Node6&#45;&gt;Node5</title>
<path fill="none" stroke="#9a32cd" stroke-dasharray="5,2" d="M86.5,-182.091C86.5,-169.214 86.5,-154.197 86.5,-144.893"/>
<polygon fill="#9a32cd" stroke="#9a32cd" points="83.0001,-182.233 86.5,-192.233 90.0001,-182.233 83.0001,-182.233"/>
<text text-anchor="middle" x="125.5" y="-166" font-family="Helvetica,sans-Serif" font-size="10.00"> m_normalRand</text>
</g>
</g>
</svg>
