<?xml version="1.0" encoding="UTF-8" standalone="no"?>
<!DOCTYPE svg PUBLIC "-//W3C//DTD SVG 1.1//EN"
 "http://www.w3.org/Graphics/SVG/1.1/DTD/svg11.dtd">
<!-- Generated by graphviz version 2.38.0 (20140413.2041)
 -->
<!-- Title: Core::ContinuousDiscreteFilter Pages: 1 -->
<svg width="462pt" height="165pt"
 viewBox="0.00 0.00 462.00 165.00" xmlns="http://www.w3.org/2000/svg" xmlns:xlink="http://www.w3.org/1999/xlink">
<g id="graph0" class="graph" transform="scale(1 1) rotate(0) translate(4 161)">
<title>Core::ContinuousDiscreteFilter</title>
<polygon fill="white" stroke="none" points="-4,4 -4,-161 458,-161 458,4 -4,4"/>
<!-- Node0 -->
<g id="node1" class="node"><title>Node0</title>
<polygon fill="#bfbfbf" stroke="black" points="105,-63 105,-93 245,-93 245,-63 105,-63"/>
<text text-anchor="start" x="113" y="-81" font-family="Helvetica,sans-Serif" font-size="10.00">Core::ContinuousDiscrete</text>
<text text-anchor="middle" x="175" y="-70" font-family="Helvetica,sans-Serif" font-size="10.00">Filter</text>
</g>
<!-- Node2 -->
<g id="node3" class="node"><title>Node2</title>
<g id="a_node3"><a xlink:href="class_filters_1_1_continuous_discrete_1_1_a_o_f.html" target="_top" xlink:title="Класс, реализующий непрерывно&#45;дискретный абсолютно оптимальной фильтр. ">
<polygon fill="white" stroke="black" points="281,-137.5 281,-156.5 454,-156.5 454,-137.5 281,-137.5"/>
<text text-anchor="middle" x="367.5" y="-144.5" font-family="Helvetica,sans-Serif" font-size="10.00">Filters::ContinuousDiscrete::AOF</text>
</a>
</g>
</g>
<!-- Node0&#45;&gt;Node2 -->
<g id="edge2" class="edge"><title>Node0&#45;&gt;Node2</title>
<path fill="none" stroke="midnightblue" d="M212.344,-97.8074C232.178,-107.971 257.432,-119.887 281,-128 291.64,-131.663 303.272,-134.795 314.435,-137.399"/>
<polygon fill="midnightblue" stroke="midnightblue" points="213.843,-94.6422 203.356,-93.1323 210.613,-100.852 213.843,-94.6422"/>
</g>
<!-- Node3 -->
<g id="node4" class="node"><title>Node3</title>
<g id="a_node4"><a xlink:href="class_filters_1_1_continuous_discrete_1_1_d_f_o_s.html" target="_top" xlink:title="Класс, реализующий непрерывно&#45;дискретный фильтр оптимальной структуры с дискретным прогнозом...">
<polygon fill="white" stroke="black" points="294,-88 294,-118 441,-118 441,-88 294,-88"/>
<text text-anchor="start" x="302" y="-106" font-family="Helvetica,sans-Serif" font-size="10.00">Filters::ContinuousDiscrete</text>
<text text-anchor="middle" x="367.5" y="-95" font-family="Helvetica,sans-Serif" font-size="10.00">::DFOS</text>
</a>
</g>
</g>
<!-- Node0&#45;&gt;Node3 -->
<g id="edge3" class="edge"><title>Node0&#45;&gt;Node3</title>
<path fill="none" stroke="midnightblue" d="M255.206,-88.3945C268.007,-90.0744 281.205,-91.8064 293.841,-93.4646"/>
<polygon fill="midnightblue" stroke="midnightblue" points="255.415,-84.8919 245.044,-87.0609 254.504,-91.8324 255.415,-84.8919"/>
</g>
<!-- Node4 -->
<g id="node5" class="node"><title>Node4</title>
<g id="a_node5"><a xlink:href="class_filters_1_1_continuous_discrete_1_1_d_f_o_s_b_o.html" target="_top" xlink:title="Класс, реализующий непрерывно&#45;дискретный фильтр оптимальной структуры повышеного порядка. ">
<polygon fill="white" stroke="black" points="294,-39 294,-69 441,-69 441,-39 294,-39"/>
<text text-anchor="start" x="302" y="-57" font-family="Helvetica,sans-Serif" font-size="10.00">Filters::ContinuousDiscrete</text>
<text text-anchor="middle" x="367.5" y="-46" font-family="Helvetica,sans-Serif" font-size="10.00">::DFOSBO</text>
</a>
</g>
</g>
<!-- Node0&#45;&gt;Node4 -->
<g id="edge4" class="edge"><title>Node0&#45;&gt;Node4</title>
<path fill="none" stroke="midnightblue" d="M255.206,-68.0213C268.007,-66.4086 281.205,-64.7458 293.841,-63.1539"/>
<polygon fill="midnightblue" stroke="midnightblue" points="254.528,-64.5789 245.044,-69.3015 255.403,-71.524 254.528,-64.5789"/>
</g>
<!-- Node5 -->
<g id="node6" class="node"><title>Node5</title>
<g id="a_node6"><a xlink:href="class_filters_1_1_continuous_discrete_1_1_f_o_s.html" target="_top" xlink:title="Класс, реализующий непрерывно&#45;дискретный фильтр оптимальной структуры с непрерывным прогнозом...">
<polygon fill="white" stroke="black" points="281.5,-0.5 281.5,-19.5 453.5,-19.5 453.5,-0.5 281.5,-0.5"/>
<text text-anchor="middle" x="367.5" y="-7.5" font-family="Helvetica,sans-Serif" font-size="10.00">Filters::ContinuousDiscrete::FOS</text>
</a>
</g>
</g>
<!-- Node0&#45;&gt;Node5 -->
<g id="edge5" class="edge"><title>Node0&#45;&gt;Node5</title>
<path fill="none" stroke="midnightblue" d="M212.805,-58.4126C232.588,-48.5073 257.652,-36.936 281,-29 291.798,-25.3299 303.607,-22.1794 314.909,-19.5592"/>
<polygon fill="midnightblue" stroke="midnightblue" points="211.161,-55.3221 203.831,-62.9724 214.332,-61.5627 211.161,-55.3221"/>
</g>
<!-- Node1 -->
<g id="node2" class="node"><title>Node1</title>
<g id="a_node2"><a xlink:href="class_core_1_1_filter.html" target="_top" xlink:title="Базовый класс для всех фильтров. ">
<polygon fill="white" stroke="black" points="0,-68.5 0,-87.5 69,-87.5 69,-68.5 0,-68.5"/>
<text text-anchor="middle" x="34.5" y="-75.5" font-family="Helvetica,sans-Serif" font-size="10.00">Core::Filter</text>
</a>
</g>
</g>
<!-- Node1&#45;&gt;Node0 -->
<g id="edge1" class="edge"><title>Node1&#45;&gt;Node0</title>
<path fill="none" stroke="midnightblue" d="M79.1103,-78C87.3421,-78 96.1367,-78 104.928,-78"/>
<polygon fill="midnightblue" stroke="midnightblue" points="79.027,-74.5001 69.027,-78 79.027,-81.5001 79.027,-74.5001"/>
</g>
</g>
</svg>
