<?xml version="1.0" encoding="UTF-8" standalone="no"?>
<!DOCTYPE svg PUBLIC "-//W3C//DTD SVG 1.1//EN"
 "http://www.w3.org/Graphics/SVG/1.1/DTD/svg11.dtd">
<!-- Generated by graphviz version 2.38.0 (20140413.2041)
 -->
<!-- Title: Tasks::Continuous::VanDerPolLinear Pages: 1 -->
<svg width="123pt" height="274pt"
 viewBox="0.00 0.00 123.00 274.00" xmlns="http://www.w3.org/2000/svg" xmlns:xlink="http://www.w3.org/1999/xlink">
<g id="graph0" class="graph" transform="scale(1 1) rotate(0) translate(4 270)">
<title>Tasks::Continuous::VanDerPolLinear</title>
<polygon fill="white" stroke="none" points="-4,4 -4,-270 119,-270 119,4 -4,4"/>
<!-- Node1 -->
<g id="node1" class="node"><title>Node1</title>
<polygon fill="#bfbfbf" stroke="black" points="5,-67.5 5,-97.5 110,-97.5 110,-67.5 5,-67.5"/>
<text text-anchor="start" x="13" y="-85.5" font-family="Helvetica,sans-Serif" font-size="10.00">Tasks::Continuous::</text>
<text text-anchor="middle" x="57.5" y="-74.5" font-family="Helvetica,sans-Serif" font-size="10.00">VanDerPolLinear</text>
</g>
<!-- Node5 -->
<g id="node5" class="node"><title>Node5</title>
<g id="a_node5"><a xlink:href="class_tasks_1_1_continuous_1_1_van_der_pol_gauss.html" target="_top" xlink:title="Осциллятор Ван&#45;дер&#45;Поля (непрерывный, гауссовский) для фильтров оптимальной структуры. ">
<polygon fill="white" stroke="black" points="5,-0.5 5,-30.5 110,-30.5 110,-0.5 5,-0.5"/>
<text text-anchor="start" x="13" y="-18.5" font-family="Helvetica,sans-Serif" font-size="10.00">Tasks::Continuous::</text>
<text text-anchor="middle" x="57.5" y="-7.5" font-family="Helvetica,sans-Serif" font-size="10.00">VanDerPolGauss</text>
</a>
</g>
</g>
<!-- Node1&#45;&gt;Node5 -->
<g id="edge4" class="edge"><title>Node1&#45;&gt;Node5</title>
<path fill="none" stroke="midnightblue" d="M57.5,-57.1081C57.5,-48.1539 57.5,-38.3227 57.5,-30.5765"/>
<polygon fill="midnightblue" stroke="midnightblue" points="54.0001,-57.3959 57.5,-67.396 61.0001,-57.396 54.0001,-57.3959"/>
</g>
<!-- Node2 -->
<g id="node2" class="node"><title>Node2</title>
<g id="a_node2"><a xlink:href="class_core_1_1_continuous_task.html" target="_top" xlink:title="Базовый тип задач для непрерывных фильтров оптимальной структуры. ">
<polygon fill="white" stroke="black" points="-7.10543e-15,-134.5 -7.10543e-15,-153.5 115,-153.5 115,-134.5 -7.10543e-15,-134.5"/>
<text text-anchor="middle" x="57.5" y="-141.5" font-family="Helvetica,sans-Serif" font-size="10.00">Core::ContinuousTask</text>
</a>
</g>
</g>
<!-- Node2&#45;&gt;Node1 -->
<g id="edge1" class="edge"><title>Node2&#45;&gt;Node1</title>
<path fill="none" stroke="midnightblue" d="M57.5,-124.235C57.5,-115.586 57.5,-105.497 57.5,-97.523"/>
<polygon fill="midnightblue" stroke="midnightblue" points="54.0001,-124.475 57.5,-134.475 61.0001,-124.475 54.0001,-124.475"/>
</g>
<!-- Node3 -->
<g id="node3" class="node"><title>Node3</title>
<g id="a_node3"><a xlink:href="class_core_1_1_task.html" target="_top" xlink:title="Базовый класс для всех задач ">
<polygon fill="white" stroke="black" points="25,-190.5 25,-209.5 90,-209.5 90,-190.5 25,-190.5"/>
<text text-anchor="middle" x="57.5" y="-197.5" font-family="Helvetica,sans-Serif" font-size="10.00">Core::Task</text>
</a>
</g>
</g>
<!-- Node3&#45;&gt;Node2 -->
<g id="edge2" class="edge"><title>Node3&#45;&gt;Node2</title>
<path fill="none" stroke="midnightblue" d="M57.5,-179.805C57.5,-170.91 57.5,-160.78 57.5,-153.751"/>
<polygon fill="midnightblue" stroke="midnightblue" points="54.0001,-180.083 57.5,-190.083 61.0001,-180.083 54.0001,-180.083"/>
</g>
<!-- Node4 -->
<g id="node4" class="node"><title>Node4</title>
<g id="a_node4"><a xlink:href="class_core_1_1_function_time.html" target="_top" xlink:title="Базовый класс для классов, представляющих собой функции времени. ">
<polygon fill="white" stroke="black" points="6,-246.5 6,-265.5 109,-265.5 109,-246.5 6,-246.5"/>
<text text-anchor="middle" x="57.5" y="-253.5" font-family="Helvetica,sans-Serif" font-size="10.00">Core::FunctionTime</text>
</a>
</g>
</g>
<!-- Node4&#45;&gt;Node3 -->
<g id="edge3" class="edge"><title>Node4&#45;&gt;Node3</title>
<path fill="none" stroke="midnightblue" d="M57.5,-235.805C57.5,-226.91 57.5,-216.78 57.5,-209.751"/>
<polygon fill="midnightblue" stroke="midnightblue" points="54.0001,-236.083 57.5,-246.083 61.0001,-236.083 54.0001,-236.083"/>
</g>
</g>
</svg>
