<?xml version="1.0" encoding="UTF-8" standalone="no"?>
<!DOCTYPE svg PUBLIC "-//W3C//DTD SVG 1.1//EN"
 "http://www.w3.org/Graphics/SVG/1.1/DTD/svg11.dtd">
<!-- Generated by graphviz version 2.38.0 (20140413.2041)
 -->
<!-- Title: MainWindow Pages: 1 -->
<svg width="869pt" height="236pt"
 viewBox="0.00 0.00 869.00 236.39" xmlns="http://www.w3.org/2000/svg" xmlns:xlink="http://www.w3.org/1999/xlink">
<g id="graph0" class="graph" transform="scale(1 1) rotate(0) translate(4 232.392)">
<title>MainWindow</title>
<polygon fill="white" stroke="none" points="-4,4 -4,-232.392 865,-232.392 865,4 -4,4"/>
<!-- Node2 -->
<g id="node1" class="node"><title>Node2</title>
<polygon fill="#bfbfbf" stroke="black" points="790,-106.713 790,-125.713 861,-125.713 861,-106.713 790,-106.713"/>
<text text-anchor="middle" x="825.5" y="-113.713" font-family="Helvetica,sans-Serif" font-size="10.00">MainWindow</text>
</g>
<!-- Node3 -->
<g id="node2" class="node"><title>Node3</title>
<polygon fill="white" stroke="#bfbfbf" points="304,-195.713 304,-214.713 383,-214.713 383,-195.713 304,-195.713"/>
<text text-anchor="middle" x="343.5" y="-202.713" font-family="Helvetica,sans-Serif" font-size="10.00">QMainWindow</text>
</g>
<!-- Node3&#45;&gt;Node2 -->
<g id="edge1" class="edge"><title>Node3&#45;&gt;Node2</title>
<path fill="none" stroke="midnightblue" d="M393.072,-214.977C476.33,-229.099 649.181,-246.793 772,-180.213 794.994,-167.748 811.829,-140.659 819.64,-126.039"/>
<polygon fill="midnightblue" stroke="midnightblue" points="393.586,-211.514 383.132,-213.235 392.378,-218.409 393.586,-211.514"/>
</g>
<!-- Node9 -->
<g id="node8" class="node"><title>Node9</title>
<g id="a_node8"><a xlink:href="class_graph_window.html" target="_top" xlink:title="Класс, реализующий окно для просмотра графиков. ">
<polygon fill="white" stroke="black" points="556,-164.713 556,-183.713 633,-183.713 633,-164.713 556,-164.713"/>
<text text-anchor="middle" x="594.5" y="-171.713" font-family="Helvetica,sans-Serif" font-size="10.00">GraphWindow</text>
</a>
</g>
</g>
<!-- Node3&#45;&gt;Node9 -->
<g id="edge9" class="edge"><title>Node3&#45;&gt;Node9</title>
<path fill="none" stroke="midnightblue" d="M393.226,-199.146C440.927,-193.208 512.578,-184.287 556,-178.881"/>
<polygon fill="midnightblue" stroke="midnightblue" points="392.624,-195.694 383.133,-200.403 393.489,-202.641 392.624,-195.694"/>
</g>
<!-- Node4 -->
<g id="node3" class="node"><title>Node4</title>
<g id="a_node3"><a xlink:href="class_task_widget.html" target="_top" xlink:title="Виджет для работы с задачами для фильтров. ">
<polygon fill="white" stroke="black" points="560.5,-50.7127 560.5,-69.7127 628.5,-69.7127 628.5,-50.7127 560.5,-50.7127"/>
<text text-anchor="middle" x="594.5" y="-57.7127" font-family="Helvetica,sans-Serif" font-size="10.00">TaskWidget</text>
</a>
</g>
</g>
<!-- Node4&#45;&gt;Node2 -->
<g id="edge2" class="edge"><title>Node4&#45;&gt;Node2</title>
<path fill="none" stroke="#9a32cd" stroke-dasharray="5,2" d="M638.845,-58.8976C675.457,-59.174 728.693,-62.8834 772,-79.2127 788.277,-85.35 804.211,-97.7469 814.177,-106.496"/>
<polygon fill="#9a32cd" stroke="#9a32cd" points="638.511,-55.3978 628.514,-58.9073 638.517,-62.3978 638.511,-55.3978"/>
<text text-anchor="middle" x="722" y="-82.2127" font-family="Helvetica,sans-Serif" font-size="10.00"> m_taskWidget</text>
</g>
<!-- Node5 -->
<g id="node4" class="node"><title>Node5</title>
<polygon fill="white" stroke="#bfbfbf" points="309.5,-90.7127 309.5,-109.713 377.5,-109.713 377.5,-90.7127 309.5,-90.7127"/>
<text text-anchor="middle" x="343.5" y="-97.7127" font-family="Helvetica,sans-Serif" font-size="10.00">QGroupBox</text>
</g>
<!-- Node5&#45;&gt;Node4 -->
<g id="edge3" class="edge"><title>Node5&#45;&gt;Node4</title>
<path fill="none" stroke="midnightblue" d="M387.556,-93.2961C436.624,-85.4138 515.765,-72.7003 560.298,-65.5464"/>
<polygon fill="midnightblue" stroke="midnightblue" points="386.884,-89.8592 377.565,-94.901 387.994,-96.7706 386.884,-89.8592"/>
</g>
<!-- Node12 -->
<g id="node11" class="node"><title>Node12</title>
<g id="a_node11"><a xlink:href="class_filter_start_buttons_box.html" target="_top" xlink:title="Класс виджета, содержащего только кнопки для запуска того или иного фильтра. ">
<polygon fill="white" stroke="black" points="539.5,-88.7127 539.5,-107.713 649.5,-107.713 649.5,-88.7127 539.5,-88.7127"/>
<text text-anchor="middle" x="594.5" y="-95.7127" font-family="Helvetica,sans-Serif" font-size="10.00">FilterStartButtonsBox</text>
</a>
</g>
</g>
<!-- Node5&#45;&gt;Node12 -->
<g id="edge13" class="edge"><title>Node5&#45;&gt;Node12</title>
<path fill="none" stroke="midnightblue" d="M387.762,-99.8653C429.825,-99.5274 493.847,-99.0132 539.288,-98.6482"/>
<polygon fill="midnightblue" stroke="midnightblue" points="387.537,-96.3668 377.565,-99.9472 387.593,-103.367 387.537,-96.3668"/>
</g>
<!-- Node13 -->
<g id="node12" class="node"><title>Node13</title>
<g id="a_node12"><a xlink:href="class_filter_parameters_widget.html" target="_top" xlink:title="Класс виджета, предаставляющего элементы управления параметрами фильтрации. ">
<polygon fill="white" stroke="black" points="535,-126.713 535,-145.713 654,-145.713 654,-126.713 535,-126.713"/>
<text text-anchor="middle" x="594.5" y="-133.713" font-family="Helvetica,sans-Serif" font-size="10.00">FilterParametersWidget</text>
</a>
</g>
</g>
<!-- Node5&#45;&gt;Node13 -->
<g id="edge15" class="edge"><title>Node5&#45;&gt;Node13</title>
<path fill="none" stroke="midnightblue" d="M387.711,-107.833C398.566,-109.671 410.2,-111.576 421,-113.213 458.788,-118.941 501.351,-124.624 534.743,-128.908"/>
<polygon fill="midnightblue" stroke="midnightblue" points="388.042,-104.339 377.595,-106.102 386.861,-111.239 388.042,-104.339"/>
</g>
<!-- Node6 -->
<g id="node5" class="node"><title>Node6</title>
<g id="a_node5"><a xlink:href="class_task_parameters_widget.html" target="_top" xlink:title="Класс виджета, предаставляющего возможность работы с параметрами задач. ">
<polygon fill="white" stroke="black" points="284,-39.7127 284,-58.7127 403,-58.7127 403,-39.7127 284,-39.7127"/>
<text text-anchor="middle" x="343.5" y="-46.7127" font-family="Helvetica,sans-Serif" font-size="10.00">TaskParametersWidget</text>
</a>
</g>
</g>
<!-- Node6&#45;&gt;Node4 -->
<g id="edge4" class="edge"><title>Node6&#45;&gt;Node4</title>
<path fill="none" stroke="#9a32cd" stroke-dasharray="5,2" d="M413.281,-47.6575C444.907,-47.4439 482.894,-47.8937 517,-50.2127 531.299,-51.185 547.009,-53.0915 560.453,-54.9814"/>
<polygon fill="#9a32cd" stroke="#9a32cd" points="413.217,-44.1578 403.25,-47.7486 413.281,-51.1575 413.217,-44.1578"/>
<text text-anchor="middle" x="469" y="-53.2127" font-family="Helvetica,sans-Serif" font-size="10.00"> m_parametersWidget</text>
</g>
<!-- Node7 -->
<g id="node6" class="node"><title>Node7</title>
<polygon fill="white" stroke="#bfbfbf" points="0,-55.7127 0,-74.7127 54,-74.7127 54,-55.7127 0,-55.7127"/>
<text text-anchor="middle" x="27" y="-62.7127" font-family="Helvetica,sans-Serif" font-size="10.00">QWidget</text>
</g>
<!-- Node7&#45;&gt;Node6 -->
<g id="edge5" class="edge"><title>Node7&#45;&gt;Node6</title>
<path fill="none" stroke="midnightblue" d="M64.2054,-70.1875C111.057,-75.7328 195.089,-82.6419 266,-72.2127 283.563,-69.6297 302.688,-63.8797 317.422,-58.7755"/>
<polygon fill="midnightblue" stroke="midnightblue" points="64.5876,-66.7082 54.2351,-68.9608 63.7328,-73.6558 64.5876,-66.7082"/>
</g>
<!-- Node8 -->
<g id="node7" class="node"><title>Node8</title>
<g id="a_node7"><a xlink:href="class_matrix_widget.html" target="_top" xlink:title="Класс для отображения / изменения матриц (или векторов). ">
<polygon fill="white" stroke="black" points="91,-17.7127 91,-36.7127 165,-36.7127 165,-17.7127 91,-17.7127"/>
<text text-anchor="middle" x="128" y="-24.7127" font-family="Helvetica,sans-Serif" font-size="10.00">MatrixWidget</text>
</a>
</g>
</g>
<!-- Node7&#45;&gt;Node8 -->
<g id="edge7" class="edge"><title>Node7&#45;&gt;Node8</title>
<path fill="none" stroke="midnightblue" d="M62.5577,-51.9482C75.5546,-46.9595 90.068,-41.3886 102.026,-36.7987"/>
<polygon fill="midnightblue" stroke="midnightblue" points="61.0635,-48.7726 52.9819,-55.6237 63.572,-55.3078 61.0635,-48.7726"/>
</g>
<!-- Node8&#45;&gt;Node6 -->
<g id="edge6" class="edge"><title>Node8&#45;&gt;Node6</title>
<path fill="none" stroke="#9a32cd" stroke-dasharray="5,2" d="M157.757,-13.7652C165.756,-10.6549 174.566,-7.79504 183,-6.21274 219.256,0.589004 230.314,3.12942 266,-6.21274 290.614,-12.6563 315.669,-28.9918 330.115,-39.5712"/>
<polygon fill="#9a32cd" stroke="#9a32cd" points="156.378,-10.5482 148.483,-17.6141 159.061,-17.0135 156.378,-10.5482"/>
<text text-anchor="middle" x="224.5" y="-64.2127" font-family="Helvetica,sans-Serif" font-size="10.00"> m_meanW</text>
<text text-anchor="middle" x="224.5" y="-53.2127" font-family="Helvetica,sans-Serif" font-size="10.00">m_meanX</text>
<text text-anchor="middle" x="224.5" y="-42.2127" font-family="Helvetica,sans-Serif" font-size="10.00">m_varV</text>
<text text-anchor="middle" x="224.5" y="-31.2127" font-family="Helvetica,sans-Serif" font-size="10.00">m_varW</text>
<text text-anchor="middle" x="224.5" y="-20.2127" font-family="Helvetica,sans-Serif" font-size="10.00">m_varX</text>
<text text-anchor="middle" x="224.5" y="-9.21274" font-family="Helvetica,sans-Serif" font-size="10.00">m_meanV</text>
</g>
<!-- Node9&#45;&gt;Node2 -->
<g id="edge8" class="edge"><title>Node9&#45;&gt;Node2</title>
<path fill="none" stroke="#9a32cd" stroke-dasharray="5,2" d="M643.396,-169.746C679.455,-165.445 729.729,-157.43 772,-143.213 785.018,-138.835 798.792,-131.642 808.964,-125.781"/>
<polygon fill="#9a32cd" stroke="#9a32cd" points="642.694,-166.303 633.154,-170.914 643.487,-173.258 642.694,-166.303"/>
<text text-anchor="middle" x="722" y="-168.213" font-family="Helvetica,sans-Serif" font-size="10.00"> m_graphWindow</text>
</g>
<!-- Node10 -->
<g id="node9" class="node"><title>Node10</title>
<g id="a_node9"><a xlink:href="class_graph_sheet.html" target="_top" xlink:title="Класс, реализующий &quot;страницу&quot; окна графиков. ">
<polygon fill="white" stroke="black" points="309.5,-151.713 309.5,-170.713 377.5,-170.713 377.5,-151.713 309.5,-151.713"/>
<text text-anchor="middle" x="343.5" y="-158.713" font-family="Helvetica,sans-Serif" font-size="10.00">GraphSheet</text>
</a>
</g>
</g>
<!-- Node10&#45;&gt;Node9 -->
<g id="edge10" class="edge"><title>Node10&#45;&gt;Node9</title>
<path fill="none" stroke="#9a32cd" stroke-dasharray="5,2" d="M387.955,-159.669C422.883,-158.861 473.175,-158.669 517,-162.213 529.73,-163.242 543.547,-165.16 555.891,-167.165"/>
<polygon fill="#9a32cd" stroke="#9a32cd" points="387.539,-156.179 377.633,-159.936 387.72,-163.176 387.539,-156.179"/>
<text text-anchor="middle" x="469" y="-165.213" font-family="Helvetica,sans-Serif" font-size="10.00"> m_currentSheet</text>
</g>
<!-- Node11 -->
<g id="node10" class="node"><title>Node11</title>
<g id="a_node10"><a xlink:href="struct_g_axis_range.html" target="_top" xlink:title="Структура для хранения границ осей координат. ">
<polygon fill="white" stroke="black" points="92.5,-151.713 92.5,-170.713 163.5,-170.713 163.5,-151.713 92.5,-151.713"/>
<text text-anchor="middle" x="128" y="-158.713" font-family="Helvetica,sans-Serif" font-size="10.00">GAxisRange</text>
</a>
</g>
</g>
<!-- Node11&#45;&gt;Node10 -->
<g id="edge11" class="edge"><title>Node11&#45;&gt;Node10</title>
<path fill="none" stroke="#9a32cd" stroke-dasharray="5,2" d="M173.923,-161.213C214.455,-161.213 273.134,-161.213 309.493,-161.213"/>
<polygon fill="#9a32cd" stroke="#9a32cd" points="173.778,-157.713 163.778,-161.213 173.778,-164.713 173.778,-157.713"/>
<text text-anchor="middle" x="224.5" y="-175.213" font-family="Helvetica,sans-Serif" font-size="10.00"> m_userAxisRange</text>
<text text-anchor="middle" x="224.5" y="-164.213" font-family="Helvetica,sans-Serif" font-size="10.00">m_axisRange</text>
</g>
<!-- Node12&#45;&gt;Node2 -->
<g id="edge12" class="edge"><title>Node12&#45;&gt;Node2</title>
<path fill="none" stroke="#9a32cd" stroke-dasharray="5,2" d="M660.018,-95.2899C693.584,-94.782 735.188,-95.7377 772,-101.213 779.97,-102.398 788.435,-104.45 796.188,-106.662"/>
<polygon fill="#9a32cd" stroke="#9a32cd" points="659.802,-91.7934 649.874,-95.4911 659.941,-98.792 659.802,-91.7934"/>
<text text-anchor="middle" x="722" y="-104.213" font-family="Helvetica,sans-Serif" font-size="10.00"> m_filterStartWidget</text>
</g>
<!-- Node13&#45;&gt;Node2 -->
<g id="edge14" class="edge"><title>Node13&#45;&gt;Node2</title>
<path fill="none" stroke="#9a32cd" stroke-dasharray="5,2" d="M664.213,-130.212C705.644,-126.593 756.65,-122.139 789.838,-119.24"/>
<polygon fill="#9a32cd" stroke="#9a32cd" points="663.833,-126.731 654.176,-131.088 664.442,-133.705 663.833,-126.731"/>
<text text-anchor="middle" x="722" y="-131.213" font-family="Helvetica,sans-Serif" font-size="10.00"> m_filterParamsWidget</text>
</g>
<!-- Node14 -->
<g id="node13" class="node"><title>Node14</title>
<g id="a_node13"><a xlink:href="class_color_manager.html" target="_top" xlink:title="Класс для управления набором цветов. ">
<polygon fill="white" stroke="black" points="556,-12.7127 556,-31.7127 633,-31.7127 633,-12.7127 556,-12.7127"/>
<text text-anchor="middle" x="594.5" y="-19.7127" font-family="Helvetica,sans-Serif" font-size="10.00">ColorManager</text>
</a>
</g>
</g>
<!-- Node14&#45;&gt;Node2 -->
<g id="edge16" class="edge"><title>Node14&#45;&gt;Node2</title>
<path fill="none" stroke="#9a32cd" stroke-dasharray="5,2" d="M643.198,-18.2449C680.707,-17.3533 732.968,-21.2177 772,-44.2127 796.925,-58.8969 813.45,-90.5465 820.546,-106.541"/>
<polygon fill="#9a32cd" stroke="#9a32cd" points="642.901,-14.7532 633.034,-18.6105 643.153,-21.7487 642.901,-14.7532"/>
<text text-anchor="middle" x="722" y="-47.2127" font-family="Helvetica,sans-Serif" font-size="10.00"> m_colorManager</text>
</g>
</g>
</svg>
