<?xml version="1.0" encoding="UTF-8" standalone="no"?>
<!DOCTYPE svg PUBLIC "-//W3C//DTD SVG 1.1//EN"
 "http://www.w3.org/Graphics/SVG/1.1/DTD/svg11.dtd">
<!-- Generated by graphviz version 2.38.0 (20140413.2041)
 -->
<!-- Title: Filters::Continuous::FOS Pages: 1 -->
<svg width="139pt" height="140pt"
 viewBox="0.00 0.00 139.00 140.00" xmlns="http://www.w3.org/2000/svg" xmlns:xlink="http://www.w3.org/1999/xlink">
<g id="graph0" class="graph" transform="scale(1 1) rotate(0) translate(4 136)">
<title>Filters::Continuous::FOS</title>
<polygon fill="white" stroke="none" points="-4,4 -4,-136 135,-136 135,4 -4,4"/>
<!-- Node3 -->
<g id="node1" class="node"><title>Node3</title>
<polygon fill="#bfbfbf" stroke="black" points="0,-0.5 0,-19.5 131,-19.5 131,-0.5 0,-0.5"/>
<text text-anchor="middle" x="65.5" y="-7.5" font-family="Helvetica,sans-Serif" font-size="10.00">Filters::Continuous::FOS</text>
</g>
<!-- Node4 -->
<g id="node2" class="node"><title>Node4</title>
<g id="a_node2"><a xlink:href="class_core_1_1_continuous_filter.html" target="_top" xlink:title="Базовый класс для всех непрерывныз фильтров оптимальной структуры. ">
<polygon fill="white" stroke="black" points="3.5,-56.5 3.5,-75.5 127.5,-75.5 127.5,-56.5 3.5,-56.5"/>
<text text-anchor="middle" x="65.5" y="-63.5" font-family="Helvetica,sans-Serif" font-size="10.00">Core::ContinuousFilter</text>
</a>
</g>
</g>
<!-- Node4&#45;&gt;Node3 -->
<g id="edge1" class="edge"><title>Node4&#45;&gt;Node3</title>
<path fill="none" stroke="midnightblue" d="M65.5,-45.8045C65.5,-36.9102 65.5,-26.7798 65.5,-19.7511"/>
<polygon fill="midnightblue" stroke="midnightblue" points="62.0001,-46.083 65.5,-56.083 69.0001,-46.083 62.0001,-46.083"/>
</g>
<!-- Node5 -->
<g id="node3" class="node"><title>Node5</title>
<g id="a_node3"><a xlink:href="class_core_1_1_filter.html" target="_top" xlink:title="Базовый класс для всех фильтров. ">
<polygon fill="white" stroke="black" points="31,-112.5 31,-131.5 100,-131.5 100,-112.5 31,-112.5"/>
<text text-anchor="middle" x="65.5" y="-119.5" font-family="Helvetica,sans-Serif" font-size="10.00">Core::Filter</text>
</a>
</g>
</g>
<!-- Node5&#45;&gt;Node4 -->
<g id="edge2" class="edge"><title>Node5&#45;&gt;Node4</title>
<path fill="none" stroke="midnightblue" d="M65.5,-101.805C65.5,-92.9102 65.5,-82.7798 65.5,-75.7511"/>
<polygon fill="midnightblue" stroke="midnightblue" points="62.0001,-102.083 65.5,-112.083 69.0001,-102.083 62.0001,-102.083"/>
</g>
</g>
</svg>
