<?xml version="1.0" encoding="UTF-8" standalone="no"?>
<!DOCTYPE svg PUBLIC "-//W3C//DTD SVG 1.1//EN"
 "http://www.w3.org/Graphics/SVG/1.1/DTD/svg11.dtd">
<!-- Generated by graphviz version 2.38.0 (20140413.2041)
 -->
<!-- Title: Filters::ContinuousDiscrete::FOS Pages: 1 -->
<svg width="180pt" height="151pt"
 viewBox="0.00 0.00 180.00 151.00" xmlns="http://www.w3.org/2000/svg" xmlns:xlink="http://www.w3.org/1999/xlink">
<g id="graph0" class="graph" transform="scale(1 1) rotate(0) translate(4 147)">
<title>Filters::ContinuousDiscrete::FOS</title>
<polygon fill="white" stroke="none" points="-4,4 -4,-147 176,-147 176,4 -4,4"/>
<!-- Node0 -->
<g id="node1" class="node"><title>Node0</title>
<polygon fill="#bfbfbf" stroke="black" points="0,-0.5 0,-19.5 172,-19.5 172,-0.5 0,-0.5"/>
<text text-anchor="middle" x="86" y="-7.5" font-family="Helvetica,sans-Serif" font-size="10.00">Filters::ContinuousDiscrete::FOS</text>
</g>
<!-- Node1 -->
<g id="node2" class="node"><title>Node1</title>
<g id="a_node2"><a xlink:href="class_core_1_1_continuous_discrete_filter.html" target="_top" xlink:title="Базовый класс для всех непрерывно&#45;дискретных фильтров оптимальной структуры. ">
<polygon fill="white" stroke="black" points="16,-56.5 16,-86.5 156,-86.5 156,-56.5 16,-56.5"/>
<text text-anchor="start" x="24" y="-74.5" font-family="Helvetica,sans-Serif" font-size="10.00">Core::ContinuousDiscrete</text>
<text text-anchor="middle" x="86" y="-63.5" font-family="Helvetica,sans-Serif" font-size="10.00">Filter</text>
</a>
</g>
</g>
<!-- Node1&#45;&gt;Node0 -->
<g id="edge1" class="edge"><title>Node1&#45;&gt;Node0</title>
<path fill="none" stroke="midnightblue" d="M86,-46.2892C86,-36.857 86,-26.6548 86,-19.6578"/>
<polygon fill="midnightblue" stroke="midnightblue" points="82.5001,-46.3993 86,-56.3993 89.5001,-46.3994 82.5001,-46.3993"/>
</g>
<!-- Node2 -->
<g id="node3" class="node"><title>Node2</title>
<g id="a_node3"><a xlink:href="class_core_1_1_filter.html" target="_top" xlink:title="Базовый класс для всех фильтров. ">
<polygon fill="white" stroke="black" points="51.5,-123.5 51.5,-142.5 120.5,-142.5 120.5,-123.5 51.5,-123.5"/>
<text text-anchor="middle" x="86" y="-130.5" font-family="Helvetica,sans-Serif" font-size="10.00">Core::Filter</text>
</a>
</g>
</g>
<!-- Node2&#45;&gt;Node1 -->
<g id="edge2" class="edge"><title>Node2&#45;&gt;Node1</title>
<path fill="none" stroke="midnightblue" d="M86,-113.235C86,-104.586 86,-94.4969 86,-86.523"/>
<polygon fill="midnightblue" stroke="midnightblue" points="82.5001,-113.475 86,-123.475 89.5001,-113.475 82.5001,-113.475"/>
</g>
</g>
</svg>
