<?xml version="1.0" encoding="UTF-8" standalone="no"?>
<!DOCTYPE svg PUBLIC "-//W3C//DTD SVG 1.1//EN"
 "http://www.w3.org/Graphics/SVG/1.1/DTD/svg11.dtd">
<!-- Generated by graphviz version 2.38.0 (20140413.2041)
 -->
<!-- Title: GraphWindow Pages: 1 -->
<svg width="223pt" height="173pt"
 viewBox="0.00 0.00 222.50 173.00" xmlns="http://www.w3.org/2000/svg" xmlns:xlink="http://www.w3.org/1999/xlink">
<g id="graph0" class="graph" transform="scale(1 1) rotate(0) translate(4 169)">
<title>GraphWindow</title>
<polygon fill="white" stroke="none" points="-4,4 -4,-169 218.5,-169 218.5,4 -4,4"/>
<!-- Node2 -->
<g id="node1" class="node"><title>Node2</title>
<polygon fill="#bfbfbf" stroke="black" points="32,-0.5 32,-19.5 109,-19.5 109,-0.5 32,-0.5"/>
<text text-anchor="middle" x="70.5" y="-7.5" font-family="Helvetica,sans-Serif" font-size="10.00">GraphWindow</text>
</g>
<!-- Node3 -->
<g id="node2" class="node"><title>Node3</title>
<polygon fill="white" stroke="#bfbfbf" points="0,-67.5 0,-86.5 79,-86.5 79,-67.5 0,-67.5"/>
<text text-anchor="middle" x="39.5" y="-74.5" font-family="Helvetica,sans-Serif" font-size="10.00">QMainWindow</text>
</g>
<!-- Node3&#45;&gt;Node2 -->
<g id="edge1" class="edge"><title>Node3&#45;&gt;Node2</title>
<path fill="none" stroke="midnightblue" d="M48.0067,-58.1635C53.9851,-45.6281 61.7197,-29.4104 66.3854,-19.6273"/>
<polygon fill="midnightblue" stroke="midnightblue" points="44.8265,-56.7011 43.6808,-67.2338 51.1447,-59.7144 44.8265,-56.7011"/>
</g>
<!-- Node4 -->
<g id="node3" class="node"><title>Node4</title>
<g id="a_node3"><a xlink:href="class_graph_sheet.html" target="_top" xlink:title="Класс, реализующий &quot;страницу&quot; окна графиков. ">
<polygon fill="white" stroke="black" points="97.5,-67.5 97.5,-86.5 165.5,-86.5 165.5,-67.5 97.5,-67.5"/>
<text text-anchor="middle" x="131.5" y="-74.5" font-family="Helvetica,sans-Serif" font-size="10.00">GraphSheet</text>
</a>
</g>
</g>
<!-- Node4&#45;&gt;Node2 -->
<g id="edge2" class="edge"><title>Node4&#45;&gt;Node2</title>
<path fill="none" stroke="#9a32cd" stroke-dasharray="5,2" d="M116.142,-59.6348C104.212,-46.9228 88.141,-29.7978 78.5964,-19.6273"/>
<polygon fill="#9a32cd" stroke="#9a32cd" points="113.878,-62.337 123.273,-67.2338 118.982,-57.5468 113.878,-62.337"/>
<text text-anchor="middle" x="141" y="-41" font-family="Helvetica,sans-Serif" font-size="10.00"> m_currentSheet</text>
</g>
<!-- Node5 -->
<g id="node4" class="node"><title>Node5</title>
<g id="a_node4"><a xlink:href="struct_g_axis_range.html" target="_top" xlink:title="Структура для хранения границ осей координат. ">
<polygon fill="white" stroke="black" points="96,-145.5 96,-164.5 167,-164.5 167,-145.5 96,-145.5"/>
<text text-anchor="middle" x="131.5" y="-152.5" font-family="Helvetica,sans-Serif" font-size="10.00">GAxisRange</text>
</a>
</g>
</g>
<!-- Node5&#45;&gt;Node4 -->
<g id="edge3" class="edge"><title>Node5&#45;&gt;Node4</title>
<path fill="none" stroke="#9a32cd" stroke-dasharray="5,2" d="M131.5,-135.224C131.5,-119.697 131.5,-98.3582 131.5,-86.6165"/>
<polygon fill="#9a32cd" stroke="#9a32cd" points="128,-135.282 131.5,-145.282 135,-135.282 128,-135.282"/>
<text text-anchor="middle" x="173" y="-119" font-family="Helvetica,sans-Serif" font-size="10.00"> m_userAxisRange</text>
<text text-anchor="middle" x="173" y="-108" font-family="Helvetica,sans-Serif" font-size="10.00">m_axisRange</text>
</g>
</g>
</svg>
