<?xml version="1.0" encoding="UTF-8" standalone="no"?>
<!DOCTYPE svg PUBLIC "-//W3C//DTD SVG 1.1//EN"
 "http://www.w3.org/Graphics/SVG/1.1/DTD/svg11.dtd">
<!-- Generated by graphviz version 2.38.0 (20140413.2041)
 -->
<!-- Title: Tasks::Continuous::VanDerPolGauss Pages: 1 -->
<svg width="121pt" height="274pt"
 viewBox="0.00 0.00 121.00 274.00" xmlns="http://www.w3.org/2000/svg" xmlns:xlink="http://www.w3.org/1999/xlink">
<g id="graph0" class="graph" transform="scale(1 1) rotate(0) translate(4 270)">
<title>Tasks::Continuous::VanDerPolGauss</title>
<polygon fill="white" stroke="none" points="-4,4 -4,-270 117,-270 117,4 -4,4"/>
<!-- Node5 -->
<g id="node1" class="node"><title>Node5</title>
<polygon fill="#bfbfbf" stroke="black" points="4.5,-0.5 4.5,-30.5 108.5,-30.5 108.5,-0.5 4.5,-0.5"/>
<text text-anchor="start" x="12.5" y="-18.5" font-family="Helvetica,sans-Serif" font-size="10.00">Tasks::Continuous::</text>
<text text-anchor="middle" x="56.5" y="-7.5" font-family="Helvetica,sans-Serif" font-size="10.00">VanDerPolGauss</text>
</g>
<!-- Node6 -->
<g id="node2" class="node"><title>Node6</title>
<g id="a_node2"><a xlink:href="class_tasks_1_1_continuous_1_1_van_der_pol_linear.html" target="_top" xlink:title="Осциллятор Ван&#45;дер&#45;Поля (непрерывный, линеаризованный) для фильтров оптимальной структуры. ">
<polygon fill="white" stroke="black" points="4.5,-67.5 4.5,-97.5 108.5,-97.5 108.5,-67.5 4.5,-67.5"/>
<text text-anchor="start" x="12.5" y="-85.5" font-family="Helvetica,sans-Serif" font-size="10.00">Tasks::Continuous::</text>
<text text-anchor="middle" x="56.5" y="-74.5" font-family="Helvetica,sans-Serif" font-size="10.00">VanDerPolLinear</text>
</a>
</g>
</g>
<!-- Node6&#45;&gt;Node5 -->
<g id="edge1" class="edge"><title>Node6&#45;&gt;Node5</title>
<path fill="none" stroke="midnightblue" d="M56.5,-57.1081C56.5,-48.1539 56.5,-38.3227 56.5,-30.5765"/>
<polygon fill="midnightblue" stroke="midnightblue" points="53.0001,-57.3959 56.5,-67.396 60.0001,-57.396 53.0001,-57.3959"/>
</g>
<!-- Node7 -->
<g id="node3" class="node"><title>Node7</title>
<g id="a_node3"><a xlink:href="class_core_1_1_continuous_task.html" target="_top" xlink:title="Базовый тип задач для непрерывных фильтров оптимальной структуры. ">
<polygon fill="white" stroke="black" points="0,-134.5 0,-153.5 113,-153.5 113,-134.5 0,-134.5"/>
<text text-anchor="middle" x="56.5" y="-141.5" font-family="Helvetica,sans-Serif" font-size="10.00">Core::ContinuousTask</text>
</a>
</g>
</g>
<!-- Node7&#45;&gt;Node6 -->
<g id="edge2" class="edge"><title>Node7&#45;&gt;Node6</title>
<path fill="none" stroke="midnightblue" d="M56.5,-124.235C56.5,-115.586 56.5,-105.497 56.5,-97.523"/>
<polygon fill="midnightblue" stroke="midnightblue" points="53.0001,-124.475 56.5,-134.475 60.0001,-124.475 53.0001,-124.475"/>
</g>
<!-- Node8 -->
<g id="node4" class="node"><title>Node8</title>
<g id="a_node4"><a xlink:href="class_core_1_1_task.html" target="_top" xlink:title="Базовый класс для всех задач ">
<polygon fill="white" stroke="black" points="24,-190.5 24,-209.5 89,-209.5 89,-190.5 24,-190.5"/>
<text text-anchor="middle" x="56.5" y="-197.5" font-family="Helvetica,sans-Serif" font-size="10.00">Core::Task</text>
</a>
</g>
</g>
<!-- Node8&#45;&gt;Node7 -->
<g id="edge3" class="edge"><title>Node8&#45;&gt;Node7</title>
<path fill="none" stroke="midnightblue" d="M56.5,-179.805C56.5,-170.91 56.5,-160.78 56.5,-153.751"/>
<polygon fill="midnightblue" stroke="midnightblue" points="53.0001,-180.083 56.5,-190.083 60.0001,-180.083 53.0001,-180.083"/>
</g>
<!-- Node9 -->
<g id="node5" class="node"><title>Node9</title>
<g id="a_node5"><a xlink:href="class_core_1_1_function_time.html" target="_top" xlink:title="Базовый класс для классов, представляющих собой функции времени. ">
<polygon fill="white" stroke="black" points="5.5,-246.5 5.5,-265.5 107.5,-265.5 107.5,-246.5 5.5,-246.5"/>
<text text-anchor="middle" x="56.5" y="-253.5" font-family="Helvetica,sans-Serif" font-size="10.00">Core::FunctionTime</text>
</a>
</g>
</g>
<!-- Node9&#45;&gt;Node8 -->
<g id="edge4" class="edge"><title>Node9&#45;&gt;Node8</title>
<path fill="none" stroke="midnightblue" d="M56.5,-235.805C56.5,-226.91 56.5,-216.78 56.5,-209.751"/>
<polygon fill="midnightblue" stroke="midnightblue" points="53.0001,-236.083 56.5,-246.083 60.0001,-236.083 53.0001,-236.083"/>
</g>
</g>
</svg>
