<?xml version="1.0" encoding="UTF-8" standalone="no"?>
<!DOCTYPE svg PUBLIC "-//W3C//DTD SVG 1.1//EN"
 "http://www.w3.org/Graphics/SVG/1.1/DTD/svg11.dtd">
<!-- Generated by graphviz version 2.38.0 (20140413.2041)
 -->
<!-- Title: Core::ContinuousFilter Pages: 1 -->
<svg width="290pt" height="140pt"
 viewBox="0.00 0.00 289.50 140.00" xmlns="http://www.w3.org/2000/svg" xmlns:xlink="http://www.w3.org/1999/xlink">
<g id="graph0" class="graph" transform="scale(1 1) rotate(0) translate(4 136)">
<title>Core::ContinuousFilter</title>
<polygon fill="white" stroke="none" points="-4,4 -4,-136 285.5,-136 285.5,4 -4,4"/>
<!-- Node0 -->
<g id="node1" class="node"><title>Node0</title>
<polygon fill="#bfbfbf" stroke="black" points="79,-56.5 79,-75.5 203,-75.5 203,-56.5 79,-56.5"/>
<text text-anchor="middle" x="141" y="-63.5" font-family="Helvetica,sans-Serif" font-size="10.00">Core::ContinuousFilter</text>
</g>
<!-- Node2 -->
<g id="node3" class="node"><title>Node2</title>
<g id="a_node3"><a xlink:href="class_filters_1_1_continuous_1_1_a_o_f.html" target="_top" xlink:title="Класс, реализующий непрерывный абсолютно оптимальный фильтр. ">
<polygon fill="white" stroke="black" points="0,-0.5 0,-19.5 132,-19.5 132,-0.5 0,-0.5"/>
<text text-anchor="middle" x="66" y="-7.5" font-family="Helvetica,sans-Serif" font-size="10.00">Filters::Continuous::AOF</text>
</a>
</g>
</g>
<!-- Node0&#45;&gt;Node2 -->
<g id="edge2" class="edge"><title>Node0&#45;&gt;Node2</title>
<path fill="none" stroke="midnightblue" d="M120.695,-50.3804C107.139,-40.6204 89.7579,-28.1057 78.2693,-19.8339"/>
<polygon fill="midnightblue" stroke="midnightblue" points="118.79,-53.3213 128.95,-56.324 122.88,-47.6405 118.79,-53.3213"/>
</g>
<!-- Node3 -->
<g id="node4" class="node"><title>Node3</title>
<g id="a_node4"><a xlink:href="class_filters_1_1_continuous_1_1_f_o_s.html" target="_top" xlink:title="Класс, реализующий непрерывный фильтр оптимальной структуры. ">
<polygon fill="white" stroke="black" points="150.5,-0.5 150.5,-19.5 281.5,-19.5 281.5,-0.5 150.5,-0.5"/>
<text text-anchor="middle" x="216" y="-7.5" font-family="Helvetica,sans-Serif" font-size="10.00">Filters::Continuous::FOS</text>
</a>
</g>
</g>
<!-- Node0&#45;&gt;Node3 -->
<g id="edge3" class="edge"><title>Node0&#45;&gt;Node3</title>
<path fill="none" stroke="midnightblue" d="M161.305,-50.3804C174.861,-40.6204 192.242,-28.1057 203.731,-19.8339"/>
<polygon fill="midnightblue" stroke="midnightblue" points="159.12,-47.6405 153.05,-56.324 163.21,-53.3213 159.12,-47.6405"/>
</g>
<!-- Node1 -->
<g id="node2" class="node"><title>Node1</title>
<g id="a_node2"><a xlink:href="class_core_1_1_filter.html" target="_top" xlink:title="Базовый класс для всех фильтров. ">
<polygon fill="white" stroke="black" points="106.5,-112.5 106.5,-131.5 175.5,-131.5 175.5,-112.5 106.5,-112.5"/>
<text text-anchor="middle" x="141" y="-119.5" font-family="Helvetica,sans-Serif" font-size="10.00">Core::Filter</text>
</a>
</g>
</g>
<!-- Node1&#45;&gt;Node0 -->
<g id="edge1" class="edge"><title>Node1&#45;&gt;Node0</title>
<path fill="none" stroke="midnightblue" d="M141,-101.805C141,-92.9102 141,-82.7798 141,-75.7511"/>
<polygon fill="midnightblue" stroke="midnightblue" points="137.5,-102.083 141,-112.083 144.5,-102.083 137.5,-102.083"/>
</g>
</g>
</svg>
