<?xml version="1.0" encoding="UTF-8" standalone="no"?>
<!DOCTYPE svg PUBLIC "-//W3C//DTD SVG 1.1//EN"
 "http://www.w3.org/Graphics/SVG/1.1/DTD/svg11.dtd">
<!-- Generated by graphviz version 2.38.0 (20140413.2041)
 -->
<!-- Title: Core::ContinuousTask Pages: 1 -->
<svg width="278pt" height="163pt"
 viewBox="0.00 0.00 277.50 163.00" xmlns="http://www.w3.org/2000/svg" xmlns:xlink="http://www.w3.org/1999/xlink">
<g id="graph0" class="graph" transform="scale(1 1) rotate(0) translate(4 159)">
<title>Core::ContinuousTask</title>
<polygon fill="white" stroke="none" points="-4,4 -4,-159 273.5,-159 273.5,4 -4,4"/>
<!-- Node7 -->
<g id="node1" class="node"><title>Node7</title>
<polygon fill="#bfbfbf" stroke="black" points="66,-0.5 66,-19.5 188,-19.5 188,-0.5 66,-0.5"/>
<text text-anchor="middle" x="127" y="-7.5" font-family="Helvetica,sans-Serif" font-size="10.00">Core::ContinuousTask</text>
</g>
<!-- Node8 -->
<g id="node2" class="node"><title>Node8</title>
<g id="a_node2"><a xlink:href="class_core_1_1_task.html" target="_top" xlink:title="Базовый класс для всех задач ">
<polygon fill="white" stroke="black" points="93.5,-57.5 93.5,-76.5 160.5,-76.5 160.5,-57.5 93.5,-57.5"/>
<text text-anchor="middle" x="127" y="-64.5" font-family="Helvetica,sans-Serif" font-size="10.00">Core::Task</text>
</a>
</g>
</g>
<!-- Node8&#45;&gt;Node7 -->
<g id="edge1" class="edge"><title>Node8&#45;&gt;Node7</title>
<path fill="none" stroke="midnightblue" d="M127,-47.1166C127,-37.8173 127,-27.0557 127,-19.7149"/>
<polygon fill="midnightblue" stroke="midnightblue" points="123.5,-47.4062 127,-57.4062 130.5,-47.4063 123.5,-47.4062"/>
</g>
<!-- Node9 -->
<g id="node3" class="node"><title>Node9</title>
<g id="a_node3"><a xlink:href="class_core_1_1_function_time.html" target="_top" xlink:title="Базовый класс для классов, представляющих собой функции времени. ">
<polygon fill="white" stroke="black" points="0,-130 0,-149 110,-149 110,-130 0,-130"/>
<text text-anchor="middle" x="55" y="-137" font-family="Helvetica,sans-Serif" font-size="10.00">Core::FunctionTime</text>
</a>
</g>
</g>
<!-- Node9&#45;&gt;Node8 -->
<g id="edge2" class="edge"><title>Node9&#45;&gt;Node8</title>
<path fill="none" stroke="midnightblue" d="M71.1442,-122.692C85.6456,-108.493 106.402,-88.1687 118.099,-76.7154"/>
<polygon fill="midnightblue" stroke="midnightblue" points="68.525,-120.358 63.8286,-129.855 73.4224,-125.36 68.525,-120.358"/>
</g>
<!-- Node10 -->
<g id="node4" class="node"><title>Node10</title>
<g id="a_node4"><a xlink:href="class_math_1_1_multivariate_normal_distribution.html" target="_top" xlink:title="Класс&#45;генератор случайных нормальных(гауссовских) векторов. ">
<polygon fill="white" stroke="black" points="128.5,-124.5 128.5,-154.5 269.5,-154.5 269.5,-124.5 128.5,-124.5"/>
<text text-anchor="start" x="136.5" y="-142.5" font-family="Helvetica,sans-Serif" font-size="10.00">Math::MultivariateNormal</text>
<text text-anchor="middle" x="199" y="-131.5" font-family="Helvetica,sans-Serif" font-size="10.00">Distribution</text>
</a>
</g>
</g>
<!-- Node10&#45;&gt;Node8 -->
<g id="edge3" class="edge"><title>Node10&#45;&gt;Node8</title>
<path fill="none" stroke="#9a32cd" stroke-dasharray="5,2" d="M177.182,-117.137C163.411,-103.653 146.345,-86.9417 136.082,-76.8932"/>
<polygon fill="#9a32cd" stroke="#9a32cd" points="174.836,-119.738 184.43,-124.233 179.733,-114.736 174.836,-119.738"/>
<text text-anchor="middle" x="205" y="-98" font-family="Helvetica,sans-Serif" font-size="10.00"> m_normalRand</text>
</g>
</g>
</svg>
