<?xml version="1.0" encoding="UTF-8" standalone="no"?>
<!DOCTYPE svg PUBLIC "-//W3C//DTD SVG 1.1//EN"
 "http://www.w3.org/Graphics/SVG/1.1/DTD/svg11.dtd">
<!-- Generated by graphviz version 2.38.0 (20140413.2041)
 -->
<!-- Title: Tasks::Discrete::LandingGauss Pages: 1 -->
<svg width="133pt" height="274pt"
 viewBox="0.00 0.00 133.00 274.00" xmlns="http://www.w3.org/2000/svg" xmlns:xlink="http://www.w3.org/1999/xlink">
<g id="graph0" class="graph" transform="scale(1 1) rotate(0) translate(4 270)">
<title>Tasks::Discrete::LandingGauss</title>
<polygon fill="white" stroke="none" points="-4,4 -4,-270 129,-270 129,4 -4,4"/>
<!-- Node0 -->
<g id="node1" class="node"><title>Node0</title>
<polygon fill="#bfbfbf" stroke="black" points="-7.10543e-15,-0.5 -7.10543e-15,-30.5 125,-30.5 125,-0.5 -7.10543e-15,-0.5"/>
<text text-anchor="start" x="8" y="-18.5" font-family="Helvetica,sans-Serif" font-size="10.00">Tasks::Discrete::Landing</text>
<text text-anchor="middle" x="62.5" y="-7.5" font-family="Helvetica,sans-Serif" font-size="10.00">Gauss</text>
</g>
<!-- Node1 -->
<g id="node2" class="node"><title>Node1</title>
<g id="a_node2"><a xlink:href="class_tasks_1_1_discrete_1_1_landing_linear.html" target="_top" xlink:title="Задача спуска ЛА на планету (дискретная, линеаризованная) для фильтров оптимальной структуры...">
<polygon fill="white" stroke="black" points="-7.10543e-15,-67.5 -7.10543e-15,-97.5 125,-97.5 125,-67.5 -7.10543e-15,-67.5"/>
<text text-anchor="start" x="8" y="-85.5" font-family="Helvetica,sans-Serif" font-size="10.00">Tasks::Discrete::Landing</text>
<text text-anchor="middle" x="62.5" y="-74.5" font-family="Helvetica,sans-Serif" font-size="10.00">Linear</text>
</a>
</g>
</g>
<!-- Node1&#45;&gt;Node0 -->
<g id="edge1" class="edge"><title>Node1&#45;&gt;Node0</title>
<path fill="none" stroke="midnightblue" d="M62.5,-57.1081C62.5,-48.1539 62.5,-38.3227 62.5,-30.5765"/>
<polygon fill="midnightblue" stroke="midnightblue" points="59.0001,-57.3959 62.5,-67.396 66.0001,-57.396 59.0001,-57.3959"/>
</g>
<!-- Node2 -->
<g id="node3" class="node"><title>Node2</title>
<g id="a_node3"><a xlink:href="class_core_1_1_discrete_task.html" target="_top" xlink:title="Базовый тип задач для дискретных фильтров оптимальной структуры. ">
<polygon fill="white" stroke="black" points="12,-134.5 12,-153.5 113,-153.5 113,-134.5 12,-134.5"/>
<text text-anchor="middle" x="62.5" y="-141.5" font-family="Helvetica,sans-Serif" font-size="10.00">Core::DiscreteTask</text>
</a>
</g>
</g>
<!-- Node2&#45;&gt;Node1 -->
<g id="edge2" class="edge"><title>Node2&#45;&gt;Node1</title>
<path fill="none" stroke="midnightblue" d="M62.5,-124.235C62.5,-115.586 62.5,-105.497 62.5,-97.523"/>
<polygon fill="midnightblue" stroke="midnightblue" points="59.0001,-124.475 62.5,-134.475 66.0001,-124.475 59.0001,-124.475"/>
</g>
<!-- Node3 -->
<g id="node4" class="node"><title>Node3</title>
<g id="a_node4"><a xlink:href="class_core_1_1_task.html" target="_top" xlink:title="Базовый класс для всех задач ">
<polygon fill="white" stroke="black" points="30,-190.5 30,-209.5 95,-209.5 95,-190.5 30,-190.5"/>
<text text-anchor="middle" x="62.5" y="-197.5" font-family="Helvetica,sans-Serif" font-size="10.00">Core::Task</text>
</a>
</g>
</g>
<!-- Node3&#45;&gt;Node2 -->
<g id="edge3" class="edge"><title>Node3&#45;&gt;Node2</title>
<path fill="none" stroke="midnightblue" d="M62.5,-179.805C62.5,-170.91 62.5,-160.78 62.5,-153.751"/>
<polygon fill="midnightblue" stroke="midnightblue" points="59.0001,-180.083 62.5,-190.083 66.0001,-180.083 59.0001,-180.083"/>
</g>
<!-- Node4 -->
<g id="node5" class="node"><title>Node4</title>
<g id="a_node5"><a xlink:href="class_core_1_1_function_time.html" target="_top" xlink:title="Базовый класс для классов, представляющих собой функции времени. ">
<polygon fill="white" stroke="black" points="11.5,-246.5 11.5,-265.5 113.5,-265.5 113.5,-246.5 11.5,-246.5"/>
<text text-anchor="middle" x="62.5" y="-253.5" font-family="Helvetica,sans-Serif" font-size="10.00">Core::FunctionTime</text>
</a>
</g>
</g>
<!-- Node4&#45;&gt;Node3 -->
<g id="edge4" class="edge"><title>Node4&#45;&gt;Node3</title>
<path fill="none" stroke="midnightblue" d="M62.5,-235.805C62.5,-226.91 62.5,-216.78 62.5,-209.751"/>
<polygon fill="midnightblue" stroke="midnightblue" points="59.0001,-236.083 62.5,-246.083 66.0001,-236.083 59.0001,-236.083"/>
</g>
</g>
</svg>
