<?xml version="1.0" encoding="UTF-8" standalone="no"?>
<!DOCTYPE svg PUBLIC "-//W3C//DTD SVG 1.1//EN"
 "http://www.w3.org/Graphics/SVG/1.1/DTD/svg11.dtd">
<!-- Generated by graphviz version 2.38.0 (20140413.2041)
 -->
<!-- Title: Filters::Discrete::MFOS Pages: 1 -->
<svg width="157pt" height="220pt"
 viewBox="0.00 0.00 156.50 220.00" xmlns="http://www.w3.org/2000/svg" xmlns:xlink="http://www.w3.org/1999/xlink">
<g id="graph0" class="graph" transform="scale(1 1) rotate(0) translate(4 216)">
<title>Filters::Discrete::MFOS</title>
<polygon fill="white" stroke="none" points="-4,4 -4,-216 152.5,-216 152.5,4 -4,4"/>
<!-- Node3 -->
<g id="node1" class="node"><title>Node3</title>
<polygon fill="#bfbfbf" stroke="black" points="8,-0.5 8,-19.5 133,-19.5 133,-0.5 8,-0.5"/>
<text text-anchor="middle" x="70.5" y="-7.5" font-family="Helvetica,sans-Serif" font-size="10.00">Filters::Discrete::MFOS</text>
</g>
<!-- Node4 -->
<g id="node2" class="node"><title>Node4</title>
<g id="a_node2"><a xlink:href="class_core_1_1_discrete_filter.html" target="_top" xlink:title="Базовый класс для всех дискретных фильтров оптимальной структуры. ">
<polygon fill="white" stroke="black" points="15.5,-57.5 15.5,-76.5 125.5,-76.5 125.5,-57.5 15.5,-57.5"/>
<text text-anchor="middle" x="70.5" y="-64.5" font-family="Helvetica,sans-Serif" font-size="10.00">Core::DiscreteFilter</text>
</a>
</g>
</g>
<!-- Node4&#45;&gt;Node3 -->
<g id="edge1" class="edge"><title>Node4&#45;&gt;Node3</title>
<path fill="none" stroke="midnightblue" d="M70.5,-47.1166C70.5,-37.8173 70.5,-27.0557 70.5,-19.7149"/>
<polygon fill="midnightblue" stroke="midnightblue" points="67.0001,-47.4062 70.5,-57.4062 74.0001,-47.4063 67.0001,-47.4062"/>
</g>
<!-- Node5 -->
<g id="node3" class="node"><title>Node5</title>
<g id="a_node3"><a xlink:href="class_core_1_1_filter.html" target="_top" xlink:title="Базовый класс для всех фильтров. ">
<polygon fill="white" stroke="black" points="36,-114.5 36,-133.5 105,-133.5 105,-114.5 36,-114.5"/>
<text text-anchor="middle" x="70.5" y="-121.5" font-family="Helvetica,sans-Serif" font-size="10.00">Core::Filter</text>
</a>
</g>
</g>
<!-- Node5&#45;&gt;Node4 -->
<g id="edge2" class="edge"><title>Node5&#45;&gt;Node4</title>
<path fill="none" stroke="midnightblue" d="M70.5,-104.117C70.5,-94.8173 70.5,-84.0557 70.5,-76.7149"/>
<polygon fill="midnightblue" stroke="midnightblue" points="67.0001,-104.406 70.5,-114.406 74.0001,-104.406 67.0001,-104.406"/>
</g>
<!-- Node6 -->
<g id="node4" class="node"><title>Node6</title>
<g id="a_node4"><a xlink:href="class_math_1_1_multivariate_normal_distribution.html" target="_top" xlink:title="Класс&#45;генератор случайных нормальных(гауссовских) векторов. ">
<polygon fill="white" stroke="black" points="0,-181.5 0,-211.5 141,-211.5 141,-181.5 0,-181.5"/>
<text text-anchor="start" x="8" y="-199.5" font-family="Helvetica,sans-Serif" font-size="10.00">Math::MultivariateNormal</text>
<text text-anchor="middle" x="70.5" y="-188.5" font-family="Helvetica,sans-Serif" font-size="10.00">Distribution</text>
</a>
</g>
</g>
<!-- Node6&#45;&gt;Node5 -->
<g id="edge3" class="edge"><title>Node6&#45;&gt;Node5</title>
<path fill="none" stroke="#9a32cd" stroke-dasharray="5,2" d="M70.5,-171.091C70.5,-158.214 70.5,-143.197 70.5,-133.893"/>
<polygon fill="#9a32cd" stroke="#9a32cd" points="67.0001,-171.233 70.5,-181.233 74.0001,-171.233 67.0001,-171.233"/>
<text text-anchor="middle" x="109.5" y="-155" font-family="Helvetica,sans-Serif" font-size="10.00"> m_normalRand</text>
</g>
</g>
</svg>
