<?xml version="1.0" encoding="UTF-8" standalone="no"?>
<!DOCTYPE svg PUBLIC "-//W3C//DTD SVG 1.1//EN"
 "http://www.w3.org/Graphics/SVG/1.1/DTD/svg11.dtd">
<!-- Generated by graphviz version 2.38.0 (20140413.2041)
 -->
<!-- Title: Tasks::Continuous::LandingLinear Pages: 1 -->
<svg width="121pt" height="207pt"
 viewBox="0.00 0.00 121.00 207.00" xmlns="http://www.w3.org/2000/svg" xmlns:xlink="http://www.w3.org/1999/xlink">
<g id="graph0" class="graph" transform="scale(1 1) rotate(0) translate(4 203)">
<title>Tasks::Continuous::LandingLinear</title>
<polygon fill="white" stroke="none" points="-4,4 -4,-203 117,-203 117,4 -4,4"/>
<!-- Node5 -->
<g id="node1" class="node"><title>Node5</title>
<polygon fill="#bfbfbf" stroke="black" points="4.5,-0.5 4.5,-30.5 108.5,-30.5 108.5,-0.5 4.5,-0.5"/>
<text text-anchor="start" x="12.5" y="-18.5" font-family="Helvetica,sans-Serif" font-size="10.00">Tasks::Continuous::</text>
<text text-anchor="middle" x="56.5" y="-7.5" font-family="Helvetica,sans-Serif" font-size="10.00">LandingLinear</text>
</g>
<!-- Node6 -->
<g id="node2" class="node"><title>Node6</title>
<g id="a_node2"><a xlink:href="class_core_1_1_continuous_task.html" target="_top" xlink:title="Базовый тип задач для непрерывных фильтров оптимальной структуры. ">
<polygon fill="white" stroke="black" points="0,-67.5 0,-86.5 113,-86.5 113,-67.5 0,-67.5"/>
<text text-anchor="middle" x="56.5" y="-74.5" font-family="Helvetica,sans-Serif" font-size="10.00">Core::ContinuousTask</text>
</a>
</g>
</g>
<!-- Node6&#45;&gt;Node5 -->
<g id="edge1" class="edge"><title>Node6&#45;&gt;Node5</title>
<path fill="none" stroke="midnightblue" d="M56.5,-57.2349C56.5,-48.5864 56.5,-38.4969 56.5,-30.523"/>
<polygon fill="midnightblue" stroke="midnightblue" points="53.0001,-57.4751 56.5,-67.4751 60.0001,-57.4751 53.0001,-57.4751"/>
</g>
<!-- Node7 -->
<g id="node3" class="node"><title>Node7</title>
<g id="a_node3"><a xlink:href="class_core_1_1_task.html" target="_top" xlink:title="Базовый класс для всех задач ">
<polygon fill="white" stroke="black" points="24,-123.5 24,-142.5 89,-142.5 89,-123.5 24,-123.5"/>
<text text-anchor="middle" x="56.5" y="-130.5" font-family="Helvetica,sans-Serif" font-size="10.00">Core::Task</text>
</a>
</g>
</g>
<!-- Node7&#45;&gt;Node6 -->
<g id="edge2" class="edge"><title>Node7&#45;&gt;Node6</title>
<path fill="none" stroke="midnightblue" d="M56.5,-112.805C56.5,-103.91 56.5,-93.7798 56.5,-86.7511"/>
<polygon fill="midnightblue" stroke="midnightblue" points="53.0001,-113.083 56.5,-123.083 60.0001,-113.083 53.0001,-113.083"/>
</g>
<!-- Node8 -->
<g id="node4" class="node"><title>Node8</title>
<g id="a_node4"><a xlink:href="class_core_1_1_function_time.html" target="_top" xlink:title="Базовый класс для классов, представляющих собой функции времени. ">
<polygon fill="white" stroke="black" points="5.5,-179.5 5.5,-198.5 107.5,-198.5 107.5,-179.5 5.5,-179.5"/>
<text text-anchor="middle" x="56.5" y="-186.5" font-family="Helvetica,sans-Serif" font-size="10.00">Core::FunctionTime</text>
</a>
</g>
</g>
<!-- Node8&#45;&gt;Node7 -->
<g id="edge3" class="edge"><title>Node8&#45;&gt;Node7</title>
<path fill="none" stroke="midnightblue" d="M56.5,-168.805C56.5,-159.91 56.5,-149.78 56.5,-142.751"/>
<polygon fill="midnightblue" stroke="midnightblue" points="53.0001,-169.083 56.5,-179.083 60.0001,-169.083 53.0001,-169.083"/>
</g>
</g>
</svg>
