<?xml version="1.0" encoding="UTF-8" standalone="no"?>
<!DOCTYPE svg PUBLIC "-//W3C//DTD SVG 1.1//EN"
 "http://www.w3.org/Graphics/SVG/1.1/DTD/svg11.dtd">
<!-- Generated by graphviz version 2.38.0 (20140413.2041)
 -->
<!-- Title: Core::ContinuousDiscreteFilter Pages: 1 -->
<svg width="434pt" height="165pt"
 viewBox="0.00 0.00 434.00 165.00" xmlns="http://www.w3.org/2000/svg" xmlns:xlink="http://www.w3.org/1999/xlink">
<g id="graph0" class="graph" transform="scale(1 1) rotate(0) translate(4 161)">
<title>Core::ContinuousDiscreteFilter</title>
<polygon fill="white" stroke="none" points="-4,4 -4,-161 430,-161 430,4 -4,4"/>
<!-- Node0 -->
<g id="node1" class="node"><title>Node0</title>
<polygon fill="#bfbfbf" stroke="black" points="101,-63 101,-93 229,-93 229,-63 101,-63"/>
<text text-anchor="start" x="109" y="-81" font-family="Helvetica,sans-Serif" font-size="10.00">Core::ContinuousDiscrete</text>
<text text-anchor="middle" x="165" y="-70" font-family="Helvetica,sans-Serif" font-size="10.00">Filter</text>
</g>
<!-- Node2 -->
<g id="node3" class="node"><title>Node2</title>
<g id="a_node3"><a xlink:href="class_filters_1_1_continuous_discrete_1_1_a_o_f.html" target="_top" xlink:title="Класс, реализующий непрерывно&#45;дискретный абсолютно оптимальной фильтр. ">
<polygon fill="white" stroke="black" points="265,-137.5 265,-156.5 426,-156.5 426,-137.5 265,-137.5"/>
<text text-anchor="middle" x="345.5" y="-144.5" font-family="Helvetica,sans-Serif" font-size="10.00">Filters::ContinuousDiscrete::AOF</text>
</a>
</g>
</g>
<!-- Node0&#45;&gt;Node2 -->
<g id="edge2" class="edge"><title>Node0&#45;&gt;Node2</title>
<path fill="none" stroke="midnightblue" d="M200.696,-98.0327C219.296,-108.122 242.882,-119.898 265,-128 274.994,-131.661 285.955,-134.807 296.46,-137.427"/>
<polygon fill="midnightblue" stroke="midnightblue" points="202.173,-94.8509 191.726,-93.0896 198.795,-100.982 202.173,-94.8509"/>
</g>
<!-- Node3 -->
<g id="node4" class="node"><title>Node3</title>
<g id="a_node4"><a xlink:href="class_filters_1_1_continuous_discrete_1_1_d_f_o_s.html" target="_top" xlink:title="Класс, реализующий непрерывно&#45;дискретный фильтр оптимальной структуры с дискретным прогнозом...">
<polygon fill="white" stroke="black" points="278.5,-88 278.5,-118 412.5,-118 412.5,-88 278.5,-88"/>
<text text-anchor="start" x="286.5" y="-106" font-family="Helvetica,sans-Serif" font-size="10.00">Filters::ContinuousDiscrete</text>
<text text-anchor="middle" x="345.5" y="-95" font-family="Helvetica,sans-Serif" font-size="10.00">::DFOS</text>
</a>
</g>
</g>
<!-- Node0&#45;&gt;Node3 -->
<g id="edge3" class="edge"><title>Node0&#45;&gt;Node3</title>
<path fill="none" stroke="midnightblue" d="M239.416,-88.2823C252.323,-90.09 265.686,-91.9617 278.379,-93.7394"/>
<polygon fill="midnightblue" stroke="midnightblue" points="239.572,-84.7702 229.184,-86.8492 238.601,-91.7025 239.572,-84.7702"/>
</g>
<!-- Node4 -->
<g id="node5" class="node"><title>Node4</title>
<g id="a_node5"><a xlink:href="class_filters_1_1_continuous_discrete_1_1_d_f_o_s_b_o.html" target="_top" xlink:title="Класс, реализующий непрерывно&#45;дискретный фильтр оптимальной структуры повышеного порядка. ">
<polygon fill="white" stroke="black" points="278.5,-39 278.5,-69 412.5,-69 412.5,-39 278.5,-39"/>
<text text-anchor="start" x="286.5" y="-57" font-family="Helvetica,sans-Serif" font-size="10.00">Filters::ContinuousDiscrete</text>
<text text-anchor="middle" x="345.5" y="-46" font-family="Helvetica,sans-Serif" font-size="10.00">::DFOSBO</text>
</a>
</g>
</g>
<!-- Node0&#45;&gt;Node4 -->
<g id="edge4" class="edge"><title>Node0&#45;&gt;Node4</title>
<path fill="none" stroke="midnightblue" d="M239.416,-68.129C252.323,-66.3936 265.686,-64.5968 278.379,-62.8902"/>
<polygon fill="midnightblue" stroke="midnightblue" points="238.628,-64.7033 229.184,-69.5047 239.561,-71.6409 238.628,-64.7033"/>
</g>
<!-- Node5 -->
<g id="node6" class="node"><title>Node5</title>
<g id="a_node6"><a xlink:href="class_filters_1_1_continuous_discrete_1_1_f_o_s.html" target="_top" xlink:title="Класс, реализующий непрерывно&#45;дискретный фильтр оптимальной структуры с непрерывным прогнозом...">
<polygon fill="white" stroke="black" points="265,-0.5 265,-19.5 426,-19.5 426,-0.5 265,-0.5"/>
<text text-anchor="middle" x="345.5" y="-7.5" font-family="Helvetica,sans-Serif" font-size="10.00">Filters::ContinuousDiscrete::FOS</text>
</a>
</g>
</g>
<!-- Node0&#45;&gt;Node5 -->
<g id="edge5" class="edge"><title>Node0&#45;&gt;Node5</title>
<path fill="none" stroke="midnightblue" d="M201.526,-57.9855C220.015,-48.2008 243.247,-36.8688 265,-29 275.142,-25.3313 286.269,-22.1663 296.902,-19.5293"/>
<polygon fill="midnightblue" stroke="midnightblue" points="199.742,-54.9706 192.591,-62.7882 203.056,-61.1363 199.742,-54.9706"/>
</g>
<!-- Node1 -->
<g id="node2" class="node"><title>Node1</title>
<g id="a_node2"><a xlink:href="class_core_1_1_filter.html" target="_top" xlink:title="Базовый класс для всех фильтров. ">
<polygon fill="white" stroke="black" points="0,-68.5 0,-87.5 65,-87.5 65,-68.5 0,-68.5"/>
<text text-anchor="middle" x="32.5" y="-75.5" font-family="Helvetica,sans-Serif" font-size="10.00">Core::Filter</text>
</a>
</g>
</g>
<!-- Node1&#45;&gt;Node0 -->
<g id="edge1" class="edge"><title>Node1&#45;&gt;Node0</title>
<path fill="none" stroke="midnightblue" d="M75.1702,-78C83.4103,-78 92.2301,-78 100.996,-78"/>
<polygon fill="midnightblue" stroke="midnightblue" points="75.0904,-74.5001 65.0904,-78 75.0904,-81.5001 75.0904,-74.5001"/>
</g>
</g>
</svg>
