<?xml version="1.0" encoding="UTF-8" standalone="no"?>
<!DOCTYPE svg PUBLIC "-//W3C//DTD SVG 1.1//EN"
 "http://www.w3.org/Graphics/SVG/1.1/DTD/svg11.dtd">
<!-- Generated by graphviz version 2.38.0 (20140413.2041)
 -->
<!-- Title: MainWindow Pages: 1 -->
<!--zoomable 278 -->
<svg id="main" version="1.1" xmlns="http://www.w3.org/2000/svg" xmlns:xlink="http://www.w3.org/1999/xlink" xml:space="preserve" onload="init(evt)">
<style type="text/css"><![CDATA[
.edge:hover path { stroke: red; }
.edge:hover polygon { stroke: red; fill: red; }
]]></style>
<script type="text/javascript"><![CDATA[
var edges = document.getElementsByTagName('g');
if (edges && edges.length) {
  for (var i=0;i<edges.length;i++) {
    if (edges[i].id.substr(0,4)=='edge') {
      edges[i].setAttribute('class','edge');
    }
  }
}
]]></script>
        <defs>
                <circle id="rim" cx="0" cy="0" r="7"/>
                <circle id="rim2" cx="0" cy="0" r="3.5"/>
                <g id="zoomPlus">
                        <use xlink:href="#rim" fill="#404040">
                                <set attributeName="fill" to="#808080" begin="zoomplus.mouseover" end="zoomplus.mouseout"/>
                        </use>
                        <path d="M-4,0h8M0,-4v8" fill="none" stroke="white" stroke-width="1.5" pointer-events="none"/>
                </g>
                <g id="zoomMin">
                        <use xlink:href="#rim" fill="#404040">
                                <set attributeName="fill" to="#808080" begin="zoomminus.mouseover" end="zoomminus.mouseout"/>
                        </use>
                        <path d="M-4,0h8" fill="none" stroke="white" stroke-width="1.5" pointer-events="none"/>
                </g>
                <g id="dirArrow">
                        <path fill="none" stroke="white" stroke-width="1.5" d="M0,-3.0v7 M-2.5,-0.5L0,-3.0L2.5,-0.5"/>
                </g>
               <g id="resetDef">
                       <use xlink:href="#rim2" fill="#404040">
                               <set attributeName="fill" to="#808080" begin="reset.mouseover" end="reset.mouseout"/>
                       </use>
               </g>
        </defs>

<script type="text/javascript">
var viewWidth = 906;
var viewHeight = 278;
var sectionId = 'dynsection-1';
</script>
<script xlink:href="svgpan.js"/>
<svg id="graph" class="graph">
<g id="viewport">
<title>MainWindow</title>
<polygon fill="white" stroke="none" points="-4,4 -4,-274.159 902,-274.159 902,4 -4,4"/>
<!-- Node1 -->
<g id="node1" class="node"><title>Node1</title>
<polygon fill="#bfbfbf" stroke="black" points="825,-114.5 825,-133.5 898,-133.5 898,-114.5 825,-114.5"/>
<text text-anchor="middle" x="861.5" y="-121.5" font-family="Helvetica,sans-Serif" font-size="10.00">MainWindow</text>
</g>
<!-- Node2 -->
<g id="node2" class="node"><title>Node2</title>
<polygon fill="white" stroke="#bfbfbf" points="305.5,-234.5 305.5,-253.5 385.5,-253.5 385.5,-234.5 305.5,-234.5"/>
<text text-anchor="middle" x="345.5" y="-241.5" font-family="Helvetica,sans-Serif" font-size="10.00">QMainWindow</text>
</g>
<!-- Node2&#45;&gt;Node1 -->
<g id="edge1" class="edge"><title>Node2&#45;&gt;Node1</title>
<path fill="none" stroke="midnightblue" d="M395.461,-254.46C484.771,-270.73 676.898,-292.482 807,-212 836.499,-193.752 852.012,-152.625 857.797,-133.774"/>
<polygon fill="midnightblue" stroke="midnightblue" points="396.077,-251.015 385.602,-252.61 394.785,-257.895 396.077,-251.015"/>
</g>
<!-- Node8 -->
<g id="node8" class="node"><title>Node8</title>
<g id="a_node8"><a xlink:href="class_graph_window.html" target="_top" xlink:title="Класс, реализующий окно для просмотра графиков. ">
<polygon fill="white" stroke="black" points="562,-190.5 562,-209.5 640,-209.5 640,-190.5 562,-190.5"/>
<text text-anchor="middle" x="601" y="-197.5" font-family="Helvetica,sans-Serif" font-size="10.00">GraphWindow</text>
</a>
</g>
</g>
<!-- Node2&#45;&gt;Node8 -->
<g id="edge9" class="edge"><title>Node2&#45;&gt;Node8</title>
<path fill="none" stroke="midnightblue" d="M395.514,-235.493C444.042,-227.07 517.337,-214.348 561.732,-206.642"/>
<polygon fill="midnightblue" stroke="midnightblue" points="394.808,-232.063 385.554,-237.221 396.005,-238.96 394.808,-232.063"/>
</g>
<!-- Node3 -->
<g id="node3" class="node"><title>Node3</title>
<g id="a_node3"><a xlink:href="class_task_widget.html" target="_top" xlink:title="Виджет для работы с задачами для фильтров. ">
<polygon fill="white" stroke="black" points="566.5,-152.5 566.5,-171.5 635.5,-171.5 635.5,-152.5 566.5,-152.5"/>
<text text-anchor="middle" x="601" y="-159.5" font-family="Helvetica,sans-Serif" font-size="10.00">TaskWidget</text>
</a>
</g>
</g>
<!-- Node3&#45;&gt;Node1 -->
<g id="edge2" class="edge"><title>Node3&#45;&gt;Node1</title>
<path fill="none" stroke="#9a32cd" stroke-dasharray="5,2" d="M645.682,-158.663C687.368,-155.06 751.814,-148.399 807,-138 813.51,-136.773 820.397,-135.191 826.986,-133.533"/>
<polygon fill="#9a32cd" stroke="#9a32cd" points="645.265,-155.185 635.594,-159.513 645.853,-162.161 645.265,-155.185"/>
<text text-anchor="middle" x="744.5" y="-157" font-family="Helvetica,sans-Serif" font-size="10.00"> m_taskWidget</text>
</g>
<!-- Node4 -->
<g id="node4" class="node"><title>Node4</title>
<polygon fill="white" stroke="#bfbfbf" points="311.5,-82.5 311.5,-101.5 379.5,-101.5 379.5,-82.5 311.5,-82.5"/>
<text text-anchor="middle" x="345.5" y="-89.5" font-family="Helvetica,sans-Serif" font-size="10.00">QGroupBox</text>
</g>
<!-- Node4&#45;&gt;Node3 -->
<g id="edge3" class="edge"><title>Node4&#45;&gt;Node3</title>
<path fill="none" stroke="midnightblue" d="M385.538,-104.658C397.52,-108.433 410.769,-112.494 423,-116 472.597,-130.215 530.547,-144.918 566.262,-153.762"/>
<polygon fill="midnightblue" stroke="midnightblue" points="386.412,-101.264 375.822,-101.574 384.295,-107.936 386.412,-101.264"/>
</g>
<!-- Node11 -->
<g id="node11" class="node"><title>Node11</title>
<g id="a_node11"><a xlink:href="class_filter_start_buttons_box.html" target="_top" xlink:title="Класс виджета, содержащего только кнопки для запуска того или иного фильтра. ">
<polygon fill="white" stroke="black" points="546,-76.5 546,-95.5 656,-95.5 656,-76.5 546,-76.5"/>
<text text-anchor="middle" x="601" y="-83.5" font-family="Helvetica,sans-Serif" font-size="10.00">FilterStartButtonsBox</text>
</a>
</g>
</g>
<!-- Node4&#45;&gt;Node11 -->
<g id="edge13" class="edge"><title>Node4&#45;&gt;Node11</title>
<path fill="none" stroke="midnightblue" d="M389.79,-90.9754C432.821,-89.9569 498.955,-88.3916 545.53,-87.2892"/>
<polygon fill="midnightblue" stroke="midnightblue" points="389.555,-87.4799 379.641,-91.2156 389.721,-94.4779 389.555,-87.4799"/>
</g>
<!-- Node12 -->
<g id="node12" class="node"><title>Node12</title>
<g id="a_node12"><a xlink:href="class_filter_parameters_widget.html" target="_top" xlink:title="Класс виджета, предаставляющего элементы управления параметрами фильтрации. ">
<polygon fill="white" stroke="black" points="541.5,-0.5 541.5,-19.5 660.5,-19.5 660.5,-0.5 541.5,-0.5"/>
<text text-anchor="middle" x="601" y="-7.5" font-family="Helvetica,sans-Serif" font-size="10.00">FilterParametersWidget</text>
</a>
</g>
</g>
<!-- Node4&#45;&gt;Node12 -->
<g id="edge15" class="edge"><title>Node4&#45;&gt;Node12</title>
<path fill="none" stroke="midnightblue" d="M384.774,-79.153C423.377,-66.2559 484.72,-45.9258 538,-29 547.871,-25.8641 558.655,-22.5283 568.42,-19.5412"/>
<polygon fill="midnightblue" stroke="midnightblue" points="383.365,-75.9336 374.992,-82.4248 385.586,-82.5721 383.365,-75.9336"/>
</g>
<!-- Node14 -->
<g id="node14" class="node"><title>Node14</title>
<g id="a_node14"><a xlink:href="class_additional_settings_widget.html" target="_top" xlink:title="Класс виджета, предаставляющего дополнительные настройки для численных методов. ">
<polygon fill="white" stroke="black" points="538,-114.5 538,-133.5 664,-133.5 664,-114.5 538,-114.5"/>
<text text-anchor="middle" x="601" y="-121.5" font-family="Helvetica,sans-Serif" font-size="10.00">AdditionalSettingsWidget</text>
</a>
</g>
</g>
<!-- Node4&#45;&gt;Node14 -->
<g id="edge18" class="edge"><title>Node4&#45;&gt;Node14</title>
<path fill="none" stroke="midnightblue" d="M389.783,-97.4637C430.515,-102.605 491.951,-110.361 537.903,-116.161"/>
<polygon fill="midnightblue" stroke="midnightblue" points="390,-93.9635 379.641,-96.1834 389.124,-100.908 390,-93.9635"/>
</g>
<!-- Node5 -->
<g id="node5" class="node"><title>Node5</title>
<g id="a_node5"><a xlink:href="class_task_parameters_widget.html" target="_top" xlink:title="Класс виджета, предаставляющего возможность работы с параметрами задач. ">
<polygon fill="white" stroke="black" points="286,-152.5 286,-171.5 405,-171.5 405,-152.5 286,-152.5"/>
<text text-anchor="middle" x="345.5" y="-159.5" font-family="Helvetica,sans-Serif" font-size="10.00">TaskParametersWidget</text>
</a>
</g>
</g>
<!-- Node5&#45;&gt;Node3 -->
<g id="edge4" class="edge"><title>Node5&#45;&gt;Node3</title>
<path fill="none" stroke="#9a32cd" stroke-dasharray="5,2" d="M415.511,-162C464.495,-162 528.11,-162 566.403,-162"/>
<polygon fill="#9a32cd" stroke="#9a32cd" points="415.295,-158.5 405.295,-162 415.295,-165.5 415.295,-158.5"/>
<text text-anchor="middle" x="471.5" y="-165" font-family="Helvetica,sans-Serif" font-size="10.00"> m_parametersWidget</text>
</g>
<!-- Node6 -->
<g id="node6" class="node"><title>Node6</title>
<polygon fill="white" stroke="#bfbfbf" points="0,-131.5 0,-150.5 55,-150.5 55,-131.5 0,-131.5"/>
<text text-anchor="middle" x="27.5" y="-138.5" font-family="Helvetica,sans-Serif" font-size="10.00">QWidget</text>
</g>
<!-- Node6&#45;&gt;Node5 -->
<g id="edge5" class="edge"><title>Node6&#45;&gt;Node5</title>
<path fill="none" stroke="midnightblue" d="M65.354,-143.449C119.574,-147.052 221.378,-153.818 285.913,-158.107"/>
<polygon fill="midnightblue" stroke="midnightblue" points="65.3797,-139.943 55.1696,-142.772 64.9155,-146.928 65.3797,-139.943"/>
</g>
<!-- Node7 -->
<g id="node7" class="node"><title>Node7</title>
<g id="a_node7"><a xlink:href="class_matrix_widget.html" target="_top" xlink:title="Класс для отображения / изменения матриц (или векторов). ">
<polygon fill="white" stroke="black" points="92,-93.5 92,-112.5 166,-112.5 166,-93.5 92,-93.5"/>
<text text-anchor="middle" x="129" y="-100.5" font-family="Helvetica,sans-Serif" font-size="10.00">MatrixWidget</text>
</a>
</g>
</g>
<!-- Node6&#45;&gt;Node7 -->
<g id="edge7" class="edge"><title>Node6&#45;&gt;Node7</title>
<path fill="none" stroke="midnightblue" d="M63.2322,-127.735C76.2948,-122.747 90.8815,-117.176 102.9,-112.586"/>
<polygon fill="midnightblue" stroke="midnightblue" points="61.7012,-124.574 53.6081,-131.411 64.1987,-131.113 61.7012,-124.574"/>
</g>
<!-- Node7&#45;&gt;Node5 -->
<g id="edge6" class="edge"><title>Node7&#45;&gt;Node5</title>
<path fill="none" stroke="#9a32cd" stroke-dasharray="5,2" d="M157.46,-89.2155C186.678,-76.649 233.371,-62.7365 268,-82 281.257,-89.3744 276.174,-99.4429 286,-111 299.79,-127.219 318.842,-142.844 331.407,-152.431"/>
<polygon fill="#9a32cd" stroke="#9a32cd" points="155.933,-86.065 148.265,-93.3757 158.818,-92.4427 155.933,-86.065"/>
<text text-anchor="middle" x="226" y="-140" font-family="Helvetica,sans-Serif" font-size="10.00"> m_meanW</text>
<text text-anchor="middle" x="226" y="-129" font-family="Helvetica,sans-Serif" font-size="10.00">m_meanX</text>
<text text-anchor="middle" x="226" y="-118" font-family="Helvetica,sans-Serif" font-size="10.00">m_varV</text>
<text text-anchor="middle" x="226" y="-107" font-family="Helvetica,sans-Serif" font-size="10.00">m_varW</text>
<text text-anchor="middle" x="226" y="-96" font-family="Helvetica,sans-Serif" font-size="10.00">m_varX</text>
<text text-anchor="middle" x="226" y="-85" font-family="Helvetica,sans-Serif" font-size="10.00">m_meanV</text>
</g>
<!-- Node8&#45;&gt;Node1 -->
<g id="edge8" class="edge"><title>Node8&#45;&gt;Node1</title>
<path fill="none" stroke="#9a32cd" stroke-dasharray="5,2" d="M650.184,-200.015C693.102,-198.364 756.704,-191.745 807,-169 825.358,-160.698 842.403,-144.242 852.119,-133.697"/>
<polygon fill="#9a32cd" stroke="#9a32cd" points="649.897,-196.522 640.009,-200.329 650.112,-203.519 649.897,-196.522"/>
<text text-anchor="middle" x="744.5" y="-200" font-family="Helvetica,sans-Serif" font-size="10.00"> m_graphWindow</text>
</g>
<!-- Node9 -->
<g id="node9" class="node"><title>Node9</title>
<g id="a_node9"><a xlink:href="class_graph_sheet.html" target="_top" xlink:title="Класс, реализующий &quot;страницу&quot; окна графиков. ">
<polygon fill="white" stroke="black" points="311.5,-190.5 311.5,-209.5 379.5,-209.5 379.5,-190.5 311.5,-190.5"/>
<text text-anchor="middle" x="345.5" y="-197.5" font-family="Helvetica,sans-Serif" font-size="10.00">GraphSheet</text>
</a>
</g>
</g>
<!-- Node9&#45;&gt;Node8 -->
<g id="edge10" class="edge"><title>Node9&#45;&gt;Node8</title>
<path fill="none" stroke="#9a32cd" stroke-dasharray="5,2" d="M389.793,-200C438.165,-200 515.726,-200 561.886,-200"/>
<polygon fill="#9a32cd" stroke="#9a32cd" points="389.641,-196.5 379.641,-200 389.641,-203.5 389.641,-196.5"/>
<text text-anchor="middle" x="471.5" y="-203" font-family="Helvetica,sans-Serif" font-size="10.00"> m_currentSheet</text>
</g>
<!-- Node10 -->
<g id="node10" class="node"><title>Node10</title>
<g id="a_node10"><a xlink:href="struct_g_axis_range.html" target="_top" xlink:title="Структура для хранения границ осей координат. ">
<polygon fill="white" stroke="black" points="93,-190.5 93,-209.5 165,-209.5 165,-190.5 93,-190.5"/>
<text text-anchor="middle" x="129" y="-197.5" font-family="Helvetica,sans-Serif" font-size="10.00">GAxisRange</text>
</a>
</g>
</g>
<!-- Node10&#45;&gt;Node9 -->
<g id="edge11" class="edge"><title>Node10&#45;&gt;Node9</title>
<path fill="none" stroke="#9a32cd" stroke-dasharray="5,2" d="M175.63,-200C216.392,-200 275.126,-200 311.495,-200"/>
<polygon fill="#9a32cd" stroke="#9a32cd" points="175.42,-196.5 165.42,-200 175.42,-203.5 175.42,-196.5"/>
<text text-anchor="middle" x="226" y="-214" font-family="Helvetica,sans-Serif" font-size="10.00"> m_userAxisRange</text>
<text text-anchor="middle" x="226" y="-203" font-family="Helvetica,sans-Serif" font-size="10.00">m_axisRange</text>
</g>
<!-- Node11&#45;&gt;Node1 -->
<g id="edge12" class="edge"><title>Node11&#45;&gt;Node1</title>
<path fill="none" stroke="#9a32cd" stroke-dasharray="5,2" d="M666.348,-90.5341C706.943,-94.0555 760.336,-99.9025 807,-109 814.48,-110.458 822.438,-112.445 829.867,-114.495"/>
<polygon fill="#9a32cd" stroke="#9a32cd" points="666.574,-87.0408 656.315,-89.6883 665.986,-94.016 666.574,-87.0408"/>
<text text-anchor="middle" x="744.5" y="-112" font-family="Helvetica,sans-Serif" font-size="10.00"> m_filterStartWidget</text>
</g>
<!-- Node12&#45;&gt;Node1 -->
<g id="edge14" class="edge"><title>Node12&#45;&gt;Node1</title>
<path fill="none" stroke="#9a32cd" stroke-dasharray="5,2" d="M670.778,-3.33399C713.223,-2.5942 767.009,-8.05535 807,-34 836.736,-53.2916 852.213,-95.4131 857.9,-114.391"/>
<polygon fill="#9a32cd" stroke="#9a32cd" points="670.417,0.157009 660.525,-3.63545 670.623,-6.83997 670.417,0.157009"/>
<text text-anchor="middle" x="744.5" y="-37" font-family="Helvetica,sans-Serif" font-size="10.00"> m_filterParamsWidget</text>
</g>
<!-- Node13 -->
<g id="node13" class="node"><title>Node13</title>
<g id="a_node13"><a xlink:href="class_color_manager.html" target="_top" xlink:title="Класс для управления набором цветов. ">
<polygon fill="white" stroke="black" points="562.5,-38.5 562.5,-57.5 639.5,-57.5 639.5,-38.5 562.5,-38.5"/>
<text text-anchor="middle" x="601" y="-45.5" font-family="Helvetica,sans-Serif" font-size="10.00">ColorManager</text>
</a>
</g>
</g>
<!-- Node13&#45;&gt;Node1 -->
<g id="edge16" class="edge"><title>Node13&#45;&gt;Node1</title>
<path fill="none" stroke="#9a32cd" stroke-dasharray="5,2" d="M649.896,-47.1401C692.884,-48.1039 756.76,-53.9179 807,-77 825.874,-85.6712 843.016,-103.203 852.571,-114.231"/>
<polygon fill="#9a32cd" stroke="#9a32cd" points="649.758,-43.6379 639.708,-46.9937 649.657,-50.6371 649.758,-43.6379"/>
<text text-anchor="middle" x="744.5" y="-80" font-family="Helvetica,sans-Serif" font-size="10.00"> m_colorManager</text>
</g>
<!-- Node14&#45;&gt;Node1 -->
<g id="edge17" class="edge"><title>Node14&#45;&gt;Node1</title>
<path fill="none" stroke="#9a32cd" stroke-dasharray="5,2" d="M674.479,-124C723.464,-124 786.024,-124 824.667,-124"/>
<polygon fill="#9a32cd" stroke="#9a32cd" points="674.246,-120.5 664.246,-124 674.246,-127.5 674.246,-120.5"/>
<text text-anchor="middle" x="744.5" y="-127" font-family="Helvetica,sans-Serif" font-size="10.00"> m_additionalSettingsWidget</text>
</g>
</g>
</svg>
        <g id="navigator" transform="translate(0 0)" fill="#404254">
                <rect fill="#f2f5e9" fill-opacity="0.5" stroke="#606060" stroke-width=".5" x="0" y="0" width="60" height="60"/>
                <use id="zoomplus" xlink:href="#zoomPlus" x="17" y="9" onmousedown="handleZoom(evt,'in')"/>
                <use id="zoomminus" xlink:href="#zoomMin" x="42" y="9" onmousedown="handleZoom(evt,'out')"/>
                <use id="reset" xlink:href="#resetDef" x="30" y="36" onmousedown="handleReset()"/>
                <g id="arrowUp" xlink:href="#dirArrow" transform="translate(30 24)" onmousedown="handlePan(0,-1)">
                  <use xlink:href="#rim" fill="#404040">
                        <set attributeName="fill" to="#808080" begin="arrowUp.mouseover" end="arrowUp.mouseout"/>
                  </use>
                  <path fill="none" stroke="white" stroke-width="1.5" d="M0,-3.0v7 M-2.5,-0.5L0,-3.0L2.5,-0.5"/>
                </g>
                <g id="arrowRight" xlink:href="#dirArrow" transform="rotate(90) translate(36 -43)" onmousedown="handlePan(1,0)">
                  <use xlink:href="#rim" fill="#404040">
                        <set attributeName="fill" to="#808080" begin="arrowRight.mouseover" end="arrowRight.mouseout"/>
                  </use>
                  <path fill="none" stroke="white" stroke-width="1.5" d="M0,-3.0v7 M-2.5,-0.5L0,-3.0L2.5,-0.5"/>
                </g>
                <g id="arrowDown" xlink:href="#dirArrow" transform="rotate(180) translate(-30 -48)" onmousedown="handlePan(0,1)">
                  <use xlink:href="#rim" fill="#404040">
                        <set attributeName="fill" to="#808080" begin="arrowDown.mouseover" end="arrowDown.mouseout"/>
                  </use>
                  <path fill="none" stroke="white" stroke-width="1.5" d="M0,-3.0v7 M-2.5,-0.5L0,-3.0L2.5,-0.5"/>
                </g>
                <g id="arrowLeft" xlink:href="#dirArrow" transform="rotate(270) translate(-36 17)" onmousedown="handlePan(-1,0)">
                  <use xlink:href="#rim" fill="#404040">
                        <set attributeName="fill" to="#808080" begin="arrowLeft.mouseover" end="arrowLeft.mouseout"/>
                  </use>
                  <path fill="none" stroke="white" stroke-width="1.5" d="M0,-3.0v7 M-2.5,-0.5L0,-3.0L2.5,-0.5"/>
                </g>
        </g>
        <svg viewBox="0 0 15 15" width="100%" height="30px" preserveAspectRatio="xMaxYMin meet">
         <g id="arrow_out" transform="scale(0.3 0.3)">
          <a xlink:href="class_main_window__coll__graph_org.svg" target="_base">
           <rect id="button" ry="5" rx="5" y="6" x="6" height="38" width="38"
                fill="#f2f5e9" fill-opacity="0.5" stroke="#606060" stroke-width="1.0"/>
           <path id="arrow"
             d="M 11.500037,31.436501 C 11.940474,20.09759 22.043105,11.32322 32.158766,21.979434 L 37.068811,17.246167 C 37.068811,17.246167 37.088388,32 37.088388,32 L 22.160133,31.978069 C 22.160133,31.978069 26.997745,27.140456 26.997745,27.140456 C 18.528582,18.264221 13.291696,25.230495 11.500037,31.436501 z"
             style="fill:#404040;"/>
          </a>
         </g>
        </svg>
</svg>
