<?xml version="1.0" encoding="UTF-8" standalone="no"?>
<!DOCTYPE svg PUBLIC "-//W3C//DTD SVG 1.1//EN"
 "http://www.w3.org/Graphics/SVG/1.1/DTD/svg11.dtd">
<!-- Generated by graphviz version 2.38.0 (20140413.2041)
 -->
<!-- Title: Core::ContinuousTask Pages: 1 -->
<svg width="246pt" height="274pt"
 viewBox="0.00 0.00 246.00 274.00" xmlns="http://www.w3.org/2000/svg" xmlns:xlink="http://www.w3.org/1999/xlink">
<g id="graph0" class="graph" transform="scale(1 1) rotate(0) translate(4 270)">
<title>Core::ContinuousTask</title>
<polygon fill="white" stroke="none" points="-4,4 -4,-270 242,-270 242,4 -4,4"/>
<!-- Node0 -->
<g id="node1" class="node"><title>Node0</title>
<polygon fill="#bfbfbf" stroke="black" points="58,-134.5 58,-153.5 180,-153.5 180,-134.5 58,-134.5"/>
<text text-anchor="middle" x="119" y="-141.5" font-family="Helvetica,sans-Serif" font-size="10.00">Core::ContinuousTask</text>
</g>
<!-- Node3 -->
<g id="node4" class="node"><title>Node3</title>
<g id="a_node4"><a xlink:href="class_tasks_1_1_continuous_1_1_landing_linear.html" target="_top" xlink:title="Задача спуска ЛА на планету (непрерывная, линеаризованная) для фильтров оптимальной структуры...">
<polygon fill="white" stroke="black" points="0,-67.5 0,-97.5 110,-97.5 110,-67.5 0,-67.5"/>
<text text-anchor="start" x="8" y="-85.5" font-family="Helvetica,sans-Serif" font-size="10.00">Tasks::Continuous::</text>
<text text-anchor="middle" x="55" y="-74.5" font-family="Helvetica,sans-Serif" font-size="10.00">LandingLinear</text>
</a>
</g>
</g>
<!-- Node0&#45;&gt;Node3 -->
<g id="edge3" class="edge"><title>Node0&#45;&gt;Node3</title>
<path fill="none" stroke="midnightblue" d="M102.485,-127.646C92.481,-118.346 79.8169,-106.572 70.0835,-97.523"/>
<polygon fill="midnightblue" stroke="midnightblue" points="100.123,-130.23 109.83,-134.475 104.89,-125.103 100.123,-130.23"/>
</g>
<!-- Node5 -->
<g id="node6" class="node"><title>Node5</title>
<g id="a_node6"><a xlink:href="class_tasks_1_1_continuous_1_1_van_der_pol_linear.html" target="_top" xlink:title="Осциллятор Ван&#45;дер&#45;Поля (непрерывный, линеаризованный) для фильтров оптимальной структуры. ">
<polygon fill="white" stroke="black" points="128,-67.5 128,-97.5 238,-97.5 238,-67.5 128,-67.5"/>
<text text-anchor="start" x="136" y="-85.5" font-family="Helvetica,sans-Serif" font-size="10.00">Tasks::Continuous::</text>
<text text-anchor="middle" x="183" y="-74.5" font-family="Helvetica,sans-Serif" font-size="10.00">VanDerPolLinear</text>
</a>
</g>
</g>
<!-- Node0&#45;&gt;Node5 -->
<g id="edge5" class="edge"><title>Node0&#45;&gt;Node5</title>
<path fill="none" stroke="midnightblue" d="M135.515,-127.646C145.519,-118.346 158.183,-106.572 167.916,-97.523"/>
<polygon fill="midnightblue" stroke="midnightblue" points="133.11,-125.103 128.17,-134.475 137.877,-130.23 133.11,-125.103"/>
</g>
<!-- Node1 -->
<g id="node2" class="node"><title>Node1</title>
<g id="a_node2"><a xlink:href="class_core_1_1_task.html" target="_top" xlink:title="Базовый класс для всех задач ">
<polygon fill="white" stroke="black" points="85.5,-190.5 85.5,-209.5 152.5,-209.5 152.5,-190.5 85.5,-190.5"/>
<text text-anchor="middle" x="119" y="-197.5" font-family="Helvetica,sans-Serif" font-size="10.00">Core::Task</text>
</a>
</g>
</g>
<!-- Node1&#45;&gt;Node0 -->
<g id="edge1" class="edge"><title>Node1&#45;&gt;Node0</title>
<path fill="none" stroke="midnightblue" d="M119,-179.805C119,-170.91 119,-160.78 119,-153.751"/>
<polygon fill="midnightblue" stroke="midnightblue" points="115.5,-180.083 119,-190.083 122.5,-180.083 115.5,-180.083"/>
</g>
<!-- Node2 -->
<g id="node3" class="node"><title>Node2</title>
<g id="a_node3"><a xlink:href="class_core_1_1_function_time.html" target="_top" xlink:title="Базовый класс для классов, представляющих собой функции времени. ">
<polygon fill="white" stroke="black" points="64,-246.5 64,-265.5 174,-265.5 174,-246.5 64,-246.5"/>
<text text-anchor="middle" x="119" y="-253.5" font-family="Helvetica,sans-Serif" font-size="10.00">Core::FunctionTime</text>
</a>
</g>
</g>
<!-- Node2&#45;&gt;Node1 -->
<g id="edge2" class="edge"><title>Node2&#45;&gt;Node1</title>
<path fill="none" stroke="midnightblue" d="M119,-235.805C119,-226.91 119,-216.78 119,-209.751"/>
<polygon fill="midnightblue" stroke="midnightblue" points="115.5,-236.083 119,-246.083 122.5,-236.083 115.5,-236.083"/>
</g>
<!-- Node4 -->
<g id="node5" class="node"><title>Node4</title>
<g id="a_node5"><a xlink:href="class_tasks_1_1_continuous_1_1_landing_gauss.html" target="_top" xlink:title="Tasks::Continuous::\lLandingGauss">
<polygon fill="white" stroke="black" points="0,-0.5 0,-30.5 110,-30.5 110,-0.5 0,-0.5"/>
<text text-anchor="start" x="8" y="-18.5" font-family="Helvetica,sans-Serif" font-size="10.00">Tasks::Continuous::</text>
<text text-anchor="middle" x="55" y="-7.5" font-family="Helvetica,sans-Serif" font-size="10.00">LandingGauss</text>
</a>
</g>
</g>
<!-- Node3&#45;&gt;Node4 -->
<g id="edge4" class="edge"><title>Node3&#45;&gt;Node4</title>
<path fill="none" stroke="midnightblue" d="M55,-57.1081C55,-48.1539 55,-38.3227 55,-30.5765"/>
<polygon fill="midnightblue" stroke="midnightblue" points="51.5001,-57.3959 55,-67.396 58.5001,-57.396 51.5001,-57.3959"/>
</g>
<!-- Node6 -->
<g id="node7" class="node"><title>Node6</title>
<g id="a_node7"><a xlink:href="class_tasks_1_1_continuous_1_1_van_der_pol_gauss.html" target="_top" xlink:title="Осциллятор Ван&#45;дер&#45;Поля (непрерывный, гауссовский) для фильтров оптимальной структуры. ">
<polygon fill="white" stroke="black" points="128,-0.5 128,-30.5 238,-30.5 238,-0.5 128,-0.5"/>
<text text-anchor="start" x="136" y="-18.5" font-family="Helvetica,sans-Serif" font-size="10.00">Tasks::Continuous::</text>
<text text-anchor="middle" x="183" y="-7.5" font-family="Helvetica,sans-Serif" font-size="10.00">VanDerPolGauss</text>
</a>
</g>
</g>
<!-- Node5&#45;&gt;Node6 -->
<g id="edge6" class="edge"><title>Node5&#45;&gt;Node6</title>
<path fill="none" stroke="midnightblue" d="M183,-57.1081C183,-48.1539 183,-38.3227 183,-30.5765"/>
<polygon fill="midnightblue" stroke="midnightblue" points="179.5,-57.3959 183,-67.396 186.5,-57.396 179.5,-57.3959"/>
</g>
</g>
</svg>
