<?xml version="1.0" encoding="UTF-8" standalone="no"?>
<!DOCTYPE svg PUBLIC "-//W3C//DTD SVG 1.1//EN"
 "http://www.w3.org/Graphics/SVG/1.1/DTD/svg11.dtd">
<!-- Generated by graphviz version 2.38.0 (20140413.2041)
 -->
<!-- Title: Filters::ContinuousDiscrete::AOF Pages: 1 -->
<svg width="170pt" height="151pt"
 viewBox="0.00 0.00 170.00 151.00" xmlns="http://www.w3.org/2000/svg" xmlns:xlink="http://www.w3.org/1999/xlink">
<g id="graph0" class="graph" transform="scale(1 1) rotate(0) translate(4 147)">
<title>Filters::ContinuousDiscrete::AOF</title>
<polygon fill="white" stroke="none" points="-4,4 -4,-147 166,-147 166,4 -4,4"/>
<!-- Node1 -->
<g id="node1" class="node"><title>Node1</title>
<polygon fill="#bfbfbf" stroke="black" points="0,-0.5 0,-19.5 162,-19.5 162,-0.5 0,-0.5"/>
<text text-anchor="middle" x="81" y="-7.5" font-family="Helvetica,sans-Serif" font-size="10.00">Filters::ContinuousDiscrete::AOF</text>
</g>
<!-- Node2 -->
<g id="node2" class="node"><title>Node2</title>
<g id="a_node2"><a xlink:href="class_core_1_1_continuous_discrete_filter.html" target="_top" xlink:title="Базовый класс для всех непрерывно&#45;дискретных фильтров оптимальной структуры. ">
<polygon fill="white" stroke="black" points="16,-56.5 16,-86.5 146,-86.5 146,-56.5 16,-56.5"/>
<text text-anchor="start" x="24" y="-74.5" font-family="Helvetica,sans-Serif" font-size="10.00">Core::ContinuousDiscrete</text>
<text text-anchor="middle" x="81" y="-63.5" font-family="Helvetica,sans-Serif" font-size="10.00">Filter</text>
</a>
</g>
</g>
<!-- Node2&#45;&gt;Node1 -->
<g id="edge1" class="edge"><title>Node2&#45;&gt;Node1</title>
<path fill="none" stroke="midnightblue" d="M81,-46.2892C81,-36.857 81,-26.6548 81,-19.6578"/>
<polygon fill="midnightblue" stroke="midnightblue" points="77.5001,-46.3993 81,-56.3993 84.5001,-46.3994 77.5001,-46.3993"/>
</g>
<!-- Node3 -->
<g id="node3" class="node"><title>Node3</title>
<g id="a_node3"><a xlink:href="class_core_1_1_filter.html" target="_top" xlink:title="Базовый класс для всех фильтров. ">
<polygon fill="white" stroke="black" points="48.5,-123.5 48.5,-142.5 113.5,-142.5 113.5,-123.5 48.5,-123.5"/>
<text text-anchor="middle" x="81" y="-130.5" font-family="Helvetica,sans-Serif" font-size="10.00">Core::Filter</text>
</a>
</g>
</g>
<!-- Node3&#45;&gt;Node2 -->
<g id="edge2" class="edge"><title>Node3&#45;&gt;Node2</title>
<path fill="none" stroke="midnightblue" d="M81,-113.235C81,-104.586 81,-94.4969 81,-86.523"/>
<polygon fill="midnightblue" stroke="midnightblue" points="77.5001,-113.475 81,-123.475 84.5001,-113.475 77.5001,-113.475"/>
</g>
</g>
</svg>
