<?xml version="1.0" encoding="UTF-8" standalone="no"?>
<!DOCTYPE svg PUBLIC "-//W3C//DTD SVG 1.1//EN"
 "http://www.w3.org/Graphics/SVG/1.1/DTD/svg11.dtd">
<!-- Generated by graphviz version 2.38.0 (20140413.2041)
 -->
<!-- Title: MainWindow Pages: 1 -->
<!--zoomable 283 -->
<svg id="main" version="1.1" xmlns="http://www.w3.org/2000/svg" xmlns:xlink="http://www.w3.org/1999/xlink" xml:space="preserve" onload="init(evt)">
<style type="text/css"><![CDATA[
.edge:hover path { stroke: red; }
.edge:hover polygon { stroke: red; fill: red; }
]]></style>
<script type="text/javascript"><![CDATA[
var edges = document.getElementsByTagName('g');
if (edges && edges.length) {
  for (var i=0;i<edges.length;i++) {
    if (edges[i].id.substr(0,4)=='edge') {
      edges[i].setAttribute('class','edge');
    }
  }
}
]]></script>
        <defs>
                <circle id="rim" cx="0" cy="0" r="7"/>
                <circle id="rim2" cx="0" cy="0" r="3.5"/>
                <g id="zoomPlus">
                        <use xlink:href="#rim" fill="#404040">
                                <set attributeName="fill" to="#808080" begin="zoomplus.mouseover" end="zoomplus.mouseout"/>
                        </use>
                        <path d="M-4,0h8M0,-4v8" fill="none" stroke="white" stroke-width="1.5" pointer-events="none"/>
                </g>
                <g id="zoomMin">
                        <use xlink:href="#rim" fill="#404040">
                                <set attributeName="fill" to="#808080" begin="zoomminus.mouseover" end="zoomminus.mouseout"/>
                        </use>
                        <path d="M-4,0h8" fill="none" stroke="white" stroke-width="1.5" pointer-events="none"/>
                </g>
                <g id="dirArrow">
                        <path fill="none" stroke="white" stroke-width="1.5" d="M0,-3.0v7 M-2.5,-0.5L0,-3.0L2.5,-0.5"/>
                </g>
               <g id="resetDef">
                       <use xlink:href="#rim2" fill="#404040">
                               <set attributeName="fill" to="#808080" begin="reset.mouseover" end="reset.mouseout"/>
                       </use>
               </g>
        </defs>

<script type="text/javascript">
var viewWidth = 983;
var viewHeight = 283;
var sectionId = 'dynsection-1';
</script>
<script xlink:href="svgpan.js"/>
<svg id="graph" class="graph">
<g id="viewport">
<title>MainWindow</title>
<polygon fill="white" stroke="none" points="-4,4 -4,-279.028 979,-279.028 979,4 -4,4"/>
<!-- Node2 -->
<g id="node1" class="node"><title>Node2</title>
<polygon fill="#bfbfbf" stroke="black" points="896,-114.5 896,-133.5 975,-133.5 975,-114.5 896,-114.5"/>
<text text-anchor="middle" x="935.5" y="-121.5" font-family="Helvetica,sans-Serif" font-size="10.00">MainWindow</text>
</g>
<!-- Node3 -->
<g id="node2" class="node"><title>Node3</title>
<polygon fill="white" stroke="#bfbfbf" points="326,-234.5 326,-253.5 412,-253.5 412,-234.5 326,-234.5"/>
<text text-anchor="middle" x="369" y="-241.5" font-family="Helvetica,sans-Serif" font-size="10.00">QMainWindow</text>
</g>
<!-- Node3&#45;&gt;Node2 -->
<g id="edge1" class="edge"><title>Node3&#45;&gt;Node2</title>
<path fill="none" stroke="midnightblue" d="M421.422,-255.526C518.512,-274.332 732.143,-301.359 878,-214 908.863,-195.515 925.49,-152.971 931.662,-133.746"/>
<polygon fill="midnightblue" stroke="midnightblue" points="422.051,-252.082 411.56,-253.566 420.686,-258.948 422.051,-252.082"/>
</g>
<!-- Node9 -->
<g id="node8" class="node"><title>Node9</title>
<g id="a_node8"><a xlink:href="class_graph_window.html" target="_top" xlink:title="Класс, реализующий окно для просмотра графиков. ">
<polygon fill="white" stroke="black" points="605.5,-190.5 605.5,-209.5 690.5,-209.5 690.5,-190.5 605.5,-190.5"/>
<text text-anchor="middle" x="648" y="-197.5" font-family="Helvetica,sans-Serif" font-size="10.00">GraphWindow</text>
</a>
</g>
</g>
<!-- Node3&#45;&gt;Node9 -->
<g id="edge9" class="edge"><title>Node3&#45;&gt;Node9</title>
<path fill="none" stroke="midnightblue" d="M421.967,-235.745C475.064,-227.311 556.47,-214.38 605.441,-206.601"/>
<polygon fill="midnightblue" stroke="midnightblue" points="421.397,-232.292 412.07,-237.317 422.496,-239.205 421.397,-232.292"/>
</g>
<!-- Node4 -->
<g id="node3" class="node"><title>Node4</title>
<g id="a_node3"><a xlink:href="class_task_widget.html" target="_top" xlink:title="Виджет для работы с задачами для фильтров. ">
<polygon fill="white" stroke="black" points="611.5,-152.5 611.5,-171.5 684.5,-171.5 684.5,-152.5 611.5,-152.5"/>
<text text-anchor="middle" x="648" y="-159.5" font-family="Helvetica,sans-Serif" font-size="10.00">TaskWidget</text>
</a>
</g>
</g>
<!-- Node4&#45;&gt;Node2 -->
<g id="edge2" class="edge"><title>Node4&#45;&gt;Node2</title>
<path fill="none" stroke="#9a32cd" stroke-dasharray="5,2" d="M694.557,-159.092C740.957,-155.694 814.856,-149.077 878,-138 884.868,-136.795 892.138,-135.223 899.095,-133.568"/>
<polygon fill="#9a32cd" stroke="#9a32cd" points="694.244,-155.606 684.518,-159.808 694.742,-162.588 694.244,-155.606"/>
<text text-anchor="middle" x="807" y="-158" font-family="Helvetica,sans-Serif" font-size="10.00"> m_taskWidget</text>
</g>
<!-- Node5 -->
<g id="node4" class="node"><title>Node5</title>
<polygon fill="white" stroke="#bfbfbf" points="333,-82.5 333,-101.5 405,-101.5 405,-82.5 333,-82.5"/>
<text text-anchor="middle" x="369" y="-89.5" font-family="Helvetica,sans-Serif" font-size="10.00">QGroupBox</text>
</g>
<!-- Node5&#45;&gt;Node4 -->
<g id="edge3" class="edge"><title>Node5&#45;&gt;Node4</title>
<path fill="none" stroke="midnightblue" d="M410.235,-104.418C423.204,-108.288 437.67,-112.464 451,-116 506.744,-130.787 572.053,-145.622 611.44,-154.3"/>
<polygon fill="midnightblue" stroke="midnightblue" points="411.238,-101.065 400.653,-101.535 409.221,-107.768 411.238,-101.065"/>
</g>
<!-- Node12 -->
<g id="node11" class="node"><title>Node12</title>
<g id="a_node11"><a xlink:href="class_filter_start_buttons_box.html" target="_top" xlink:title="Класс виджета, содержащего только кнопки для запуска того или иного фильтра. ">
<polygon fill="white" stroke="black" points="588,-76.5 588,-95.5 708,-95.5 708,-76.5 588,-76.5"/>
<text text-anchor="middle" x="648" y="-83.5" font-family="Helvetica,sans-Serif" font-size="10.00">FilterStartButtonsBox</text>
</a>
</g>
</g>
<!-- Node5&#45;&gt;Node12 -->
<g id="edge13" class="edge"><title>Node5&#45;&gt;Node12</title>
<path fill="none" stroke="midnightblue" d="M415.272,-91.0194C462.303,-90.0007 536.103,-88.4021 587.748,-87.2834"/>
<polygon fill="midnightblue" stroke="midnightblue" points="415.004,-87.5243 405.082,-91.2401 415.156,-94.5226 415.004,-87.5243"/>
</g>
<!-- Node13 -->
<g id="node12" class="node"><title>Node13</title>
<g id="a_node12"><a xlink:href="class_filter_parameters_widget.html" target="_top" xlink:title="Класс виджета, предаставляющего элементы управления параметрами фильтрации. ">
<polygon fill="white" stroke="black" points="582.5,-0.5 582.5,-19.5 713.5,-19.5 713.5,-0.5 582.5,-0.5"/>
<text text-anchor="middle" x="648" y="-7.5" font-family="Helvetica,sans-Serif" font-size="10.00">FilterParametersWidget</text>
</a>
</g>
</g>
<!-- Node5&#45;&gt;Node13 -->
<g id="edge15" class="edge"><title>Node5&#45;&gt;Node13</title>
<path fill="none" stroke="midnightblue" d="M410.401,-79.4313C452.245,-66.4916 519.567,-45.8915 578,-29 588.862,-25.8601 600.721,-22.5516 611.495,-19.5912"/>
<polygon fill="midnightblue" stroke="midnightblue" points="409.106,-76.168 400.589,-82.4694 411.177,-82.8548 409.106,-76.168"/>
</g>
<!-- Node15 -->
<g id="node14" class="node"><title>Node15</title>
<g id="a_node14"><a xlink:href="class_additional_settings_widget.html" target="_top" xlink:title="Класс виджета, предаставляющего дополнительные настройки для численных методов. ">
<polygon fill="white" stroke="black" points="578,-114.5 578,-133.5 718,-133.5 718,-114.5 578,-114.5"/>
<text text-anchor="middle" x="648" y="-121.5" font-family="Helvetica,sans-Serif" font-size="10.00">AdditionalSettingsWidget</text>
</a>
</g>
</g>
<!-- Node5&#45;&gt;Node15 -->
<g id="edge18" class="edge"><title>Node5&#45;&gt;Node15</title>
<path fill="none" stroke="midnightblue" d="M415.205,-97.2222C459.267,-102.312 526.874,-110.123 577.724,-115.997"/>
<polygon fill="midnightblue" stroke="midnightblue" points="415.418,-93.7236 405.082,-96.0528 414.614,-100.677 415.418,-93.7236"/>
</g>
<!-- Node6 -->
<g id="node5" class="node"><title>Node6</title>
<g id="a_node5"><a xlink:href="class_task_parameters_widget.html" target="_top" xlink:title="Класс виджета, предаставляющего возможность работы с параметрами задач. ">
<polygon fill="white" stroke="black" points="305,-152.5 305,-171.5 433,-171.5 433,-152.5 305,-152.5"/>
<text text-anchor="middle" x="369" y="-159.5" font-family="Helvetica,sans-Serif" font-size="10.00">TaskParametersWidget</text>
</a>
</g>
</g>
<!-- Node6&#45;&gt;Node4 -->
<g id="edge4" class="edge"><title>Node6&#45;&gt;Node4</title>
<path fill="none" stroke="#9a32cd" stroke-dasharray="5,2" d="M443.447,-162C497.605,-162 568.935,-162 611.183,-162"/>
<polygon fill="#9a32cd" stroke="#9a32cd" points="443.202,-158.5 433.202,-162 443.202,-165.5 443.202,-158.5"/>
<text text-anchor="middle" x="505.5" y="-165" font-family="Helvetica,sans-Serif" font-size="10.00"> m_parametersWidget</text>
</g>
<!-- Node7 -->
<g id="node6" class="node"><title>Node7</title>
<polygon fill="white" stroke="#bfbfbf" points="0,-131.5 0,-150.5 59,-150.5 59,-131.5 0,-131.5"/>
<text text-anchor="middle" x="29.5" y="-138.5" font-family="Helvetica,sans-Serif" font-size="10.00">QWidget</text>
</g>
<!-- Node7&#45;&gt;Node6 -->
<g id="edge5" class="edge"><title>Node7&#45;&gt;Node6</title>
<path fill="none" stroke="midnightblue" d="M69.4252,-143.422C127.079,-147.009 235.786,-153.773 304.912,-158.075"/>
<polygon fill="midnightblue" stroke="midnightblue" points="69.4731,-139.918 59.2751,-142.79 69.0384,-146.905 69.4731,-139.918"/>
</g>
<!-- Node8 -->
<g id="node7" class="node"><title>Node8</title>
<g id="a_node7"><a xlink:href="class_matrix_widget.html" target="_top" xlink:title="Класс для отображения / изменения матриц (или векторов). ">
<polygon fill="white" stroke="black" points="96,-93.5 96,-112.5 178,-112.5 178,-93.5 96,-93.5"/>
<text text-anchor="middle" x="137" y="-100.5" font-family="Helvetica,sans-Serif" font-size="10.00">MatrixWidget</text>
</a>
</g>
</g>
<!-- Node7&#45;&gt;Node8 -->
<g id="edge7" class="edge"><title>Node7&#45;&gt;Node8</title>
<path fill="none" stroke="midnightblue" d="M66.9197,-127.882C80.8733,-122.856 96.5183,-117.221 109.386,-112.586"/>
<polygon fill="midnightblue" stroke="midnightblue" points="65.3443,-124.729 57.1221,-131.411 67.7165,-131.315 65.3443,-124.729"/>
</g>
<!-- Node8&#45;&gt;Node6 -->
<g id="edge6" class="edge"><title>Node8&#45;&gt;Node6</title>
<path fill="none" stroke="#9a32cd" stroke-dasharray="5,2" d="M166.23,-89.2293C197.684,-76.013 249.096,-60.915 287,-82 300.257,-89.3744 294.964,-99.6241 305,-111 319.616,-127.568 340,-142.996 353.579,-152.451"/>
<polygon fill="#9a32cd" stroke="#9a32cd" points="164.498,-86.1678 156.761,-93.4059 167.323,-92.5725 164.498,-86.1678"/>
<text text-anchor="middle" x="241.5" y="-140" font-family="Helvetica,sans-Serif" font-size="10.00"> m_meanW</text>
<text text-anchor="middle" x="241.5" y="-129" font-family="Helvetica,sans-Serif" font-size="10.00">m_meanX</text>
<text text-anchor="middle" x="241.5" y="-118" font-family="Helvetica,sans-Serif" font-size="10.00">m_varV</text>
<text text-anchor="middle" x="241.5" y="-107" font-family="Helvetica,sans-Serif" font-size="10.00">m_varW</text>
<text text-anchor="middle" x="241.5" y="-96" font-family="Helvetica,sans-Serif" font-size="10.00">m_varX</text>
<text text-anchor="middle" x="241.5" y="-85" font-family="Helvetica,sans-Serif" font-size="10.00">m_meanV</text>
</g>
<!-- Node9&#45;&gt;Node2 -->
<g id="edge8" class="edge"><title>Node9&#45;&gt;Node2</title>
<path fill="none" stroke="#9a32cd" stroke-dasharray="5,2" d="M701.046,-201.16C748.902,-200.41 820.878,-194.609 878,-170 897.516,-161.592 915.75,-144.409 925.979,-133.589"/>
<polygon fill="#9a32cd" stroke="#9a32cd" points="700.885,-197.661 690.916,-201.249 700.947,-204.661 700.885,-197.661"/>
<text text-anchor="middle" x="807" y="-202" font-family="Helvetica,sans-Serif" font-size="10.00"> m_graphWindow</text>
</g>
<!-- Node10 -->
<g id="node9" class="node"><title>Node10</title>
<g id="a_node9"><a xlink:href="class_graph_sheet.html" target="_top" xlink:title="Класс, реализующий &quot;страницу&quot; окна графиков. ">
<polygon fill="white" stroke="black" points="332,-190.5 332,-209.5 406,-209.5 406,-190.5 332,-190.5"/>
<text text-anchor="middle" x="369" y="-197.5" font-family="Helvetica,sans-Serif" font-size="10.00">GraphSheet</text>
</a>
</g>
</g>
<!-- Node10&#45;&gt;Node9 -->
<g id="edge10" class="edge"><title>Node10&#45;&gt;Node9</title>
<path fill="none" stroke="#9a32cd" stroke-dasharray="5,2" d="M416.313,-200C469.095,-200 554.597,-200 605.352,-200"/>
<polygon fill="#9a32cd" stroke="#9a32cd" points="416.213,-196.5 406.213,-200 416.213,-203.5 416.213,-196.5"/>
<text text-anchor="middle" x="505.5" y="-203" font-family="Helvetica,sans-Serif" font-size="10.00"> m_currentSheet</text>
</g>
<!-- Node11 -->
<g id="node10" class="node"><title>Node11</title>
<g id="a_node10"><a xlink:href="struct_g_axis_range.html" target="_top" xlink:title="Структура для хранения границ осей координат. ">
<polygon fill="white" stroke="black" points="99,-190.5 99,-209.5 175,-209.5 175,-190.5 99,-190.5"/>
<text text-anchor="middle" x="137" y="-197.5" font-family="Helvetica,sans-Serif" font-size="10.00">GAxisRange</text>
</a>
</g>
</g>
<!-- Node11&#45;&gt;Node10 -->
<g id="edge11" class="edge"><title>Node11&#45;&gt;Node10</title>
<path fill="none" stroke="#9a32cd" stroke-dasharray="5,2" d="M185.267,-200C228.796,-200 292.439,-200 331.982,-200"/>
<polygon fill="#9a32cd" stroke="#9a32cd" points="185.209,-196.5 175.209,-200 185.209,-203.5 185.209,-196.5"/>
<text text-anchor="middle" x="241.5" y="-214" font-family="Helvetica,sans-Serif" font-size="10.00"> m_userAxisRange</text>
<text text-anchor="middle" x="241.5" y="-203" font-family="Helvetica,sans-Serif" font-size="10.00">m_axisRange</text>
</g>
<!-- Node12&#45;&gt;Node2 -->
<g id="edge12" class="edge"><title>Node12&#45;&gt;Node2</title>
<path fill="none" stroke="#9a32cd" stroke-dasharray="5,2" d="M718.274,-90.072C763.904,-93.4614 824.822,-99.3341 878,-109 885.888,-110.434 894.289,-112.411 902.134,-114.46"/>
<polygon fill="#9a32cd" stroke="#9a32cd" points="718.419,-86.5735 708.193,-89.345 717.916,-93.5553 718.419,-86.5735"/>
<text text-anchor="middle" x="807" y="-112" font-family="Helvetica,sans-Serif" font-size="10.00"> m_filterStartWidget</text>
</g>
<!-- Node13&#45;&gt;Node2 -->
<g id="edge14" class="edge"><title>Node13&#45;&gt;Node2</title>
<path fill="none" stroke="#9a32cd" stroke-dasharray="5,2" d="M723.841,-1.4114C771.392,0.352749 832.358,-4.53496 878,-33 908.769,-52.1893 925.445,-94.9445 931.646,-114.231"/>
<polygon fill="#9a32cd" stroke="#9a32cd" points="723.424,2.07274 713.602,-1.90049 723.758,-4.91929 723.424,2.07274"/>
<text text-anchor="middle" x="807" y="-36" font-family="Helvetica,sans-Serif" font-size="10.00"> m_filterParamsWidget</text>
</g>
<!-- Node14 -->
<g id="node13" class="node"><title>Node14</title>
<g id="a_node13"><a xlink:href="class_color_manager.html" target="_top" xlink:title="Класс для управления набором цветов. ">
<polygon fill="white" stroke="black" points="606,-38.5 606,-57.5 690,-57.5 690,-38.5 606,-38.5"/>
<text text-anchor="middle" x="648" y="-45.5" font-family="Helvetica,sans-Serif" font-size="10.00">ColorManager</text>
</a>
</g>
</g>
<!-- Node14&#45;&gt;Node2 -->
<g id="edge16" class="edge"><title>Node14&#45;&gt;Node2</title>
<path fill="none" stroke="#9a32cd" stroke-dasharray="5,2" d="M700.285,-46.001C748.206,-46.0094 820.751,-50.9167 878,-76 898.041,-84.781 916.381,-103.067 926.441,-114.361"/>
<polygon fill="#9a32cd" stroke="#9a32cd" points="700.125,-42.5019 690.15,-46.0722 700.174,-49.5017 700.125,-42.5019"/>
<text text-anchor="middle" x="807" y="-79" font-family="Helvetica,sans-Serif" font-size="10.00"> m_colorManager</text>
</g>
<!-- Node15&#45;&gt;Node2 -->
<g id="edge17" class="edge"><title>Node15&#45;&gt;Node2</title>
<path fill="none" stroke="#9a32cd" stroke-dasharray="5,2" d="M728.119,-124C782.742,-124 852.994,-124 895.838,-124"/>
<polygon fill="#9a32cd" stroke="#9a32cd" points="728.112,-120.5 718.112,-124 728.112,-127.5 728.112,-120.5"/>
<text text-anchor="middle" x="807" y="-127" font-family="Helvetica,sans-Serif" font-size="10.00"> m_additionalSettingsWidget</text>
</g>
</g>
</svg>
        <g id="navigator" transform="translate(0 0)" fill="#404254">
                <rect fill="#f2f5e9" fill-opacity="0.5" stroke="#606060" stroke-width=".5" x="0" y="0" width="60" height="60"/>
                <use id="zoomplus" xlink:href="#zoomPlus" x="17" y="9" onmousedown="handleZoom(evt,'in')"/>
                <use id="zoomminus" xlink:href="#zoomMin" x="42" y="9" onmousedown="handleZoom(evt,'out')"/>
                <use id="reset" xlink:href="#resetDef" x="30" y="36" onmousedown="handleReset()"/>
                <g id="arrowUp" xlink:href="#dirArrow" transform="translate(30 24)" onmousedown="handlePan(0,-1)">
                  <use xlink:href="#rim" fill="#404040">
                        <set attributeName="fill" to="#808080" begin="arrowUp.mouseover" end="arrowUp.mouseout"/>
                  </use>
                  <path fill="none" stroke="white" stroke-width="1.5" d="M0,-3.0v7 M-2.5,-0.5L0,-3.0L2.5,-0.5"/>
                </g>
                <g id="arrowRight" xlink:href="#dirArrow" transform="rotate(90) translate(36 -43)" onmousedown="handlePan(1,0)">
                  <use xlink:href="#rim" fill="#404040">
                        <set attributeName="fill" to="#808080" begin="arrowRight.mouseover" end="arrowRight.mouseout"/>
                  </use>
                  <path fill="none" stroke="white" stroke-width="1.5" d="M0,-3.0v7 M-2.5,-0.5L0,-3.0L2.5,-0.5"/>
                </g>
                <g id="arrowDown" xlink:href="#dirArrow" transform="rotate(180) translate(-30 -48)" onmousedown="handlePan(0,1)">
                  <use xlink:href="#rim" fill="#404040">
                        <set attributeName="fill" to="#808080" begin="arrowDown.mouseover" end="arrowDown.mouseout"/>
                  </use>
                  <path fill="none" stroke="white" stroke-width="1.5" d="M0,-3.0v7 M-2.5,-0.5L0,-3.0L2.5,-0.5"/>
                </g>
                <g id="arrowLeft" xlink:href="#dirArrow" transform="rotate(270) translate(-36 17)" onmousedown="handlePan(-1,0)">
                  <use xlink:href="#rim" fill="#404040">
                        <set attributeName="fill" to="#808080" begin="arrowLeft.mouseover" end="arrowLeft.mouseout"/>
                  </use>
                  <path fill="none" stroke="white" stroke-width="1.5" d="M0,-3.0v7 M-2.5,-0.5L0,-3.0L2.5,-0.5"/>
                </g>
        </g>
        <svg viewBox="0 0 15 15" width="100%" height="30px" preserveAspectRatio="xMaxYMin meet">
         <g id="arrow_out" transform="scale(0.3 0.3)">
          <a xlink:href="class_main_window__coll__graph_org.svg" target="_base">
           <rect id="button" ry="5" rx="5" y="6" x="6" height="38" width="38"
                fill="#f2f5e9" fill-opacity="0.5" stroke="#606060" stroke-width="1.0"/>
           <path id="arrow"
             d="M 11.500037,31.436501 C 11.940474,20.09759 22.043105,11.32322 32.158766,21.979434 L 37.068811,17.246167 C 37.068811,17.246167 37.088388,32 37.088388,32 L 22.160133,31.978069 C 22.160133,31.978069 26.997745,27.140456 26.997745,27.140456 C 18.528582,18.264221 13.291696,25.230495 11.500037,31.436501 z"
             style="fill:#404040;"/>
          </a>
         </g>
        </svg>
</svg>
