<?xml version="1.0" encoding="UTF-8" standalone="no"?>
<!DOCTYPE svg PUBLIC "-//W3C//DTD SVG 1.1//EN"
 "http://www.w3.org/Graphics/SVG/1.1/DTD/svg11.dtd">
<!-- Generated by graphviz version 2.38.0 (20140413.2041)
 -->
<!-- Title: TaskParametersWidget Pages: 1 -->
<svg width="168pt" height="207pt"
 viewBox="0.00 0.00 168.00 207.00" xmlns="http://www.w3.org/2000/svg" xmlns:xlink="http://www.w3.org/1999/xlink">
<g id="graph0" class="graph" transform="scale(1 1) rotate(0) translate(4 203)">
<title>TaskParametersWidget</title>
<polygon fill="white" stroke="none" points="-4,4 -4,-203 164,-203 164,4 -4,4"/>
<!-- Node2 -->
<g id="node1" class="node"><title>Node2</title>
<polygon fill="#bfbfbf" stroke="black" points="0,-0.5 0,-19.5 128,-19.5 128,-0.5 0,-0.5"/>
<text text-anchor="middle" x="64" y="-7.5" font-family="Helvetica,sans-Serif" font-size="10.00">TaskParametersWidget</text>
</g>
<!-- Node3 -->
<g id="node2" class="node"><title>Node3</title>
<polygon fill="white" stroke="#bfbfbf" points="41.5,-179.5 41.5,-198.5 100.5,-198.5 100.5,-179.5 41.5,-179.5"/>
<text text-anchor="middle" x="71" y="-186.5" font-family="Helvetica,sans-Serif" font-size="10.00">QWidget</text>
</g>
<!-- Node3&#45;&gt;Node2 -->
<g id="edge1" class="edge"><title>Node3&#45;&gt;Node2</title>
<path fill="none" stroke="midnightblue" d="M69.0809,-169.08C68.3098,-160.779 67.4892,-150.915 67,-142 64.4698,-95.8889 64.0659,-40.5344 64.0072,-19.5906"/>
<polygon fill="midnightblue" stroke="midnightblue" points="65.6129,-169.58 70.0659,-179.193 72.58,-168.901 65.6129,-169.58"/>
</g>
<!-- Node4 -->
<g id="node3" class="node"><title>Node4</title>
<g id="a_node3"><a xlink:href="class_matrix_widget.html" target="_top" xlink:title="Класс для отображения / изменения матриц (или векторов). ">
<polygon fill="white" stroke="black" points="76,-122.5 76,-141.5 158,-141.5 158,-122.5 76,-122.5"/>
<text text-anchor="middle" x="117" y="-129.5" font-family="Helvetica,sans-Serif" font-size="10.00">MatrixWidget</text>
</a>
</g>
</g>
<!-- Node3&#45;&gt;Node4 -->
<g id="edge3" class="edge"><title>Node3&#45;&gt;Node4</title>
<path fill="none" stroke="midnightblue" d="M84.7733,-171.532C92.9663,-161.736 103.032,-149.701 109.711,-141.715"/>
<polygon fill="midnightblue" stroke="midnightblue" points="81.9183,-169.49 78.1875,-179.406 87.2879,-173.981 81.9183,-169.49"/>
</g>
<!-- Node4&#45;&gt;Node2 -->
<g id="edge2" class="edge"><title>Node4&#45;&gt;Node2</title>
<path fill="none" stroke="#9a32cd" stroke-dasharray="5,2" d="M109.139,-113.201C97.5629,-86.9916 76.3764,-39.0221 67.7771,-19.5519"/>
<polygon fill="#9a32cd" stroke="#9a32cd" points="105.947,-114.636 113.188,-122.37 112.35,-111.808 105.947,-114.636"/>
<text text-anchor="middle" x="132" y="-96" font-family="Helvetica,sans-Serif" font-size="10.00"> m_meanW</text>
<text text-anchor="middle" x="132" y="-85" font-family="Helvetica,sans-Serif" font-size="10.00">m_meanX</text>
<text text-anchor="middle" x="132" y="-74" font-family="Helvetica,sans-Serif" font-size="10.00">m_varV</text>
<text text-anchor="middle" x="132" y="-63" font-family="Helvetica,sans-Serif" font-size="10.00">m_varW</text>
<text text-anchor="middle" x="132" y="-52" font-family="Helvetica,sans-Serif" font-size="10.00">m_varX</text>
<text text-anchor="middle" x="132" y="-41" font-family="Helvetica,sans-Serif" font-size="10.00">m_meanV</text>
</g>
</g>
</svg>
