<?xml version="1.0" encoding="UTF-8" standalone="no"?>
<!DOCTYPE svg PUBLIC "-//W3C//DTD SVG 1.1//EN"
 "http://www.w3.org/Graphics/SVG/1.1/DTD/svg11.dtd">
<!-- Generated by graphviz version 2.38.0 (20140413.2041)
 -->
<!-- Title: Core::Filter Pages: 1 -->
<svg width="434pt" height="355pt"
 viewBox="0.00 0.00 434.00 355.00" xmlns="http://www.w3.org/2000/svg" xmlns:xlink="http://www.w3.org/1999/xlink">
<g id="graph0" class="graph" transform="scale(1 1) rotate(0) translate(4 351)">
<title>Core::Filter</title>
<polygon fill="white" stroke="none" points="-4,4 -4,-351 430,-351 430,4 -4,4"/>
<!-- Node0 -->
<g id="node1" class="node"><title>Node0</title>
<polygon fill="#bfbfbf" stroke="black" points="0,-123.5 0,-142.5 65,-142.5 65,-123.5 0,-123.5"/>
<text text-anchor="middle" x="32.5" y="-130.5" font-family="Helvetica,sans-Serif" font-size="10.00">Core::Filter</text>
</g>
<!-- Node1 -->
<g id="node2" class="node"><title>Node1</title>
<g id="a_node2"><a xlink:href="class_core_1_1_continuous_discrete_filter.html" target="_top" xlink:title="Базовый класс для всех непрерывно&#45;дискретных фильтров оптимальной структуры. ">
<polygon fill="white" stroke="black" points="101,-229 101,-259 229,-259 229,-229 101,-229"/>
<text text-anchor="start" x="109" y="-247" font-family="Helvetica,sans-Serif" font-size="10.00">Core::ContinuousDiscrete</text>
<text text-anchor="middle" x="165" y="-236" font-family="Helvetica,sans-Serif" font-size="10.00">Filter</text>
</a>
</g>
</g>
<!-- Node0&#45;&gt;Node1 -->
<g id="edge1" class="edge"><title>Node0&#45;&gt;Node1</title>
<path fill="none" stroke="midnightblue" d="M52.8533,-149.461C78.0176,-170.866 121.633,-207.963 146.075,-228.753"/>
<polygon fill="midnightblue" stroke="midnightblue" points="54.9659,-146.664 45.081,-142.851 50.4306,-151.996 54.9659,-146.664"/>
</g>
<!-- Node6 -->
<g id="node7" class="node"><title>Node6</title>
<g id="a_node7"><a xlink:href="class_core_1_1_continuous_filter.html" target="_top" xlink:title="Базовый класс для всех непрерывныз фильтров оптимальной структуры. ">
<polygon fill="white" stroke="black" points="108.5,-123.5 108.5,-142.5 221.5,-142.5 221.5,-123.5 108.5,-123.5"/>
<text text-anchor="middle" x="165" y="-130.5" font-family="Helvetica,sans-Serif" font-size="10.00">Core::ContinuousFilter</text>
</a>
</g>
</g>
<!-- Node0&#45;&gt;Node6 -->
<g id="edge6" class="edge"><title>Node0&#45;&gt;Node6</title>
<path fill="none" stroke="midnightblue" d="M75.2923,-133C85.8592,-133 97.3728,-133 108.5,-133"/>
<polygon fill="midnightblue" stroke="midnightblue" points="75.0904,-129.5 65.0904,-133 75.0904,-136.5 75.0904,-129.5"/>
</g>
<!-- Node9 -->
<g id="node10" class="node"><title>Node9</title>
<g id="a_node10"><a xlink:href="class_core_1_1_discrete_filter.html" target="_top" xlink:title="Базовый класс для всех дискретных фильтров оптимальной структуры. ">
<polygon fill="white" stroke="black" points="114.5,-66.5 114.5,-85.5 215.5,-85.5 215.5,-66.5 114.5,-66.5"/>
<text text-anchor="middle" x="165" y="-73.5" font-family="Helvetica,sans-Serif" font-size="10.00">Core::DiscreteFilter</text>
</a>
</g>
</g>
<!-- Node0&#45;&gt;Node9 -->
<g id="edge9" class="edge"><title>Node0&#45;&gt;Node9</title>
<path fill="none" stroke="midnightblue" d="M64.6783,-119.382C88.5538,-108.954 120.889,-94.8303 142.086,-85.5716"/>
<polygon fill="midnightblue" stroke="midnightblue" points="63.1058,-116.249 55.3428,-123.459 65.9077,-122.664 63.1058,-116.249"/>
</g>
<!-- Node2 -->
<g id="node3" class="node"><title>Node2</title>
<g id="a_node3"><a xlink:href="class_filters_1_1_continuous_discrete_1_1_a_o_f.html" target="_top" xlink:title="Класс, реализующий непрерывно&#45;дискретный абсолютно оптимальной фильтр. ">
<polygon fill="white" stroke="black" points="265,-327.5 265,-346.5 426,-346.5 426,-327.5 265,-327.5"/>
<text text-anchor="middle" x="345.5" y="-334.5" font-family="Helvetica,sans-Serif" font-size="10.00">Filters::ContinuousDiscrete::AOF</text>
</a>
</g>
</g>
<!-- Node1&#45;&gt;Node2 -->
<g id="edge2" class="edge"><title>Node1&#45;&gt;Node2</title>
<path fill="none" stroke="midnightblue" d="M189.365,-265.84C208.372,-282.468 236.607,-304.694 265,-318 273.224,-321.854 282.305,-324.968 291.3,-327.472"/>
<polygon fill="midnightblue" stroke="midnightblue" points="191.603,-263.146 181.811,-259.099 186.942,-268.369 191.603,-263.146"/>
</g>
<!-- Node3 -->
<g id="node4" class="node"><title>Node3</title>
<g id="a_node4"><a xlink:href="class_filters_1_1_continuous_discrete_1_1_d_f_o_s.html" target="_top" xlink:title="Класс, реализующий непрерывно&#45;дискретный фильтр оптимальной структуры с дискретным прогнозом...">
<polygon fill="white" stroke="black" points="278.5,-278 278.5,-308 412.5,-308 412.5,-278 278.5,-278"/>
<text text-anchor="start" x="286.5" y="-296" font-family="Helvetica,sans-Serif" font-size="10.00">Filters::ContinuousDiscrete</text>
<text text-anchor="middle" x="345.5" y="-285" font-family="Helvetica,sans-Serif" font-size="10.00">::DFOS</text>
</a>
</g>
</g>
<!-- Node1&#45;&gt;Node3 -->
<g id="edge3" class="edge"><title>Node1&#45;&gt;Node3</title>
<path fill="none" stroke="midnightblue" d="M230.92,-261.821C250.193,-267.112 271.104,-272.852 289.669,-277.948"/>
<polygon fill="midnightblue" stroke="midnightblue" points="231.582,-258.374 221.012,-259.101 229.729,-265.124 231.582,-258.374"/>
</g>
<!-- Node4 -->
<g id="node5" class="node"><title>Node4</title>
<g id="a_node5"><a xlink:href="class_filters_1_1_continuous_discrete_1_1_d_f_o_s_b_o.html" target="_top" xlink:title="Класс, реализующий непрерывно&#45;дискретный фильтр оптимальной структуры повышеного порядка. ">
<polygon fill="white" stroke="black" points="278.5,-229 278.5,-259 412.5,-259 412.5,-229 278.5,-229"/>
<text text-anchor="start" x="286.5" y="-247" font-family="Helvetica,sans-Serif" font-size="10.00">Filters::ContinuousDiscrete</text>
<text text-anchor="middle" x="345.5" y="-236" font-family="Helvetica,sans-Serif" font-size="10.00">::DFOSBO</text>
</a>
</g>
</g>
<!-- Node1&#45;&gt;Node4 -->
<g id="edge4" class="edge"><title>Node1&#45;&gt;Node4</title>
<path fill="none" stroke="midnightblue" d="M239.416,-244C252.323,-244 265.686,-244 278.379,-244"/>
<polygon fill="midnightblue" stroke="midnightblue" points="239.184,-240.5 229.184,-244 239.184,-247.5 239.184,-240.5"/>
</g>
<!-- Node5 -->
<g id="node6" class="node"><title>Node5</title>
<g id="a_node6"><a xlink:href="class_filters_1_1_continuous_discrete_1_1_f_o_s.html" target="_top" xlink:title="Класс, реализующий непрерывно&#45;дискретный фильтр оптимальной структуры с непрерывным прогнозом...">
<polygon fill="white" stroke="black" points="265,-190.5 265,-209.5 426,-209.5 426,-190.5 265,-190.5"/>
<text text-anchor="middle" x="345.5" y="-197.5" font-family="Helvetica,sans-Serif" font-size="10.00">Filters::ContinuousDiscrete::FOS</text>
</a>
</g>
</g>
<!-- Node1&#45;&gt;Node5 -->
<g id="edge5" class="edge"><title>Node1&#45;&gt;Node5</title>
<path fill="none" stroke="midnightblue" d="M236.889,-226.526C260.428,-220.724 285.747,-214.482 305.91,-209.512"/>
<polygon fill="midnightblue" stroke="midnightblue" points="235.802,-223.189 226.93,-228.981 237.477,-229.986 235.802,-223.189"/>
</g>
<!-- Node7 -->
<g id="node8" class="node"><title>Node7</title>
<g id="a_node8"><a xlink:href="class_filters_1_1_continuous_1_1_a_o_f.html" target="_top" xlink:title="Класс, реализующий непрерывный абсолютно оптимальный фильтр. ">
<polygon fill="white" stroke="black" points="283,-152.5 283,-171.5 408,-171.5 408,-152.5 283,-152.5"/>
<text text-anchor="middle" x="345.5" y="-159.5" font-family="Helvetica,sans-Serif" font-size="10.00">Filters::Continuous::AOF</text>
</a>
</g>
</g>
<!-- Node6&#45;&gt;Node7 -->
<g id="edge7" class="edge"><title>Node6&#45;&gt;Node7</title>
<path fill="none" stroke="midnightblue" d="M231.775,-143.686C249.528,-146.57 268.615,-149.671 285.944,-152.487"/>
<polygon fill="midnightblue" stroke="midnightblue" points="231.932,-140.166 221.5,-142.017 230.809,-147.075 231.932,-140.166"/>
</g>
<!-- Node8 -->
<g id="node9" class="node"><title>Node8</title>
<g id="a_node9"><a xlink:href="class_filters_1_1_continuous_1_1_f_o_s.html" target="_top" xlink:title="Класс, реализующий непрерывный фильтр оптимальной структуры. ">
<polygon fill="white" stroke="black" points="283,-114.5 283,-133.5 408,-133.5 408,-114.5 283,-114.5"/>
<text text-anchor="middle" x="345.5" y="-121.5" font-family="Helvetica,sans-Serif" font-size="10.00">Filters::Continuous::FOS</text>
</a>
</g>
</g>
<!-- Node6&#45;&gt;Node8 -->
<g id="edge8" class="edge"><title>Node6&#45;&gt;Node8</title>
<path fill="none" stroke="midnightblue" d="M231.725,-129.686C248.431,-128.844 266.32,-127.942 282.817,-127.11"/>
<polygon fill="midnightblue" stroke="midnightblue" points="231.311,-126.202 221.5,-130.202 231.664,-133.194 231.311,-126.202"/>
</g>
<!-- Node10 -->
<g id="node11" class="node"><title>Node10</title>
<g id="a_node11"><a xlink:href="class_filters_1_1_discrete_1_1_a_o_f.html" target="_top" xlink:title="Класс, реализующий дискретный абсолютно оптимальной фильтр. ">
<polygon fill="white" stroke="black" points="289.5,-76.5 289.5,-95.5 401.5,-95.5 401.5,-76.5 289.5,-76.5"/>
<text text-anchor="middle" x="345.5" y="-83.5" font-family="Helvetica,sans-Serif" font-size="10.00">Filters::Discrete::AOF</text>
</a>
</g>
</g>
<!-- Node9&#45;&gt;Node10 -->
<g id="edge10" class="edge"><title>Node9&#45;&gt;Node10</title>
<path fill="none" stroke="midnightblue" d="M225.9,-79.3558C246.423,-80.5055 269.275,-81.7857 289.4,-82.9132"/>
<polygon fill="midnightblue" stroke="midnightblue" points="225.902,-75.8505 215.722,-78.7856 225.511,-82.8395 225.902,-75.8505"/>
</g>
<!-- Node11 -->
<g id="node12" class="node"><title>Node11</title>
<g id="a_node12"><a xlink:href="class_filters_1_1_discrete_1_1_f_o_s.html" target="_top" xlink:title="Класс, реализующий дискретный фильтр оптимальной структуры. ">
<polygon fill="white" stroke="black" points="289.5,-38.5 289.5,-57.5 401.5,-57.5 401.5,-38.5 289.5,-38.5"/>
<text text-anchor="middle" x="345.5" y="-45.5" font-family="Helvetica,sans-Serif" font-size="10.00">Filters::Discrete::FOS</text>
</a>
</g>
</g>
<!-- Node9&#45;&gt;Node11 -->
<g id="edge11" class="edge"><title>Node9&#45;&gt;Node11</title>
<path fill="none" stroke="midnightblue" d="M225.619,-66.648C246.214,-63.4174 269.184,-59.8143 289.4,-56.6431"/>
<polygon fill="midnightblue" stroke="midnightblue" points="225.059,-63.193 215.722,-68.2004 226.144,-70.1084 225.059,-63.193"/>
</g>
<!-- Node12 -->
<g id="node13" class="node"><title>Node12</title>
<g id="a_node13"><a xlink:href="class_filters_1_1_discrete_1_1_m_f_o_s.html" target="_top" xlink:title="Filters::Discrete::MFOS">
<polygon fill="white" stroke="black" points="285.5,-0.5 285.5,-19.5 405.5,-19.5 405.5,-0.5 285.5,-0.5"/>
<text text-anchor="middle" x="345.5" y="-7.5" font-family="Helvetica,sans-Serif" font-size="10.00">Filters::Discrete::MFOS</text>
</a>
</g>
</g>
<!-- Node9&#45;&gt;Node12 -->
<g id="edge12" class="edge"><title>Node9&#45;&gt;Node12</title>
<path fill="none" stroke="midnightblue" d="M192.337,-61.6398C211.926,-51.4221 239.556,-37.9694 265,-29 275.305,-25.3672 286.604,-22.2008 297.365,-19.5489"/>
<polygon fill="midnightblue" stroke="midnightblue" points="190.614,-58.5918 183.412,-66.3621 193.888,-64.7792 190.614,-58.5918"/>
</g>
</g>
</svg>
