<?xml version="1.0" encoding="UTF-8" standalone="no"?>
<!DOCTYPE svg PUBLIC "-//W3C//DTD SVG 1.1//EN"
 "http://www.w3.org/Graphics/SVG/1.1/DTD/svg11.dtd">
<!-- Generated by graphviz version 2.38.0 (20140413.2041)
 -->
<!-- Title: Tasks::ContinuousDiscrete::LandingGauss Pages: 1 -->
<svg width="278pt" height="299pt"
 viewBox="0.00 0.00 277.50 299.00" xmlns="http://www.w3.org/2000/svg" xmlns:xlink="http://www.w3.org/1999/xlink">
<g id="graph0" class="graph" transform="scale(1 1) rotate(0) translate(4 295)">
<title>Tasks::ContinuousDiscrete::LandingGauss</title>
<polygon fill="white" stroke="none" points="-4,4 -4,-295 273.5,-295 273.5,4 -4,4"/>
<!-- Node5 -->
<g id="node1" class="node"><title>Node5</title>
<polygon fill="#bfbfbf" stroke="black" points="54.5,-0.5 54.5,-30.5 199.5,-30.5 199.5,-0.5 54.5,-0.5"/>
<text text-anchor="start" x="62.5" y="-18.5" font-family="Helvetica,sans-Serif" font-size="10.00">Tasks::ContinuousDiscrete</text>
<text text-anchor="middle" x="127" y="-7.5" font-family="Helvetica,sans-Serif" font-size="10.00">::LandingGauss</text>
</g>
<!-- Node6 -->
<g id="node2" class="node"><title>Node6</title>
<g id="a_node2"><a xlink:href="class_tasks_1_1_continuous_discrete_1_1_landing_linear.html" target="_top" xlink:title="Задача спуска ЛА на планету (непрерывно&#45;дискретная, линеаризованная) для фильтров оптимальной структу...">
<polygon fill="white" stroke="black" points="54.5,-68.5 54.5,-98.5 199.5,-98.5 199.5,-68.5 54.5,-68.5"/>
<text text-anchor="start" x="62.5" y="-86.5" font-family="Helvetica,sans-Serif" font-size="10.00">Tasks::ContinuousDiscrete</text>
<text text-anchor="middle" x="127" y="-75.5" font-family="Helvetica,sans-Serif" font-size="10.00">::LandingLinear</text>
</a>
</g>
</g>
<!-- Node6&#45;&gt;Node5 -->
<g id="edge1" class="edge"><title>Node6&#45;&gt;Node5</title>
<path fill="none" stroke="midnightblue" d="M127,-58.0322C127,-48.8606 127,-38.7449 127,-30.7931"/>
<polygon fill="midnightblue" stroke="midnightblue" points="123.5,-58.1789 127,-68.179 130.5,-58.179 123.5,-58.1789"/>
</g>
<!-- Node7 -->
<g id="node3" class="node"><title>Node7</title>
<g id="a_node3"><a xlink:href="class_core_1_1_continuous_discrete_task.html" target="_top" xlink:title="Базовый тип задач для непрерывно&#45;дискретных фильтров оптимальной структуры. ">
<polygon fill="white" stroke="black" points="46,-136.5 46,-155.5 208,-155.5 208,-136.5 46,-136.5"/>
<text text-anchor="middle" x="127" y="-143.5" font-family="Helvetica,sans-Serif" font-size="10.00">Core::ContinuousDiscreteTask</text>
</a>
</g>
</g>
<!-- Node7&#45;&gt;Node6 -->
<g id="edge2" class="edge"><title>Node7&#45;&gt;Node6</title>
<path fill="none" stroke="midnightblue" d="M127,-126.215C127,-117.356 127,-106.958 127,-98.7587"/>
<polygon fill="midnightblue" stroke="midnightblue" points="123.5,-126.332 127,-136.332 130.5,-126.332 123.5,-126.332"/>
</g>
<!-- Node8 -->
<g id="node4" class="node"><title>Node8</title>
<g id="a_node4"><a xlink:href="class_core_1_1_task.html" target="_top" xlink:title="Базовый класс для всех задач ">
<polygon fill="white" stroke="black" points="93.5,-193.5 93.5,-212.5 160.5,-212.5 160.5,-193.5 93.5,-193.5"/>
<text text-anchor="middle" x="127" y="-200.5" font-family="Helvetica,sans-Serif" font-size="10.00">Core::Task</text>
</a>
</g>
</g>
<!-- Node8&#45;&gt;Node7 -->
<g id="edge3" class="edge"><title>Node8&#45;&gt;Node7</title>
<path fill="none" stroke="midnightblue" d="M127,-183.117C127,-173.817 127,-163.056 127,-155.715"/>
<polygon fill="midnightblue" stroke="midnightblue" points="123.5,-183.406 127,-193.406 130.5,-183.406 123.5,-183.406"/>
</g>
<!-- Node9 -->
<g id="node5" class="node"><title>Node9</title>
<g id="a_node5"><a xlink:href="class_core_1_1_function_time.html" target="_top" xlink:title="Базовый класс для классов, представляющих собой функции времени. ">
<polygon fill="white" stroke="black" points="0,-266 0,-285 110,-285 110,-266 0,-266"/>
<text text-anchor="middle" x="55" y="-273" font-family="Helvetica,sans-Serif" font-size="10.00">Core::FunctionTime</text>
</a>
</g>
</g>
<!-- Node9&#45;&gt;Node8 -->
<g id="edge4" class="edge"><title>Node9&#45;&gt;Node8</title>
<path fill="none" stroke="midnightblue" d="M71.1442,-258.692C85.6456,-244.493 106.402,-224.169 118.099,-212.715"/>
<polygon fill="midnightblue" stroke="midnightblue" points="68.525,-256.358 63.8286,-265.855 73.4224,-261.36 68.525,-256.358"/>
</g>
<!-- Node10 -->
<g id="node6" class="node"><title>Node10</title>
<g id="a_node6"><a xlink:href="class_math_1_1_multivariate_normal_distribution.html" target="_top" xlink:title="Класс&#45;генератор случайных нормальных(гауссовских) векторов. ">
<polygon fill="white" stroke="black" points="128.5,-260.5 128.5,-290.5 269.5,-290.5 269.5,-260.5 128.5,-260.5"/>
<text text-anchor="start" x="136.5" y="-278.5" font-family="Helvetica,sans-Serif" font-size="10.00">Math::MultivariateNormal</text>
<text text-anchor="middle" x="199" y="-267.5" font-family="Helvetica,sans-Serif" font-size="10.00">Distribution</text>
</a>
</g>
</g>
<!-- Node10&#45;&gt;Node8 -->
<g id="edge5" class="edge"><title>Node10&#45;&gt;Node8</title>
<path fill="none" stroke="#9a32cd" stroke-dasharray="5,2" d="M177.182,-253.137C163.411,-239.653 146.345,-222.942 136.082,-212.893"/>
<polygon fill="#9a32cd" stroke="#9a32cd" points="174.836,-255.738 184.43,-260.233 179.733,-250.736 174.836,-255.738"/>
<text text-anchor="middle" x="205" y="-234" font-family="Helvetica,sans-Serif" font-size="10.00"> m_normalRand</text>
</g>
</g>
</svg>
