<?xml version="1.0" encoding="UTF-8" standalone="no"?>
<!DOCTYPE svg PUBLIC "-//W3C//DTD SVG 1.1//EN"
 "http://www.w3.org/Graphics/SVG/1.1/DTD/svg11.dtd">
<!-- Generated by graphviz version 2.38.0 (20140413.2041)
 -->
<!-- Title: TaskParametersWidget Pages: 1 -->
<svg width="155pt" height="207pt"
 viewBox="0.00 0.00 154.50 207.00" xmlns="http://www.w3.org/2000/svg" xmlns:xlink="http://www.w3.org/1999/xlink">
<g id="graph0" class="graph" transform="scale(1 1) rotate(0) translate(4 203)">
<title>TaskParametersWidget</title>
<polygon fill="white" stroke="none" points="-4,4 -4,-203 150.5,-203 150.5,4 -4,4"/>
<!-- Node2 -->
<g id="node1" class="node"><title>Node2</title>
<polygon fill="#bfbfbf" stroke="black" points="0,-0.5 0,-19.5 119,-19.5 119,-0.5 0,-0.5"/>
<text text-anchor="middle" x="59.5" y="-7.5" font-family="Helvetica,sans-Serif" font-size="10.00">TaskParametersWidget</text>
</g>
<!-- Node3 -->
<g id="node2" class="node"><title>Node3</title>
<polygon fill="white" stroke="#bfbfbf" points="38.5,-179.5 38.5,-198.5 92.5,-198.5 92.5,-179.5 38.5,-179.5"/>
<text text-anchor="middle" x="65.5" y="-186.5" font-family="Helvetica,sans-Serif" font-size="10.00">QWidget</text>
</g>
<!-- Node3&#45;&gt;Node2 -->
<g id="edge1" class="edge"><title>Node3&#45;&gt;Node2</title>
<path fill="none" stroke="midnightblue" d="M64.0849,-169.07C63.5109,-160.768 62.8922,-150.905 62.5,-142 60.4682,-95.8642 59.7723,-40.5242 59.5713,-19.5874"/>
<polygon fill="midnightblue" stroke="midnightblue" points="60.6042,-169.465 64.8143,-179.188 67.5861,-168.962 60.6042,-169.465"/>
</g>
<!-- Node4 -->
<g id="node3" class="node"><title>Node4</title>
<g id="a_node3"><a xlink:href="class_matrix_widget.html" target="_top" xlink:title="Класс для отображения / изменения матриц (или векторов). ">
<polygon fill="white" stroke="black" points="71.5,-122.5 71.5,-141.5 145.5,-141.5 145.5,-122.5 71.5,-122.5"/>
<text text-anchor="middle" x="108.5" y="-129.5" font-family="Helvetica,sans-Serif" font-size="10.00">MatrixWidget</text>
</a>
</g>
</g>
<!-- Node3&#45;&gt;Node4 -->
<g id="edge3" class="edge"><title>Node3&#45;&gt;Node4</title>
<path fill="none" stroke="midnightblue" d="M78.6076,-171.234C86.2235,-161.493 95.5059,-149.62 101.687,-141.715"/>
<polygon fill="midnightblue" stroke="midnightblue" points="75.6207,-169.372 72.2188,-179.406 81.1353,-173.684 75.6207,-169.372"/>
</g>
<!-- Node4&#45;&gt;Node2 -->
<g id="edge2" class="edge"><title>Node4&#45;&gt;Node2</title>
<path fill="none" stroke="#9a32cd" stroke-dasharray="5,2" d="M101.089,-112.851C90.3568,-86.5676 70.9072,-38.936 62.992,-19.5519"/>
<polygon fill="#9a32cd" stroke="#9a32cd" points="97.9554,-114.435 104.976,-122.37 104.436,-111.789 97.9554,-114.435"/>
<text text-anchor="middle" x="121.5" y="-96" font-family="Helvetica,sans-Serif" font-size="10.00"> m_meanW</text>
<text text-anchor="middle" x="121.5" y="-85" font-family="Helvetica,sans-Serif" font-size="10.00">m_meanX</text>
<text text-anchor="middle" x="121.5" y="-74" font-family="Helvetica,sans-Serif" font-size="10.00">m_varV</text>
<text text-anchor="middle" x="121.5" y="-63" font-family="Helvetica,sans-Serif" font-size="10.00">m_varW</text>
<text text-anchor="middle" x="121.5" y="-52" font-family="Helvetica,sans-Serif" font-size="10.00">m_varX</text>
<text text-anchor="middle" x="121.5" y="-41" font-family="Helvetica,sans-Serif" font-size="10.00">m_meanV</text>
</g>
</g>
</svg>
