<?xml version="1.0" encoding="UTF-8" standalone="no"?>
<!DOCTYPE svg PUBLIC "-//W3C//DTD SVG 1.1//EN"
 "http://www.w3.org/Graphics/SVG/1.1/DTD/svg11.dtd">
<!-- Generated by graphviz version 2.38.0 (20140413.2041)
 -->
<!-- Title: Иерархия классов. Графический вид. Pages: 1 -->
<svg width="437pt" height="355pt"
 viewBox="0.00 0.00 437.00 355.00" xmlns="http://www.w3.org/2000/svg" xmlns:xlink="http://www.w3.org/1999/xlink">
<g id="graph0" class="graph" transform="scale(1 1) rotate(0) translate(4 351)">
<title>Иерархия классов. Графический вид.</title>
<polygon fill="white" stroke="none" points="-4,4 -4,-351 433,-351 433,4 -4,4"/>
<!-- Node1 -->
<g id="node1" class="node"><title>Node1</title>
<g id="a_node1"><a xlink:href="class_core_1_1_filter.html" target="_top" xlink:title="Базовый класс для всех фильтров. ">
<polygon fill="white" stroke="black" points="0,-123.5 0,-142.5 65,-142.5 65,-123.5 0,-123.5"/>
<text text-anchor="middle" x="32.5" y="-130.5" font-family="Helvetica,sans-Serif" font-size="10.00">Core::Filter</text>
</a>
</g>
</g>
<!-- Node2 -->
<g id="node2" class="node"><title>Node2</title>
<g id="a_node2"><a xlink:href="class_core_1_1_continuous_discrete_filter.html" target="_top" xlink:title="Базовый класс для всех непрерывно&#45;дискретных фильтров оптимальной структуры. ">
<polygon fill="white" stroke="black" points="101,-229 101,-259 231,-259 231,-229 101,-229"/>
<text text-anchor="start" x="109" y="-247" font-family="Helvetica,sans-Serif" font-size="10.00">Core::ContinuousDiscrete</text>
<text text-anchor="middle" x="166" y="-236" font-family="Helvetica,sans-Serif" font-size="10.00">Filter</text>
</a>
</g>
</g>
<!-- Node1&#45;&gt;Node2 -->
<g id="edge1" class="edge"><title>Node1&#45;&gt;Node2</title>
<path fill="none" stroke="midnightblue" d="M53.0016,-149.461C78.3588,-170.866 122.308,-207.963 146.937,-228.753"/>
<polygon fill="midnightblue" stroke="midnightblue" points="55.069,-146.626 45.1697,-142.851 50.5537,-151.975 55.069,-146.626"/>
</g>
<!-- Node7 -->
<g id="node7" class="node"><title>Node7</title>
<g id="a_node7"><a xlink:href="class_core_1_1_continuous_filter.html" target="_top" xlink:title="Базовый класс для всех непрерывныз фильтров оптимальной структуры. ">
<polygon fill="white" stroke="black" points="108.5,-123.5 108.5,-142.5 223.5,-142.5 223.5,-123.5 108.5,-123.5"/>
<text text-anchor="middle" x="166" y="-130.5" font-family="Helvetica,sans-Serif" font-size="10.00">Core::ContinuousFilter</text>
</a>
</g>
</g>
<!-- Node1&#45;&gt;Node7 -->
<g id="edge6" class="edge"><title>Node1&#45;&gt;Node7</title>
<path fill="none" stroke="midnightblue" d="M75.428,-133C85.8803,-133 97.2614,-133 108.296,-133"/>
<polygon fill="midnightblue" stroke="midnightblue" points="75.3325,-129.5 65.3325,-133 75.3324,-136.5 75.3325,-129.5"/>
</g>
<!-- Node10 -->
<g id="node10" class="node"><title>Node10</title>
<g id="a_node10"><a xlink:href="class_core_1_1_discrete_filter.html" target="_top" xlink:title="Базовый класс для всех дискретных фильтров оптимальной структуры. ">
<polygon fill="white" stroke="black" points="115,-66.5 115,-85.5 217,-85.5 217,-66.5 115,-66.5"/>
<text text-anchor="middle" x="166" y="-73.5" font-family="Helvetica,sans-Serif" font-size="10.00">Core::DiscreteFilter</text>
</a>
</g>
</g>
<!-- Node1&#45;&gt;Node10 -->
<g id="edge9" class="edge"><title>Node1&#45;&gt;Node10</title>
<path fill="none" stroke="midnightblue" d="M64.9172,-119.382C88.9756,-108.954 121.558,-94.8303 142.918,-85.5716"/>
<polygon fill="midnightblue" stroke="midnightblue" points="63.2933,-116.271 55.5101,-123.459 66.0773,-122.694 63.2933,-116.271"/>
</g>
<!-- Node3 -->
<g id="node3" class="node"><title>Node3</title>
<g id="a_node3"><a xlink:href="class_filters_1_1_continuous_discrete_1_1_a_o_f.html" target="_top" xlink:title="Класс, реализующий непрерывно&#45;дискретный абсолютно оптимальной фильтр. ">
<polygon fill="white" stroke="black" points="267,-327.5 267,-346.5 429,-346.5 429,-327.5 267,-327.5"/>
<text text-anchor="middle" x="348" y="-334.5" font-family="Helvetica,sans-Serif" font-size="10.00">Filters::ContinuousDiscrete::AOF</text>
</a>
</g>
</g>
<!-- Node2&#45;&gt;Node3 -->
<g id="edge2" class="edge"><title>Node2&#45;&gt;Node3</title>
<path fill="none" stroke="midnightblue" d="M190.635,-265.842C209.852,-282.47 238.381,-304.697 267,-318 275.285,-321.851 284.427,-324.964 293.481,-327.467"/>
<polygon fill="midnightblue" stroke="midnightblue" points="192.81,-263.093 182.996,-259.1 188.178,-268.342 192.81,-263.093"/>
</g>
<!-- Node4 -->
<g id="node4" class="node"><title>Node4</title>
<g id="a_node4"><a xlink:href="class_filters_1_1_continuous_discrete_1_1_d_f_o_s.html" target="_top" xlink:title="Класс, реализующий непрерывно&#45;дискретный фильтр оптимальной структуры с дискретным прогнозом...">
<polygon fill="white" stroke="black" points="280,-278 280,-308 416,-308 416,-278 280,-278"/>
<text text-anchor="start" x="288" y="-296" font-family="Helvetica,sans-Serif" font-size="10.00">Filters::ContinuousDiscrete</text>
<text text-anchor="middle" x="348" y="-285" font-family="Helvetica,sans-Serif" font-size="10.00">::DFOS</text>
</a>
</g>
</g>
<!-- Node2&#45;&gt;Node4 -->
<g id="edge3" class="edge"><title>Node2&#45;&gt;Node4</title>
<path fill="none" stroke="midnightblue" d="M232.198,-261.748C251.707,-267.059 272.902,-272.829 291.708,-277.948"/>
<polygon fill="midnightblue" stroke="midnightblue" points="233.043,-258.351 222.475,-259.101 231.204,-265.105 233.043,-258.351"/>
</g>
<!-- Node5 -->
<g id="node5" class="node"><title>Node5</title>
<g id="a_node5"><a xlink:href="class_filters_1_1_continuous_discrete_1_1_d_f_o_s_b_o.html" target="_top" xlink:title="Класс, реализующий непрерывно&#45;дискретный фильтр оптимальной структуры повышеного порядка. ">
<polygon fill="white" stroke="black" points="280,-229 280,-259 416,-259 416,-229 280,-229"/>
<text text-anchor="start" x="288" y="-247" font-family="Helvetica,sans-Serif" font-size="10.00">Filters::ContinuousDiscrete</text>
<text text-anchor="middle" x="348" y="-236" font-family="Helvetica,sans-Serif" font-size="10.00">::DFOSBO</text>
</a>
</g>
</g>
<!-- Node2&#45;&gt;Node5 -->
<g id="edge4" class="edge"><title>Node2&#45;&gt;Node5</title>
<path fill="none" stroke="midnightblue" d="M241.322,-244C254.057,-244 267.224,-244 279.761,-244"/>
<polygon fill="midnightblue" stroke="midnightblue" points="241.222,-240.5 231.222,-244 241.222,-247.5 241.222,-240.5"/>
</g>
<!-- Node6 -->
<g id="node6" class="node"><title>Node6</title>
<g id="a_node6"><a xlink:href="class_filters_1_1_continuous_discrete_1_1_f_o_s.html" target="_top" xlink:title="Класс, реализующий непрерывно&#45;дискретный фильтр оптимальной структуры с непрерывным прогнозом...">
<polygon fill="white" stroke="black" points="267,-190.5 267,-209.5 429,-209.5 429,-190.5 267,-190.5"/>
<text text-anchor="middle" x="348" y="-197.5" font-family="Helvetica,sans-Serif" font-size="10.00">Filters::ContinuousDiscrete::FOS</text>
</a>
</g>
</g>
<!-- Node2&#45;&gt;Node6 -->
<g id="edge5" class="edge"><title>Node2&#45;&gt;Node6</title>
<path fill="none" stroke="midnightblue" d="M238.167,-226.604C261.993,-220.779 287.663,-214.505 308.086,-209.512"/>
<polygon fill="midnightblue" stroke="midnightblue" points="237.325,-223.206 228.442,-228.981 238.987,-230.006 237.325,-223.206"/>
</g>
<!-- Node8 -->
<g id="node8" class="node"><title>Node8</title>
<g id="a_node8"><a xlink:href="class_filters_1_1_continuous_1_1_a_o_f.html" target="_top" xlink:title="Класс, реализующий непрерывный абсолютно оптимальный фильтр. ">
<polygon fill="white" stroke="black" points="285.5,-152.5 285.5,-171.5 410.5,-171.5 410.5,-152.5 285.5,-152.5"/>
<text text-anchor="middle" x="348" y="-159.5" font-family="Helvetica,sans-Serif" font-size="10.00">Filters::Continuous::AOF</text>
</a>
</g>
</g>
<!-- Node7&#45;&gt;Node8 -->
<g id="edge7" class="edge"><title>Node7&#45;&gt;Node8</title>
<path fill="none" stroke="midnightblue" d="M234.18,-143.823C251.835,-146.668 270.743,-149.714 287.937,-152.484"/>
<polygon fill="midnightblue" stroke="midnightblue" points="234.383,-140.311 223.953,-142.176 233.269,-147.222 234.383,-140.311"/>
</g>
<!-- Node9 -->
<g id="node9" class="node"><title>Node9</title>
<g id="a_node9"><a xlink:href="class_filters_1_1_continuous_1_1_f_o_s.html" target="_top" xlink:title="Класс, реализующий непрерывный фильтр оптимальной структуры. ">
<polygon fill="white" stroke="black" points="285.5,-114.5 285.5,-133.5 410.5,-133.5 410.5,-114.5 285.5,-114.5"/>
<text text-anchor="middle" x="348" y="-121.5" font-family="Helvetica,sans-Serif" font-size="10.00">Filters::Continuous::FOS</text>
</a>
</g>
</g>
<!-- Node7&#45;&gt;Node9 -->
<g id="edge8" class="edge"><title>Node7&#45;&gt;Node9</title>
<path fill="none" stroke="midnightblue" d="M234.235,-129.638C251.02,-128.799 268.936,-127.903 285.432,-127.078"/>
<polygon fill="midnightblue" stroke="midnightblue" points="233.766,-126.157 223.953,-130.152 234.115,-133.149 233.766,-126.157"/>
</g>
<!-- Node11 -->
<g id="node11" class="node"><title>Node11</title>
<g id="a_node11"><a xlink:href="class_filters_1_1_discrete_1_1_a_o_f.html" target="_top" xlink:title="Класс, реализующий дискретный абсолютно оптимальной фильтр. ">
<polygon fill="white" stroke="black" points="291.5,-76.5 291.5,-95.5 404.5,-95.5 404.5,-76.5 291.5,-76.5"/>
<text text-anchor="middle" x="348" y="-83.5" font-family="Helvetica,sans-Serif" font-size="10.00">Filters::Discrete::AOF</text>
</a>
</g>
</g>
<!-- Node10&#45;&gt;Node11 -->
<g id="edge10" class="edge"><title>Node10&#45;&gt;Node11</title>
<path fill="none" stroke="midnightblue" d="M227.404,-79.3558C248.099,-80.5055 271.143,-81.7857 291.437,-82.9132"/>
<polygon fill="midnightblue" stroke="midnightblue" points="227.319,-75.8457 217.14,-78.7856 226.93,-82.835 227.319,-75.8457"/>
</g>
<!-- Node12 -->
<g id="node12" class="node"><title>Node12</title>
<g id="a_node12"><a xlink:href="class_filters_1_1_discrete_1_1_f_o_s.html" target="_top" xlink:title="Класс, реализующий дискретный фильтр оптимальной структуры. ">
<polygon fill="white" stroke="black" points="291.5,-38.5 291.5,-57.5 404.5,-57.5 404.5,-38.5 291.5,-38.5"/>
<text text-anchor="middle" x="348" y="-45.5" font-family="Helvetica,sans-Serif" font-size="10.00">Filters::Discrete::FOS</text>
</a>
</g>
</g>
<!-- Node10&#45;&gt;Node12 -->
<g id="edge11" class="edge"><title>Node10&#45;&gt;Node12</title>
<path fill="none" stroke="midnightblue" d="M227.12,-66.648C247.888,-63.4174 271.051,-59.8143 291.437,-56.6431"/>
<polygon fill="midnightblue" stroke="midnightblue" points="226.483,-63.2049 217.14,-68.2004 227.559,-70.1217 226.483,-63.2049"/>
</g>
<!-- Node13 -->
<g id="node13" class="node"><title>Node13</title>
<g id="a_node13"><a xlink:href="class_filters_1_1_discrete_1_1_m_f_o_s.html" target="_top" xlink:title="Filters::Discrete::MFOS">
<polygon fill="white" stroke="black" points="287.5,-0.5 287.5,-19.5 408.5,-19.5 408.5,-0.5 287.5,-0.5"/>
<text text-anchor="middle" x="348" y="-7.5" font-family="Helvetica,sans-Serif" font-size="10.00">Filters::Discrete::MFOS</text>
</a>
</g>
</g>
<!-- Node10&#45;&gt;Node13 -->
<g id="edge12" class="edge"><title>Node10&#45;&gt;Node13</title>
<path fill="none" stroke="midnightblue" d="M193.617,-61.6435C213.41,-51.4276 241.323,-37.9755 267,-29 277.376,-25.373 288.748,-22.209 299.578,-19.5575"/>
<polygon fill="midnightblue" stroke="midnightblue" points="191.834,-58.6261 184.598,-66.3648 195.08,-64.8278 191.834,-58.6261"/>
</g>
</g>
</svg>
