<?xml version="1.0" encoding="UTF-8" standalone="no"?>
<!DOCTYPE svg PUBLIC "-//W3C//DTD SVG 1.1//EN"
 "http://www.w3.org/Graphics/SVG/1.1/DTD/svg11.dtd">
<!-- Generated by graphviz version 2.38.0 (20140413.2041)
 -->
<!-- Title: Иерархия классов. Графический вид. Pages: 1 -->
<svg width="200pt" height="66pt"
 viewBox="0.00 0.00 200.00 66.00" xmlns="http://www.w3.org/2000/svg" xmlns:xlink="http://www.w3.org/1999/xlink">
<g id="graph0" class="graph" transform="scale(1 1) rotate(0) translate(4 62)">
<title>Иерархия классов. Графический вид.</title>
<polygon fill="white" stroke="none" points="-4,4 -4,-62 196,-62 196,4 -4,4"/>
<!-- Node5 -->
<g id="node1" class="node"><title>Node5</title>
<polygon fill="white" stroke="#bfbfbf" points="0,-19.5 0,-38.5 79,-38.5 79,-19.5 0,-19.5"/>
<text text-anchor="middle" x="39.5" y="-26.5" font-family="Helvetica,sans-Serif" font-size="10.00">QMainWindow</text>
</g>
<!-- Node0 -->
<g id="node2" class="node"><title>Node0</title>
<g id="a_node2"><a xlink:href="class_graph_window.html" target="_top" xlink:title="Класс, реализующий окно для просмотра графиков. ">
<polygon fill="white" stroke="black" points="115,-38.5 115,-57.5 192,-57.5 192,-38.5 115,-38.5"/>
<text text-anchor="middle" x="153.5" y="-45.5" font-family="Helvetica,sans-Serif" font-size="10.00">GraphWindow</text>
</a>
</g>
</g>
<!-- Node5&#45;&gt;Node0 -->
<g id="edge1" class="edge"><title>Node5&#45;&gt;Node0</title>
<path fill="none" stroke="midnightblue" d="M88.971,-37.2228C97.5638,-38.6805 106.398,-40.179 114.643,-41.5778"/>
<polygon fill="midnightblue" stroke="midnightblue" points="89.4886,-33.7606 79.044,-35.5387 88.3178,-40.662 89.4886,-33.7606"/>
</g>
<!-- Node7 -->
<g id="node3" class="node"><title>Node7</title>
<g id="a_node3"><a xlink:href="class_main_window.html" target="_top" xlink:title="Класс для главного окна приложения. ">
<polygon fill="white" stroke="black" points="118,-0.5 118,-19.5 189,-19.5 189,-0.5 118,-0.5"/>
<text text-anchor="middle" x="153.5" y="-7.5" font-family="Helvetica,sans-Serif" font-size="10.00">MainWindow</text>
</a>
</g>
</g>
<!-- Node5&#45;&gt;Node7 -->
<g id="edge2" class="edge"><title>Node5&#45;&gt;Node7</title>
<path fill="none" stroke="midnightblue" d="M88.9433,-20.7819C98.5958,-19.1445 108.553,-17.4552 117.641,-15.9137"/>
<polygon fill="midnightblue" stroke="midnightblue" points="88.3178,-17.338 79.044,-22.4613 89.4886,-24.2394 88.3178,-17.338"/>
</g>
</g>
</svg>
