<?xml version="1.0" encoding="UTF-8" standalone="no"?>
<!DOCTYPE svg PUBLIC "-//W3C//DTD SVG 1.1//EN"
 "http://www.w3.org/Graphics/SVG/1.1/DTD/svg11.dtd">
<!-- Generated by graphviz version 2.38.0 (20140413.2041)
 -->
<!-- Title: Иерархия классов. Графический вид. Pages: 1 -->
<svg width="220pt" height="104pt"
 viewBox="0.00 0.00 220.00 104.00" xmlns="http://www.w3.org/2000/svg" xmlns:xlink="http://www.w3.org/1999/xlink">
<g id="graph0" class="graph" transform="scale(1 1) rotate(0) translate(4 100)">
<title>Иерархия классов. Графический вид.</title>
<polygon fill="white" stroke="none" points="-4,4 -4,-100 216,-100 216,4 -4,4"/>
<!-- Node1 -->
<g id="node1" class="node"><title>Node1</title>
<polygon fill="white" stroke="#bfbfbf" points="0,-38.5 0,-57.5 80,-57.5 80,-38.5 0,-38.5"/>
<text text-anchor="middle" x="40" y="-45.5" font-family="Helvetica,sans-Serif" font-size="10.00">QMainWindow</text>
</g>
<!-- Node2 -->
<g id="node2" class="node"><title>Node2</title>
<g id="a_node2"><a xlink:href="class_filter_results_table.html" target="_top" xlink:title="Виджет для отображения таблиц. ">
<polygon fill="white" stroke="black" points="116,-76.5 116,-95.5 212,-95.5 212,-76.5 116,-76.5"/>
<text text-anchor="middle" x="164" y="-83.5" font-family="Helvetica,sans-Serif" font-size="10.00">FilterResultsTable</text>
</a>
</g>
</g>
<!-- Node1&#45;&gt;Node2 -->
<g id="edge1" class="edge"><title>Node1&#45;&gt;Node2</title>
<path fill="none" stroke="midnightblue" d="M81.7108,-60.6804C98.195,-65.8148 116.91,-71.6441 132.224,-76.4141"/>
<polygon fill="midnightblue" stroke="midnightblue" points="82.3742,-57.2213 71.7858,-57.589 80.2925,-63.9046 82.3742,-57.2213"/>
</g>
<!-- Node3 -->
<g id="node3" class="node"><title>Node3</title>
<g id="a_node3"><a xlink:href="class_graph_window.html" target="_top" xlink:title="Класс, реализующий окно для просмотра графиков. ">
<polygon fill="white" stroke="black" points="125,-38.5 125,-57.5 203,-57.5 203,-38.5 125,-38.5"/>
<text text-anchor="middle" x="164" y="-45.5" font-family="Helvetica,sans-Serif" font-size="10.00">GraphWindow</text>
</a>
</g>
</g>
<!-- Node1&#45;&gt;Node3 -->
<g id="edge2" class="edge"><title>Node1&#45;&gt;Node3</title>
<path fill="none" stroke="midnightblue" d="M90.5151,-48C101.889,-48 113.815,-48 124.634,-48"/>
<polygon fill="midnightblue" stroke="midnightblue" points="90.2731,-44.5001 80.2731,-48 90.2731,-51.5001 90.2731,-44.5001"/>
</g>
<!-- Node4 -->
<g id="node4" class="node"><title>Node4</title>
<g id="a_node4"><a xlink:href="class_main_window.html" target="_top" xlink:title="Класс для главного окна приложения. ">
<polygon fill="white" stroke="black" points="127.5,-0.5 127.5,-19.5 200.5,-19.5 200.5,-0.5 127.5,-0.5"/>
<text text-anchor="middle" x="164" y="-7.5" font-family="Helvetica,sans-Serif" font-size="10.00">MainWindow</text>
</a>
</g>
</g>
<!-- Node1&#45;&gt;Node4 -->
<g id="edge3" class="edge"><title>Node1&#45;&gt;Node4</title>
<path fill="none" stroke="midnightblue" d="M81.7108,-35.3196C98.195,-30.1852 116.91,-24.3559 132.224,-19.5859"/>
<polygon fill="midnightblue" stroke="midnightblue" points="80.2925,-32.0954 71.7858,-38.411 82.3742,-38.7787 80.2925,-32.0954"/>
</g>
</g>
</svg>
