<?xml version="1.0" encoding="UTF-8" standalone="no"?>
<!DOCTYPE svg PUBLIC "-//W3C//DTD SVG 1.1//EN"
 "http://www.w3.org/Graphics/SVG/1.1/DTD/svg11.dtd">
<!-- Generated by graphviz version 2.38.0 (20140413.2041)
 -->
<!-- Title: Иерархия классов. Графический вид. Pages: 1 -->
<svg width="218pt" height="66pt"
 viewBox="0.00 0.00 218.00 66.00" xmlns="http://www.w3.org/2000/svg" xmlns:xlink="http://www.w3.org/1999/xlink">
<g id="graph0" class="graph" transform="scale(1 1) rotate(0) translate(4 62)">
<title>Иерархия классов. Графический вид.</title>
<polygon fill="white" stroke="none" points="-4,4 -4,-62 214,-62 214,4 -4,4"/>
<!-- Node1 -->
<g id="node1" class="node"><title>Node1</title>
<polygon fill="white" stroke="#bfbfbf" points="0,-19.5 0,-38.5 55,-38.5 55,-19.5 0,-19.5"/>
<text text-anchor="middle" x="27.5" y="-26.5" font-family="Helvetica,sans-Serif" font-size="10.00">QWidget</text>
</g>
<!-- Node2 -->
<g id="node2" class="node"><title>Node2</title>
<g id="a_node2"><a xlink:href="class_matrix_widget.html" target="_top" xlink:title="Класс для отображения / изменения матриц (или векторов). ">
<polygon fill="white" stroke="black" points="113.5,-38.5 113.5,-57.5 187.5,-57.5 187.5,-38.5 113.5,-38.5"/>
<text text-anchor="middle" x="150.5" y="-45.5" font-family="Helvetica,sans-Serif" font-size="10.00">MatrixWidget</text>
</a>
</g>
</g>
<!-- Node1&#45;&gt;Node2 -->
<g id="edge1" class="edge"><title>Node1&#45;&gt;Node2</title>
<path fill="none" stroke="midnightblue" d="M65.1854,-34.7605C80.4627,-37.1594 98.1507,-39.9369 113.369,-42.3265"/>
<polygon fill="midnightblue" stroke="midnightblue" points="65.4759,-31.2633 55.054,-33.1696 64.39,-38.1786 65.4759,-31.2633"/>
</g>
<!-- Node3 -->
<g id="node3" class="node"><title>Node3</title>
<g id="a_node3"><a xlink:href="class_task_parameters_widget.html" target="_top" xlink:title="Класс виджета, предаставляющего возможность работы с параметрами задач. ">
<polygon fill="white" stroke="black" points="91,-0.5 91,-19.5 210,-19.5 210,-0.5 91,-0.5"/>
<text text-anchor="middle" x="150.5" y="-7.5" font-family="Helvetica,sans-Serif" font-size="10.00">TaskParametersWidget</text>
</a>
</g>
</g>
<!-- Node1&#45;&gt;Node3 -->
<g id="edge2" class="edge"><title>Node1&#45;&gt;Node3</title>
<path fill="none" stroke="midnightblue" d="M64.9563,-23.2755C73.1122,-21.9948 81.9644,-20.6048 90.7667,-19.2226"/>
<polygon fill="midnightblue" stroke="midnightblue" points="64.39,-19.8214 55.054,-24.8304 65.4759,-26.7367 64.39,-19.8214"/>
</g>
</g>
</svg>
