<?xml version="1.0" encoding="UTF-8" standalone="no"?>
<!DOCTYPE svg PUBLIC "-//W3C//DTD SVG 1.1//EN"
 "http://www.w3.org/Graphics/SVG/1.1/DTD/svg11.dtd">
<!-- Generated by graphviz version 2.38.0 (20140413.2041)
 -->
<!-- Title: Иерархия классов. Графический вид. Pages: 1 -->
<svg width="256pt" height="142pt"
 viewBox="0.00 0.00 256.00 142.00" xmlns="http://www.w3.org/2000/svg" xmlns:xlink="http://www.w3.org/1999/xlink">
<g id="graph0" class="graph" transform="scale(1 1) rotate(0) translate(4 138)">
<title>Иерархия классов. Графический вид.</title>
<polygon fill="white" stroke="none" points="-4,4 -4,-138 252,-138 252,4 -4,4"/>
<!-- Node9 -->
<g id="node1" class="node"><title>Node9</title>
<polygon fill="white" stroke="#bfbfbf" points="0,-57.5 0,-76.5 72,-76.5 72,-57.5 0,-57.5"/>
<text text-anchor="middle" x="36" y="-64.5" font-family="Helvetica,sans-Serif" font-size="10.00">QGroupBox</text>
</g>
<!-- Node0 -->
<g id="node2" class="node"><title>Node0</title>
<g id="a_node2"><a xlink:href="class_additional_settings_widget.html" target="_top" xlink:title="Класс виджета, предаставляющего дополнительные настройки для численных методов. ">
<polygon fill="white" stroke="black" points="108,-114.5 108,-133.5 248,-133.5 248,-114.5 108,-114.5"/>
<text text-anchor="middle" x="178" y="-121.5" font-family="Helvetica,sans-Serif" font-size="10.00">AdditionalSettingsWidget</text>
</a>
</g>
</g>
<!-- Node9&#45;&gt;Node0 -->
<g id="edge1" class="edge"><title>Node9&#45;&gt;Node0</title>
<path fill="none" stroke="midnightblue" d="M61.2214,-81.7025C74.6533,-89.4062 91.8603,-98.5525 108,-105 117,-108.595 126.921,-111.764 136.367,-114.431"/>
<polygon fill="midnightblue" stroke="midnightblue" points="62.9839,-78.6787 52.585,-76.6506 59.4494,-84.7209 62.9839,-78.6787"/>
</g>
<!-- Node11 -->
<g id="node3" class="node"><title>Node11</title>
<g id="a_node3"><a xlink:href="class_filter_parameters_widget.html" target="_top" xlink:title="Класс виджета, предаставляющего элементы управления параметрами фильтрации. ">
<polygon fill="white" stroke="black" points="112.5,-76.5 112.5,-95.5 243.5,-95.5 243.5,-76.5 112.5,-76.5"/>
<text text-anchor="middle" x="178" y="-83.5" font-family="Helvetica,sans-Serif" font-size="10.00">FilterParametersWidget</text>
</a>
</g>
</g>
<!-- Node9&#45;&gt;Node11 -->
<g id="edge2" class="edge"><title>Node9&#45;&gt;Node11</title>
<path fill="none" stroke="midnightblue" d="M82.365,-73.1567C91.9049,-74.4514 102.144,-75.841 112.238,-77.2109"/>
<polygon fill="midnightblue" stroke="midnightblue" points="82.7078,-69.6712 72.3279,-71.7945 81.7664,-76.6076 82.7078,-69.6712"/>
</g>
<!-- Node12 -->
<g id="node4" class="node"><title>Node12</title>
<g id="a_node4"><a xlink:href="class_filter_start_buttons_box.html" target="_top" xlink:title="Класс виджета, содержащего только кнопки для запуска того или иного фильтра. ">
<polygon fill="white" stroke="black" points="118,-38.5 118,-57.5 238,-57.5 238,-38.5 118,-38.5"/>
<text text-anchor="middle" x="178" y="-45.5" font-family="Helvetica,sans-Serif" font-size="10.00">FilterStartButtonsBox</text>
</a>
</g>
</g>
<!-- Node9&#45;&gt;Node12 -->
<g id="edge3" class="edge"><title>Node9&#45;&gt;Node12</title>
<path fill="none" stroke="midnightblue" d="M82.4259,-60.8351C93.7677,-59.2958 106.095,-57.6228 117.989,-56.0087"/>
<polygon fill="midnightblue" stroke="midnightblue" points="81.7664,-57.3924 72.3279,-62.2055 82.7078,-64.3288 81.7664,-57.3924"/>
</g>
<!-- Node13 -->
<g id="node5" class="node"><title>Node13</title>
<g id="a_node5"><a xlink:href="class_task_widget.html" target="_top" xlink:title="Виджет для работы с задачами для фильтров. ">
<polygon fill="white" stroke="black" points="141.5,-0.5 141.5,-19.5 214.5,-19.5 214.5,-0.5 141.5,-0.5"/>
<text text-anchor="middle" x="178" y="-7.5" font-family="Helvetica,sans-Serif" font-size="10.00">TaskWidget</text>
</a>
</g>
</g>
<!-- Node9&#45;&gt;Node13 -->
<g id="edge4" class="edge"><title>Node9&#45;&gt;Node13</title>
<path fill="none" stroke="midnightblue" d="M61.2214,-52.2975C74.6533,-44.5938 91.8603,-35.4475 108,-29 118.615,-24.7594 130.512,-21.1128 141.399,-18.1811"/>
<polygon fill="midnightblue" stroke="midnightblue" points="59.4494,-49.2791 52.585,-57.3494 62.9839,-55.3213 59.4494,-49.2791"/>
</g>
</g>
</svg>
