<?xml version="1.0" encoding="UTF-8" standalone="no"?>
<!DOCTYPE svg PUBLIC "-//W3C//DTD SVG 1.1//EN"
 "http://www.w3.org/Graphics/SVG/1.1/DTD/svg11.dtd">
<!-- Generated by graphviz version 2.38.0 (20140413.2041)
 -->
<!-- Title: Иерархия классов. Графический вид. Pages: 1 -->
<svg width="238pt" height="142pt"
 viewBox="0.00 0.00 238.00 142.00" xmlns="http://www.w3.org/2000/svg" xmlns:xlink="http://www.w3.org/1999/xlink">
<g id="graph0" class="graph" transform="scale(1 1) rotate(0) translate(4 138)">
<title>Иерархия классов. Графический вид.</title>
<polygon fill="white" stroke="none" points="-4,4 -4,-138 234,-138 234,4 -4,4"/>
<!-- Node1 -->
<g id="node1" class="node"><title>Node1</title>
<polygon fill="white" stroke="#bfbfbf" points="0,-57.5 0,-76.5 68,-76.5 68,-57.5 0,-57.5"/>
<text text-anchor="middle" x="34" y="-64.5" font-family="Helvetica,sans-Serif" font-size="10.00">QGroupBox</text>
</g>
<!-- Node2 -->
<g id="node2" class="node"><title>Node2</title>
<g id="a_node2"><a xlink:href="class_additional_settings_widget.html" target="_top" xlink:title="Класс виджета, предаставляющего дополнительные настройки для численных методов. ">
<polygon fill="white" stroke="black" points="104,-114.5 104,-133.5 230,-133.5 230,-114.5 104,-114.5"/>
<text text-anchor="middle" x="167" y="-121.5" font-family="Helvetica,sans-Serif" font-size="10.00">AdditionalSettingsWidget</text>
</a>
</g>
</g>
<!-- Node1&#45;&gt;Node2 -->
<g id="edge1" class="edge"><title>Node1&#45;&gt;Node2</title>
<path fill="none" stroke="midnightblue" d="M58.9399,-81.782C71.944,-89.398 88.4945,-98.4374 104,-105 112.398,-108.554 121.688,-111.762 130.466,-114.486"/>
<polygon fill="midnightblue" stroke="midnightblue" points="60.5439,-78.6634 50.1633,-76.5437 56.9564,-84.6742 60.5439,-78.6634"/>
</g>
<!-- Node3 -->
<g id="node3" class="node"><title>Node3</title>
<g id="a_node3"><a xlink:href="class_filter_parameters_widget.html" target="_top" xlink:title="Класс виджета, предаставляющего элементы управления параметрами фильтрации. ">
<polygon fill="white" stroke="black" points="107.5,-76.5 107.5,-95.5 226.5,-95.5 226.5,-76.5 107.5,-76.5"/>
<text text-anchor="middle" x="167" y="-83.5" font-family="Helvetica,sans-Serif" font-size="10.00">FilterParametersWidget</text>
</a>
</g>
</g>
<!-- Node1&#45;&gt;Node3 -->
<g id="edge2" class="edge"><title>Node1&#45;&gt;Node3</title>
<path fill="none" stroke="midnightblue" d="M77.966,-73.2317C87.395,-74.5993 97.5334,-76.0697 107.456,-77.509"/>
<polygon fill="midnightblue" stroke="midnightblue" points="78.4557,-69.7662 68.0568,-71.7945 77.4509,-76.6937 78.4557,-69.7662"/>
</g>
<!-- Node4 -->
<g id="node4" class="node"><title>Node4</title>
<g id="a_node4"><a xlink:href="class_filter_start_buttons_box.html" target="_top" xlink:title="Класс виджета, содержащего только кнопки для запуска того или иного фильтра. ">
<polygon fill="white" stroke="black" points="112,-38.5 112,-57.5 222,-57.5 222,-38.5 112,-38.5"/>
<text text-anchor="middle" x="167" y="-45.5" font-family="Helvetica,sans-Serif" font-size="10.00">FilterStartButtonsBox</text>
</a>
</g>
</g>
<!-- Node1&#45;&gt;Node4 -->
<g id="edge3" class="edge"><title>Node1&#45;&gt;Node4</title>
<path fill="none" stroke="midnightblue" d="M78.067,-60.7536C88.8496,-59.1898 100.555,-57.4921 111.801,-55.8609"/>
<polygon fill="midnightblue" stroke="midnightblue" points="77.4509,-57.3063 68.0568,-62.2055 78.4557,-64.2338 77.4509,-57.3063"/>
</g>
<!-- Node5 -->
<g id="node5" class="node"><title>Node5</title>
<g id="a_node5"><a xlink:href="class_task_widget.html" target="_top" xlink:title="Виджет для работы с задачами для фильтров. ">
<polygon fill="white" stroke="black" points="132.5,-0.5 132.5,-19.5 201.5,-19.5 201.5,-0.5 132.5,-0.5"/>
<text text-anchor="middle" x="167" y="-7.5" font-family="Helvetica,sans-Serif" font-size="10.00">TaskWidget</text>
</a>
</g>
</g>
<!-- Node1&#45;&gt;Node5 -->
<g id="edge4" class="edge"><title>Node1&#45;&gt;Node5</title>
<path fill="none" stroke="midnightblue" d="M58.9399,-52.218C71.944,-44.602 88.4945,-35.5626 104,-29 113.02,-25.1824 123.07,-21.7652 132.408,-18.9172"/>
<polygon fill="midnightblue" stroke="midnightblue" points="56.9564,-49.3258 50.1633,-57.4563 60.5439,-55.3366 56.9564,-49.3258"/>
</g>
</g>
</svg>
