<?xml version="1.0" encoding="UTF-8" standalone="no"?>
<!DOCTYPE svg PUBLIC "-//W3C//DTD SVG 1.1//EN"
 "http://www.w3.org/Graphics/SVG/1.1/DTD/svg11.dtd">
<!-- Generated by graphviz version 2.38.0 (20140413.2041)
 -->
<!-- Title: Иерархия классов. Графический вид. Pages: 1 -->
<svg width="218pt" height="104pt"
 viewBox="0.00 0.00 218.00 104.00" xmlns="http://www.w3.org/2000/svg" xmlns:xlink="http://www.w3.org/1999/xlink">
<g id="graph0" class="graph" transform="scale(1 1) rotate(0) translate(4 100)">
<title>Иерархия классов. Графический вид.</title>
<polygon fill="white" stroke="none" points="-4,4 -4,-100 214,-100 214,4 -4,4"/>
<!-- Node5 -->
<g id="node1" class="node"><title>Node5</title>
<polygon fill="white" stroke="#bfbfbf" points="0,-38.5 0,-57.5 79,-57.5 79,-38.5 0,-38.5"/>
<text text-anchor="middle" x="39.5" y="-45.5" font-family="Helvetica,sans-Serif" font-size="10.00">QMainWindow</text>
</g>
<!-- Node0 -->
<g id="node2" class="node"><title>Node0</title>
<g id="a_node2"><a xlink:href="class_filter_results_table.html" target="_top" xlink:title="Виджет для отображения таблиц. ">
<polygon fill="white" stroke="black" points="115,-76.5 115,-95.5 210,-95.5 210,-76.5 115,-76.5"/>
<text text-anchor="middle" x="162.5" y="-83.5" font-family="Helvetica,sans-Serif" font-size="10.00">FilterResultsTable</text>
</a>
</g>
</g>
<!-- Node5&#45;&gt;Node0 -->
<g id="edge1" class="edge"><title>Node5&#45;&gt;Node0</title>
<path fill="none" stroke="midnightblue" d="M80.8771,-60.6804C97.2262,-65.8148 115.788,-71.6441 130.976,-76.4141"/>
<polygon fill="midnightblue" stroke="midnightblue" points="81.6227,-57.2461 71.0334,-57.589 79.5253,-63.9245 81.6227,-57.2461"/>
</g>
<!-- Node7 -->
<g id="node3" class="node"><title>Node7</title>
<g id="a_node3"><a xlink:href="class_graph_window.html" target="_top" xlink:title="Класс, реализующий окно для просмотра графиков. ">
<polygon fill="white" stroke="black" points="124,-38.5 124,-57.5 201,-57.5 201,-38.5 124,-38.5"/>
<text text-anchor="middle" x="162.5" y="-45.5" font-family="Helvetica,sans-Serif" font-size="10.00">GraphWindow</text>
</a>
</g>
</g>
<!-- Node5&#45;&gt;Node7 -->
<g id="edge2" class="edge"><title>Node5&#45;&gt;Node7</title>
<path fill="none" stroke="midnightblue" d="M89.395,-48C100.814,-48 112.807,-48 123.662,-48"/>
<polygon fill="midnightblue" stroke="midnightblue" points="89.1179,-44.5001 79.1178,-48 89.1178,-51.5001 89.1179,-44.5001"/>
</g>
<!-- Node8 -->
<g id="node4" class="node"><title>Node8</title>
<g id="a_node4"><a xlink:href="class_main_window.html" target="_top" xlink:title="Класс для главного окна приложения. ">
<polygon fill="white" stroke="black" points="127,-0.5 127,-19.5 198,-19.5 198,-0.5 127,-0.5"/>
<text text-anchor="middle" x="162.5" y="-7.5" font-family="Helvetica,sans-Serif" font-size="10.00">MainWindow</text>
</a>
</g>
</g>
<!-- Node5&#45;&gt;Node8 -->
<g id="edge3" class="edge"><title>Node5&#45;&gt;Node8</title>
<path fill="none" stroke="midnightblue" d="M80.8771,-35.3196C97.2262,-30.1852 115.788,-24.3559 130.976,-19.5859"/>
<polygon fill="midnightblue" stroke="midnightblue" points="79.5253,-32.0755 71.0334,-38.411 81.6227,-38.7539 79.5253,-32.0755"/>
</g>
</g>
</svg>
