<?xml version="1.0" encoding="UTF-8" standalone="no"?>
<!DOCTYPE svg PUBLIC "-//W3C//DTD SVG 1.1//EN"
 "http://www.w3.org/Graphics/SVG/1.1/DTD/svg11.dtd">
<!-- Generated by graphviz version 2.38.0 (20140413.2041)
 -->
<!-- Title: Иерархия классов. Графический вид. Pages: 1 -->
<svg width="231pt" height="104pt"
 viewBox="0.00 0.00 231.00 104.00" xmlns="http://www.w3.org/2000/svg" xmlns:xlink="http://www.w3.org/1999/xlink">
<g id="graph0" class="graph" transform="scale(1 1) rotate(0) translate(4 100)">
<title>Иерархия классов. Графический вид.</title>
<polygon fill="white" stroke="none" points="-4,4 -4,-100 227,-100 227,4 -4,4"/>
<!-- Node5 -->
<g id="node1" class="node"><title>Node5</title>
<polygon fill="white" stroke="#bfbfbf" points="0,-38.5 0,-57.5 86,-57.5 86,-38.5 0,-38.5"/>
<text text-anchor="middle" x="43" y="-45.5" font-family="Helvetica,sans-Serif" font-size="10.00">QMainWindow</text>
</g>
<!-- Node0 -->
<g id="node2" class="node"><title>Node0</title>
<g id="a_node2"><a xlink:href="class_filter_results_table.html" target="_top" xlink:title="Виджет для отображения таблиц. ">
<polygon fill="white" stroke="black" points="122,-76.5 122,-95.5 223,-95.5 223,-76.5 122,-76.5"/>
<text text-anchor="middle" x="172.5" y="-83.5" font-family="Helvetica,sans-Serif" font-size="10.00">FilterResultsTable</text>
</a>
</g>
</g>
<!-- Node5&#45;&gt;Node0 -->
<g id="edge1" class="edge"><title>Node5&#45;&gt;Node0</title>
<path fill="none" stroke="midnightblue" d="M86.0592,-60.5353C103.404,-65.7048 123.181,-71.5991 139.337,-76.4141"/>
<polygon fill="midnightblue" stroke="midnightblue" points="86.7568,-57.0911 76.1736,-57.589 84.7574,-63.7995 86.7568,-57.0911"/>
</g>
<!-- Node7 -->
<g id="node3" class="node"><title>Node7</title>
<g id="a_node3"><a xlink:href="class_graph_window.html" target="_top" xlink:title="Класс, реализующий окно для просмотра графиков. ">
<polygon fill="white" stroke="black" points="130,-38.5 130,-57.5 215,-57.5 215,-38.5 130,-38.5"/>
<text text-anchor="middle" x="172.5" y="-45.5" font-family="Helvetica,sans-Serif" font-size="10.00">GraphWindow</text>
</a>
</g>
</g>
<!-- Node5&#45;&gt;Node7 -->
<g id="edge2" class="edge"><title>Node5&#45;&gt;Node7</title>
<path fill="none" stroke="midnightblue" d="M96.2174,-48C107.428,-48 119.132,-48 129.877,-48"/>
<polygon fill="midnightblue" stroke="midnightblue" points="96.1017,-44.5001 86.1016,-48 96.1016,-51.5001 96.1017,-44.5001"/>
</g>
<!-- Node8 -->
<g id="node4" class="node"><title>Node8</title>
<g id="a_node4"><a xlink:href="class_main_window.html" target="_top" xlink:title="Класс для главного окна приложения. ">
<polygon fill="white" stroke="black" points="133,-0.5 133,-19.5 212,-19.5 212,-0.5 133,-0.5"/>
<text text-anchor="middle" x="172.5" y="-7.5" font-family="Helvetica,sans-Serif" font-size="10.00">MainWindow</text>
</a>
</g>
</g>
<!-- Node5&#45;&gt;Node8 -->
<g id="edge3" class="edge"><title>Node5&#45;&gt;Node8</title>
<path fill="none" stroke="midnightblue" d="M86.0592,-35.4647C103.404,-30.2952 123.181,-24.4009 139.337,-19.5859"/>
<polygon fill="midnightblue" stroke="midnightblue" points="84.7574,-32.2005 76.1736,-38.411 86.7568,-38.9089 84.7574,-32.2005"/>
</g>
</g>
</svg>
